%TF.GenerationSoftware,KiCad,Pcbnew,(5.1.6)-1*%
%TF.CreationDate,2020-06-23T23:46:23+03:00*%
%TF.ProjectId,flyback,666c7962-6163-46b2-9e6b-696361645f70,rev?*%
%TF.SameCoordinates,Original*%
%TF.FileFunction,Copper,L1,Top*%
%TF.FilePolarity,Positive*%
%FSLAX46Y46*%
G04 Gerber Fmt 4.6, Leading zero omitted, Abs format (unit mm)*
G04 Created by KiCad (PCBNEW (5.1.6)-1) date 2020-06-23 23:46:23*
%MOMM*%
%LPD*%
G01*
G04 APERTURE LIST*
%TA.AperFunction,ComponentPad*%
%ADD10C,3.000000*%
%TD*%
%TA.AperFunction,ComponentPad*%
%ADD11O,2.000000X2.000000*%
%TD*%
%TA.AperFunction,ComponentPad*%
%ADD12R,2.000000X2.000000*%
%TD*%
%TA.AperFunction,ComponentPad*%
%ADD13R,1.500000X1.050000*%
%TD*%
%TA.AperFunction,ComponentPad*%
%ADD14O,1.500000X1.050000*%
%TD*%
%TA.AperFunction,SMDPad,CuDef*%
%ADD15R,2.300000X2.500000*%
%TD*%
%TA.AperFunction,SMDPad,CuDef*%
%ADD16R,3.500000X2.300000*%
%TD*%
%TA.AperFunction,ComponentPad*%
%ADD17C,10.160000*%
%TD*%
%TA.AperFunction,SMDPad,CuDef*%
%ADD18R,1.550000X0.600000*%
%TD*%
%TA.AperFunction,ComponentPad*%
%ADD19O,1.600000X1.600000*%
%TD*%
%TA.AperFunction,ComponentPad*%
%ADD20R,1.600000X1.600000*%
%TD*%
%TA.AperFunction,ComponentPad*%
%ADD21O,4.500000X2.500000*%
%TD*%
%TA.AperFunction,ComponentPad*%
%ADD22R,4.500000X2.500000*%
%TD*%
%TA.AperFunction,ViaPad*%
%ADD23C,0.800000*%
%TD*%
%TA.AperFunction,Conductor*%
%ADD24C,0.500000*%
%TD*%
%TA.AperFunction,Conductor*%
%ADD25C,0.250000*%
%TD*%
%TA.AperFunction,Conductor*%
%ADD26C,1.000000*%
%TD*%
%TA.AperFunction,Conductor*%
%ADD27C,0.254000*%
%TD*%
G04 APERTURE END LIST*
%TO.P,C1,2*%
%TO.N,GND*%
%TA.AperFunction,SMDPad,CuDef*%
G36*
G01*
X196406000Y-96601500D02*
X196406000Y-96946500D01*
G75*
G02*
X196258500Y-97094000I-147500J0D01*
G01*
X195963500Y-97094000D01*
G75*
G02*
X195816000Y-96946500I0J147500D01*
G01*
X195816000Y-96601500D01*
G75*
G02*
X195963500Y-96454000I147500J0D01*
G01*
X196258500Y-96454000D01*
G75*
G02*
X196406000Y-96601500I0J-147500D01*
G01*
G37*
%TD.AperFunction*%
%TO.P,C1,1*%
%TO.N,GND2*%
%TA.AperFunction,SMDPad,CuDef*%
G36*
G01*
X197376000Y-96601500D02*
X197376000Y-96946500D01*
G75*
G02*
X197228500Y-97094000I-147500J0D01*
G01*
X196933500Y-97094000D01*
G75*
G02*
X196786000Y-96946500I0J147500D01*
G01*
X196786000Y-96601500D01*
G75*
G02*
X196933500Y-96454000I147500J0D01*
G01*
X197228500Y-96454000D01*
G75*
G02*
X197376000Y-96601500I0J-147500D01*
G01*
G37*
%TD.AperFunction*%
%TD*%
D10*
%TO.P,HS1,1*%
%TO.N,N/C*%
X192532000Y-84592000D03*
X192532000Y-66792000D03*
%TD*%
D11*
%TO.P,D5,2*%
%TO.N,/Vout+*%
X233426000Y-37084000D03*
D12*
%TO.P,D5,1*%
%TO.N,Net-(D5-Pad1)*%
X228346000Y-37084000D03*
%TD*%
%TO.P,RVS1,2*%
%TO.N,Net-(RVS1-Pad2)*%
%TA.AperFunction,SMDPad,CuDef*%
G36*
G01*
X172656000Y-73578500D02*
X172656000Y-73233500D01*
G75*
G02*
X172803500Y-73086000I147500J0D01*
G01*
X173098500Y-73086000D01*
G75*
G02*
X173246000Y-73233500I0J-147500D01*
G01*
X173246000Y-73578500D01*
G75*
G02*
X173098500Y-73726000I-147500J0D01*
G01*
X172803500Y-73726000D01*
G75*
G02*
X172656000Y-73578500I0J147500D01*
G01*
G37*
%TD.AperFunction*%
%TO.P,RVS1,1*%
%TO.N,Net-(D3-Pad2)*%
%TA.AperFunction,SMDPad,CuDef*%
G36*
G01*
X171686000Y-73578500D02*
X171686000Y-73233500D01*
G75*
G02*
X171833500Y-73086000I147500J0D01*
G01*
X172128500Y-73086000D01*
G75*
G02*
X172276000Y-73233500I0J-147500D01*
G01*
X172276000Y-73578500D01*
G75*
G02*
X172128500Y-73726000I-147500J0D01*
G01*
X171833500Y-73726000D01*
G75*
G02*
X171686000Y-73578500I0J147500D01*
G01*
G37*
%TD.AperFunction*%
%TD*%
%TO.P,RLC1,2*%
%TO.N,Net-(Ccs1-Pad1)*%
%TA.AperFunction,SMDPad,CuDef*%
G36*
G01*
X185418000Y-76154500D02*
X185418000Y-76499500D01*
G75*
G02*
X185270500Y-76647000I-147500J0D01*
G01*
X184975500Y-76647000D01*
G75*
G02*
X184828000Y-76499500I0J147500D01*
G01*
X184828000Y-76154500D01*
G75*
G02*
X184975500Y-76007000I147500J0D01*
G01*
X185270500Y-76007000D01*
G75*
G02*
X185418000Y-76154500I0J-147500D01*
G01*
G37*
%TD.AperFunction*%
%TO.P,RLC1,1*%
%TO.N,Net-(M1-Pad3)*%
%TA.AperFunction,SMDPad,CuDef*%
G36*
G01*
X186388000Y-76154500D02*
X186388000Y-76499500D01*
G75*
G02*
X186240500Y-76647000I-147500J0D01*
G01*
X185945500Y-76647000D01*
G75*
G02*
X185798000Y-76499500I0J147500D01*
G01*
X185798000Y-76154500D01*
G75*
G02*
X185945500Y-76007000I147500J0D01*
G01*
X186240500Y-76007000D01*
G75*
G02*
X186388000Y-76154500I0J-147500D01*
G01*
G37*
%TD.AperFunction*%
%TD*%
%TO.P,RFB3,2*%
%TO.N,Net-(CFB1-Pad2)*%
%TA.AperFunction,SMDPad,CuDef*%
G36*
G01*
X172892500Y-75502000D02*
X172547500Y-75502000D01*
G75*
G02*
X172400000Y-75354500I0J147500D01*
G01*
X172400000Y-75059500D01*
G75*
G02*
X172547500Y-74912000I147500J0D01*
G01*
X172892500Y-74912000D01*
G75*
G02*
X173040000Y-75059500I0J-147500D01*
G01*
X173040000Y-75354500D01*
G75*
G02*
X172892500Y-75502000I-147500J0D01*
G01*
G37*
%TD.AperFunction*%
%TO.P,RFB3,1*%
%TO.N,Net-(CFB1-Pad1)*%
%TA.AperFunction,SMDPad,CuDef*%
G36*
G01*
X172892500Y-76472000D02*
X172547500Y-76472000D01*
G75*
G02*
X172400000Y-76324500I0J147500D01*
G01*
X172400000Y-76029500D01*
G75*
G02*
X172547500Y-75882000I147500J0D01*
G01*
X172892500Y-75882000D01*
G75*
G02*
X173040000Y-76029500I0J-147500D01*
G01*
X173040000Y-76324500D01*
G75*
G02*
X172892500Y-76472000I-147500J0D01*
G01*
G37*
%TD.AperFunction*%
%TD*%
D13*
%TO.P,U3,1*%
%TO.N,Net-(Cz1-Pad2)*%
X218694000Y-88138000D03*
D14*
%TO.P,U3,3*%
%TO.N,/OPTO-*%
X218694000Y-90678000D03*
%TO.P,U3,2*%
%TO.N,GND2*%
X218694000Y-89408000D03*
%TD*%
%TO.P,Cout1,2*%
%TO.N,GND2*%
%TA.AperFunction,SMDPad,CuDef*%
G36*
G01*
X229775000Y-52975000D02*
X229775000Y-54975000D01*
G75*
G02*
X229525000Y-55225000I-250000J0D01*
G01*
X226025000Y-55225000D01*
G75*
G02*
X225775000Y-54975000I0J250000D01*
G01*
X225775000Y-52975000D01*
G75*
G02*
X226025000Y-52725000I250000J0D01*
G01*
X229525000Y-52725000D01*
G75*
G02*
X229775000Y-52975000I0J-250000D01*
G01*
G37*
%TD.AperFunction*%
%TO.P,Cout1,1*%
%TO.N,/Vout+*%
%TA.AperFunction,SMDPad,CuDef*%
G36*
G01*
X237775000Y-52975000D02*
X237775000Y-54975000D01*
G75*
G02*
X237525000Y-55225000I-250000J0D01*
G01*
X234025000Y-55225000D01*
G75*
G02*
X233775000Y-54975000I0J250000D01*
G01*
X233775000Y-52975000D01*
G75*
G02*
X234025000Y-52725000I250000J0D01*
G01*
X237525000Y-52725000D01*
G75*
G02*
X237775000Y-52975000I0J-250000D01*
G01*
G37*
%TD.AperFunction*%
%TD*%
D15*
%TO.P,Dclamp1,2*%
%TO.N,+48V*%
X173736000Y-40014000D03*
%TO.P,Dclamp1,1*%
%TO.N,Net-(D1-Pad1)*%
X173736000Y-44314000D03*
%TD*%
D16*
%TO.P,D1,2*%
%TO.N,Net-(D1-Pad2)*%
X182880000Y-52324000D03*
%TO.P,D1,1*%
%TO.N,Net-(D1-Pad1)*%
X177480000Y-52324000D03*
%TD*%
D17*
%TO.P,J1,2*%
%TO.N,GND2*%
X217424000Y-73406000D03*
%TO.P,J1,1*%
%TO.N,/Vout+*%
X247394000Y-73406000D03*
%TD*%
%TO.P,J2,2*%
%TO.N,GND*%
X156718000Y-69850000D03*
%TO.P,J2,1*%
%TO.N,+48V*%
X156718000Y-39880000D03*
%TD*%
%TO.P,RFB2,1*%
%TO.N,Net-(Cz1-Pad2)*%
%TA.AperFunction,SMDPad,CuDef*%
G36*
G01*
X227327750Y-87421000D02*
X227840250Y-87421000D01*
G75*
G02*
X228059000Y-87639750I0J-218750D01*
G01*
X228059000Y-88077250D01*
G75*
G02*
X227840250Y-88296000I-218750J0D01*
G01*
X227327750Y-88296000D01*
G75*
G02*
X227109000Y-88077250I0J218750D01*
G01*
X227109000Y-87639750D01*
G75*
G02*
X227327750Y-87421000I218750J0D01*
G01*
G37*
%TD.AperFunction*%
%TO.P,RFB2,2*%
%TO.N,GND2*%
%TA.AperFunction,SMDPad,CuDef*%
G36*
G01*
X227327750Y-88996000D02*
X227840250Y-88996000D01*
G75*
G02*
X228059000Y-89214750I0J-218750D01*
G01*
X228059000Y-89652250D01*
G75*
G02*
X227840250Y-89871000I-218750J0D01*
G01*
X227327750Y-89871000D01*
G75*
G02*
X227109000Y-89652250I0J218750D01*
G01*
X227109000Y-89214750D01*
G75*
G02*
X227327750Y-88996000I218750J0D01*
G01*
G37*
%TD.AperFunction*%
%TD*%
%TO.P,RFB1,1*%
%TO.N,/Vout+*%
%TA.AperFunction,SMDPad,CuDef*%
G36*
G01*
X230375750Y-85897000D02*
X230888250Y-85897000D01*
G75*
G02*
X231107000Y-86115750I0J-218750D01*
G01*
X231107000Y-86553250D01*
G75*
G02*
X230888250Y-86772000I-218750J0D01*
G01*
X230375750Y-86772000D01*
G75*
G02*
X230157000Y-86553250I0J218750D01*
G01*
X230157000Y-86115750D01*
G75*
G02*
X230375750Y-85897000I218750J0D01*
G01*
G37*
%TD.AperFunction*%
%TO.P,RFB1,2*%
%TO.N,Net-(Cz1-Pad2)*%
%TA.AperFunction,SMDPad,CuDef*%
G36*
G01*
X230375750Y-87472000D02*
X230888250Y-87472000D01*
G75*
G02*
X231107000Y-87690750I0J-218750D01*
G01*
X231107000Y-88128250D01*
G75*
G02*
X230888250Y-88347000I-218750J0D01*
G01*
X230375750Y-88347000D01*
G75*
G02*
X230157000Y-88128250I0J218750D01*
G01*
X230157000Y-87690750D01*
G75*
G02*
X230375750Y-87472000I218750J0D01*
G01*
G37*
%TD.AperFunction*%
%TD*%
%TO.P,RFB4,2*%
%TO.N,GND*%
%TA.AperFunction,SMDPad,CuDef*%
G36*
G01*
X175341500Y-75882000D02*
X175686500Y-75882000D01*
G75*
G02*
X175834000Y-76029500I0J-147500D01*
G01*
X175834000Y-76324500D01*
G75*
G02*
X175686500Y-76472000I-147500J0D01*
G01*
X175341500Y-76472000D01*
G75*
G02*
X175194000Y-76324500I0J147500D01*
G01*
X175194000Y-76029500D01*
G75*
G02*
X175341500Y-75882000I147500J0D01*
G01*
G37*
%TD.AperFunction*%
%TO.P,RFB4,1*%
%TO.N,Net-(CFB1-Pad2)*%
%TA.AperFunction,SMDPad,CuDef*%
G36*
G01*
X175341500Y-74912000D02*
X175686500Y-74912000D01*
G75*
G02*
X175834000Y-75059500I0J-147500D01*
G01*
X175834000Y-75354500D01*
G75*
G02*
X175686500Y-75502000I-147500J0D01*
G01*
X175341500Y-75502000D01*
G75*
G02*
X175194000Y-75354500I0J147500D01*
G01*
X175194000Y-75059500D01*
G75*
G02*
X175341500Y-74912000I147500J0D01*
G01*
G37*
%TD.AperFunction*%
%TD*%
%TO.P,RVS2,2*%
%TO.N,GND*%
%TA.AperFunction,SMDPad,CuDef*%
G36*
G01*
X173987750Y-75534000D02*
X174500250Y-75534000D01*
G75*
G02*
X174719000Y-75752750I0J-218750D01*
G01*
X174719000Y-76190250D01*
G75*
G02*
X174500250Y-76409000I-218750J0D01*
G01*
X173987750Y-76409000D01*
G75*
G02*
X173769000Y-76190250I0J218750D01*
G01*
X173769000Y-75752750D01*
G75*
G02*
X173987750Y-75534000I218750J0D01*
G01*
G37*
%TD.AperFunction*%
%TO.P,RVS2,1*%
%TO.N,Net-(RVS1-Pad2)*%
%TA.AperFunction,SMDPad,CuDef*%
G36*
G01*
X173987750Y-73959000D02*
X174500250Y-73959000D01*
G75*
G02*
X174719000Y-74177750I0J-218750D01*
G01*
X174719000Y-74615250D01*
G75*
G02*
X174500250Y-74834000I-218750J0D01*
G01*
X173987750Y-74834000D01*
G75*
G02*
X173769000Y-74615250I0J218750D01*
G01*
X173769000Y-74177750D01*
G75*
G02*
X173987750Y-73959000I218750J0D01*
G01*
G37*
%TD.AperFunction*%
%TD*%
%TO.P,CFB1,2*%
%TO.N,Net-(CFB1-Pad2)*%
%TA.AperFunction,SMDPad,CuDef*%
G36*
G01*
X171622500Y-75733000D02*
X171277500Y-75733000D01*
G75*
G02*
X171130000Y-75585500I0J147500D01*
G01*
X171130000Y-75290500D01*
G75*
G02*
X171277500Y-75143000I147500J0D01*
G01*
X171622500Y-75143000D01*
G75*
G02*
X171770000Y-75290500I0J-147500D01*
G01*
X171770000Y-75585500D01*
G75*
G02*
X171622500Y-75733000I-147500J0D01*
G01*
G37*
%TD.AperFunction*%
%TO.P,CFB1,1*%
%TO.N,Net-(CFB1-Pad1)*%
%TA.AperFunction,SMDPad,CuDef*%
G36*
G01*
X171622500Y-76703000D02*
X171277500Y-76703000D01*
G75*
G02*
X171130000Y-76555500I0J147500D01*
G01*
X171130000Y-76260500D01*
G75*
G02*
X171277500Y-76113000I147500J0D01*
G01*
X171622500Y-76113000D01*
G75*
G02*
X171770000Y-76260500I0J-147500D01*
G01*
X171770000Y-76555500D01*
G75*
G02*
X171622500Y-76703000I-147500J0D01*
G01*
G37*
%TD.AperFunction*%
%TD*%
D18*
%TO.P,U2,8*%
%TO.N,+48V*%
X183040000Y-72517000D03*
%TO.P,U2,6*%
%TO.N,Net-(M1-Pad2)*%
X183040000Y-75057000D03*
%TO.P,U2,5*%
%TO.N,Net-(Ccs1-Pad1)*%
X183040000Y-76327000D03*
%TO.P,U2,4*%
%TO.N,GND*%
X177640000Y-76327000D03*
%TO.P,U2,3*%
%TO.N,Net-(CFB1-Pad2)*%
X177640000Y-75057000D03*
%TO.P,U2,2*%
%TO.N,Net-(RVS1-Pad2)*%
X177640000Y-73787000D03*
%TO.P,U2,1*%
%TO.N,Net-(Cext1-Pad1)*%
X177640000Y-72517000D03*
%TD*%
D10*
%TO.P,T1,10*%
%TO.N,N/C*%
X211770000Y-52070000D03*
%TO.P,T1,9*%
X211770000Y-47070000D03*
%TO.P,T1,4*%
%TO.N,GND2*%
X211770000Y-42070000D03*
%TO.P,T1,3*%
%TO.N,Net-(D5-Pad1)*%
X211770000Y-37070000D03*
%TO.P,T1,7*%
%TO.N,N/C*%
X211770000Y-32070000D03*
%TO.P,T1,8*%
X191770000Y-32070000D03*
%TO.P,T1,5*%
%TO.N,Net-(D3-Pad2)*%
X191770000Y-37070000D03*
%TO.P,T1,6*%
%TO.N,GND*%
X191770000Y-42070000D03*
%TO.P,T1,1*%
%TO.N,+48V*%
X191770000Y-47070000D03*
%TO.P,T1,2*%
%TO.N,Net-(D1-Pad2)*%
X191770000Y-52070000D03*
%TD*%
D19*
%TO.P,U1,4*%
%TO.N,Net-(Cext1-Pad1)*%
X193040000Y-94234000D03*
%TO.P,U1,2*%
%TO.N,/OPTO-*%
X200660000Y-96774000D03*
%TO.P,U1,3*%
%TO.N,Net-(CFB1-Pad1)*%
X193040000Y-96774000D03*
D20*
%TO.P,U1,1*%
%TO.N,/OPTO+*%
X200660000Y-94234000D03*
%TD*%
%TO.P,RCS1,2*%
%TO.N,GND*%
%TA.AperFunction,SMDPad,CuDef*%
G36*
G01*
X185484000Y-79075500D02*
X185484000Y-79420500D01*
G75*
G02*
X185336500Y-79568000I-147500J0D01*
G01*
X185041500Y-79568000D01*
G75*
G02*
X184894000Y-79420500I0J147500D01*
G01*
X184894000Y-79075500D01*
G75*
G02*
X185041500Y-78928000I147500J0D01*
G01*
X185336500Y-78928000D01*
G75*
G02*
X185484000Y-79075500I0J-147500D01*
G01*
G37*
%TD.AperFunction*%
%TO.P,RCS1,1*%
%TO.N,Net-(M1-Pad3)*%
%TA.AperFunction,SMDPad,CuDef*%
G36*
G01*
X186454000Y-79075500D02*
X186454000Y-79420500D01*
G75*
G02*
X186306500Y-79568000I-147500J0D01*
G01*
X186011500Y-79568000D01*
G75*
G02*
X185864000Y-79420500I0J147500D01*
G01*
X185864000Y-79075500D01*
G75*
G02*
X186011500Y-78928000I147500J0D01*
G01*
X186306500Y-78928000D01*
G75*
G02*
X186454000Y-79075500I0J-147500D01*
G01*
G37*
%TD.AperFunction*%
%TD*%
D21*
%TO.P,M1,3*%
%TO.N,Net-(M1-Pad3)*%
X191516000Y-81004000D03*
%TO.P,M1,2*%
%TO.N,Net-(M1-Pad2)*%
X191516000Y-75554000D03*
D22*
%TO.P,M1,1*%
%TO.N,Net-(D1-Pad2)*%
X191516000Y-70104000D03*
%TD*%
%TO.P,Cz1,1*%
%TO.N,/OPTO-*%
%TA.AperFunction,SMDPad,CuDef*%
G36*
G01*
X223855500Y-86827000D02*
X224200500Y-86827000D01*
G75*
G02*
X224348000Y-86974500I0J-147500D01*
G01*
X224348000Y-87269500D01*
G75*
G02*
X224200500Y-87417000I-147500J0D01*
G01*
X223855500Y-87417000D01*
G75*
G02*
X223708000Y-87269500I0J147500D01*
G01*
X223708000Y-86974500D01*
G75*
G02*
X223855500Y-86827000I147500J0D01*
G01*
G37*
%TD.AperFunction*%
%TO.P,Cz1,2*%
%TO.N,Net-(Cz1-Pad2)*%
%TA.AperFunction,SMDPad,CuDef*%
G36*
G01*
X223855500Y-87797000D02*
X224200500Y-87797000D01*
G75*
G02*
X224348000Y-87944500I0J-147500D01*
G01*
X224348000Y-88239500D01*
G75*
G02*
X224200500Y-88387000I-147500J0D01*
G01*
X223855500Y-88387000D01*
G75*
G02*
X223708000Y-88239500I0J147500D01*
G01*
X223708000Y-87944500D01*
G75*
G02*
X223855500Y-87797000I147500J0D01*
G01*
G37*
%TD.AperFunction*%
%TD*%
%TO.P,Cvdd1,2*%
%TO.N,GND*%
%TA.AperFunction,SMDPad,CuDef*%
G36*
G01*
X175070000Y-72471500D02*
X175070000Y-72816500D01*
G75*
G02*
X174922500Y-72964000I-147500J0D01*
G01*
X174627500Y-72964000D01*
G75*
G02*
X174480000Y-72816500I0J147500D01*
G01*
X174480000Y-72471500D01*
G75*
G02*
X174627500Y-72324000I147500J0D01*
G01*
X174922500Y-72324000D01*
G75*
G02*
X175070000Y-72471500I0J-147500D01*
G01*
G37*
%TD.AperFunction*%
%TO.P,Cvdd1,1*%
%TO.N,Net-(Cext1-Pad1)*%
%TA.AperFunction,SMDPad,CuDef*%
G36*
G01*
X176040000Y-72471500D02*
X176040000Y-72816500D01*
G75*
G02*
X175892500Y-72964000I-147500J0D01*
G01*
X175597500Y-72964000D01*
G75*
G02*
X175450000Y-72816500I0J147500D01*
G01*
X175450000Y-72471500D01*
G75*
G02*
X175597500Y-72324000I147500J0D01*
G01*
X175892500Y-72324000D01*
G75*
G02*
X176040000Y-72471500I0J-147500D01*
G01*
G37*
%TD.AperFunction*%
%TD*%
%TO.P,Css431,1*%
%TO.N,/OPTO-*%
%TA.AperFunction,SMDPad,CuDef*%
G36*
G01*
X224200500Y-90719000D02*
X223855500Y-90719000D01*
G75*
G02*
X223708000Y-90571500I0J147500D01*
G01*
X223708000Y-90276500D01*
G75*
G02*
X223855500Y-90129000I147500J0D01*
G01*
X224200500Y-90129000D01*
G75*
G02*
X224348000Y-90276500I0J-147500D01*
G01*
X224348000Y-90571500D01*
G75*
G02*
X224200500Y-90719000I-147500J0D01*
G01*
G37*
%TD.AperFunction*%
%TO.P,Css431,2*%
%TO.N,GND2*%
%TA.AperFunction,SMDPad,CuDef*%
G36*
G01*
X224200500Y-89749000D02*
X223855500Y-89749000D01*
G75*
G02*
X223708000Y-89601500I0J147500D01*
G01*
X223708000Y-89306500D01*
G75*
G02*
X223855500Y-89159000I147500J0D01*
G01*
X224200500Y-89159000D01*
G75*
G02*
X224348000Y-89306500I0J-147500D01*
G01*
X224348000Y-89601500D01*
G75*
G02*
X224200500Y-89749000I-147500J0D01*
G01*
G37*
%TD.AperFunction*%
%TD*%
%TO.P,Ccs1,2*%
%TO.N,GND*%
%TA.AperFunction,SMDPad,CuDef*%
G36*
G01*
X181166000Y-78313500D02*
X181166000Y-78658500D01*
G75*
G02*
X181018500Y-78806000I-147500J0D01*
G01*
X180723500Y-78806000D01*
G75*
G02*
X180576000Y-78658500I0J147500D01*
G01*
X180576000Y-78313500D01*
G75*
G02*
X180723500Y-78166000I147500J0D01*
G01*
X181018500Y-78166000D01*
G75*
G02*
X181166000Y-78313500I0J-147500D01*
G01*
G37*
%TD.AperFunction*%
%TO.P,Ccs1,1*%
%TO.N,Net-(Ccs1-Pad1)*%
%TA.AperFunction,SMDPad,CuDef*%
G36*
G01*
X182136000Y-78313500D02*
X182136000Y-78658500D01*
G75*
G02*
X181988500Y-78806000I-147500J0D01*
G01*
X181693500Y-78806000D01*
G75*
G02*
X181546000Y-78658500I0J147500D01*
G01*
X181546000Y-78313500D01*
G75*
G02*
X181693500Y-78166000I147500J0D01*
G01*
X181988500Y-78166000D01*
G75*
G02*
X182136000Y-78313500I0J-147500D01*
G01*
G37*
%TD.AperFunction*%
%TD*%
D23*
%TO.N,Net-(CFB1-Pad1)*%
X187731500Y-96799500D03*
%TO.N,Net-(Cext1-Pad1)*%
X178816000Y-72644000D03*
%TO.N,/OPTO-*%
X214757000Y-92583000D03*
%TO.N,Net-(D3-Pad2)*%
X178816000Y-92456000D03*
X171969500Y-73417500D03*
%TD*%
D24*
%TO.N,GND*%
X175308500Y-75971500D02*
X175514000Y-76177000D01*
X174244000Y-75971500D02*
X175308500Y-75971500D01*
X175664000Y-76327000D02*
X175514000Y-76177000D01*
X177640000Y-76327000D02*
X175664000Y-76327000D01*
X179799000Y-78486000D02*
X177640000Y-76327000D01*
X180871000Y-78486000D02*
X179799000Y-78486000D01*
%TO.N,Net-(Ccs1-Pad1)*%
X181841000Y-77526000D02*
X183040000Y-76327000D01*
X181841000Y-78486000D02*
X181841000Y-77526000D01*
X185123000Y-76327000D02*
X183040000Y-76327000D01*
%TO.N,Net-(CFB1-Pad1)*%
X172489000Y-76408000D02*
X172720000Y-76177000D01*
X171450000Y-76408000D02*
X172489000Y-76408000D01*
X187731500Y-91188500D02*
X172720000Y-76177000D01*
X187731500Y-91188500D02*
X187731500Y-96799500D01*
%TO.N,Net-(Cext1-Pad1)*%
X175872000Y-72517000D02*
X175745000Y-72644000D01*
X177640000Y-72517000D02*
X175872000Y-72517000D01*
X175745000Y-72324000D02*
X175745000Y-72644000D01*
X177767000Y-72644000D02*
X177640000Y-72517000D01*
X178816000Y-72644000D02*
X177767000Y-72644000D01*
%TO.N,Net-(CFB1-Pad2)*%
X171681000Y-75207000D02*
X171450000Y-75438000D01*
X172720000Y-75207000D02*
X171681000Y-75207000D01*
X177490000Y-75207000D02*
X177640000Y-75057000D01*
X175514000Y-75207000D02*
X177490000Y-75207000D01*
D25*
X172720000Y-75207000D02*
X175514000Y-75207000D01*
D26*
%TO.N,/Vout+*%
X247394000Y-73406000D02*
X235585000Y-61597000D01*
X235585000Y-54165000D02*
X235775000Y-53975000D01*
X235585000Y-61597000D02*
X235585000Y-54165000D01*
D24*
X234465500Y-86334500D02*
X230632000Y-86334500D01*
X247394000Y-73406000D02*
X234465500Y-86334500D01*
D26*
X233426000Y-51626000D02*
X235775000Y-53975000D01*
X233426000Y-37084000D02*
X233426000Y-51626000D01*
D25*
%TO.N,/OPTO-*%
X218694000Y-90678000D02*
X218567000Y-90678000D01*
D24*
X218948000Y-90424000D02*
X218694000Y-90678000D01*
X224028000Y-90424000D02*
X218948000Y-90424000D01*
X218694000Y-90678000D02*
X216662000Y-90678000D01*
X216662000Y-90678000D02*
X214757000Y-92583000D01*
X214757000Y-92583000D02*
X214630000Y-92710000D01*
%TO.N,Net-(Cz1-Pad2)*%
X227635000Y-87909500D02*
X227584000Y-87858500D01*
X230632000Y-87909500D02*
X227635000Y-87909500D01*
X227350500Y-88092000D02*
X224028000Y-88092000D01*
X227584000Y-87858500D02*
X227350500Y-88092000D01*
X223982000Y-88138000D02*
X224028000Y-88092000D01*
X218694000Y-88138000D02*
X223982000Y-88138000D01*
D26*
%TO.N,Net-(D1-Pad2)*%
X191770000Y-69850000D02*
X191516000Y-70104000D01*
X191770000Y-52070000D02*
X191770000Y-69850000D01*
X183134000Y-52070000D02*
X182880000Y-52324000D01*
X191770000Y-52070000D02*
X183134000Y-52070000D01*
%TO.N,Net-(D1-Pad1)*%
X177480000Y-48058000D02*
X173736000Y-44314000D01*
X177480000Y-52324000D02*
X177480000Y-48058000D01*
%TO.N,+48V*%
X173602000Y-39880000D02*
X173736000Y-40014000D01*
X156718000Y-39880000D02*
X173602000Y-39880000D01*
X191770000Y-47070000D02*
X180792000Y-47070000D01*
D24*
X180399000Y-69876000D02*
X183040000Y-72517000D01*
X180399000Y-46677000D02*
X180399000Y-69876000D01*
D26*
X180399000Y-46677000D02*
X173736000Y-40014000D01*
X180792000Y-47070000D02*
X180399000Y-46677000D01*
D24*
%TO.N,Net-(M1-Pad3)*%
X187915000Y-81004000D02*
X186159000Y-79248000D01*
X191516000Y-81004000D02*
X187915000Y-81004000D01*
X186093000Y-79182000D02*
X186159000Y-79248000D01*
X186093000Y-76327000D02*
X186093000Y-79182000D01*
%TO.N,Net-(M1-Pad2)*%
X191019000Y-75057000D02*
X191516000Y-75554000D01*
X183040000Y-75057000D02*
X191019000Y-75057000D01*
%TO.N,Net-(RVS1-Pad2)*%
X174853500Y-73787000D02*
X177640000Y-73787000D01*
X174244000Y-74396500D02*
X174853500Y-73787000D01*
X173253500Y-73406000D02*
X174244000Y-74396500D01*
X172951000Y-73406000D02*
X173253500Y-73406000D01*
%TO.N,Net-(D3-Pad2)*%
X170679990Y-74707010D02*
X171969500Y-73417500D01*
X170679990Y-80255990D02*
X170679990Y-74707010D01*
X178816000Y-88392000D02*
X170679990Y-80255990D01*
X171969500Y-73417500D02*
X171981000Y-73406000D01*
X178816000Y-92456000D02*
X178816000Y-88392000D01*
D26*
%TO.N,GND2*%
X217424000Y-73406000D02*
X227965000Y-62865000D01*
X227965000Y-54165000D02*
X227775000Y-53975000D01*
X227965000Y-62865000D02*
X227965000Y-54165000D01*
X215870000Y-42070000D02*
X227775000Y-53975000D01*
X211770000Y-42070000D02*
X215870000Y-42070000D01*
%TO.N,Net-(D5-Pad1)*%
X228332000Y-37070000D02*
X228346000Y-37084000D01*
X211770000Y-37070000D02*
X228332000Y-37070000D01*
%TD*%
D27*
%TO.N,GND2*%
G36*
X210613962Y-40262786D02*
G01*
X210457952Y-40578347D01*
X211770000Y-41890395D01*
X213082048Y-40578347D01*
X212926038Y-40262786D01*
X212918602Y-40259000D01*
X227484062Y-40259000D01*
X235077000Y-71643145D01*
X235077000Y-84471422D01*
X234098922Y-85449500D01*
X231420535Y-85449500D01*
X231364275Y-85403329D01*
X231216142Y-85324150D01*
X231055408Y-85275392D01*
X230888250Y-85258928D01*
X230375750Y-85258928D01*
X230208592Y-85275392D01*
X230047858Y-85324150D01*
X229899725Y-85403329D01*
X229769885Y-85509885D01*
X229663329Y-85639725D01*
X229584150Y-85787858D01*
X229535392Y-85948592D01*
X229518928Y-86115750D01*
X229518928Y-86553250D01*
X229535392Y-86720408D01*
X229584150Y-86881142D01*
X229660777Y-87024500D01*
X228434679Y-87024500D01*
X228316275Y-86927329D01*
X228168142Y-86848150D01*
X228007408Y-86799392D01*
X227840250Y-86782928D01*
X227327750Y-86782928D01*
X227160592Y-86799392D01*
X226999858Y-86848150D01*
X226851725Y-86927329D01*
X226721885Y-87033885D01*
X226615329Y-87163725D01*
X226592198Y-87207000D01*
X224986072Y-87207000D01*
X224986072Y-86974500D01*
X224970977Y-86821243D01*
X224926274Y-86673875D01*
X224853679Y-86538060D01*
X224755983Y-86419017D01*
X224636940Y-86321321D01*
X224501125Y-86248726D01*
X224353757Y-86204023D01*
X224200500Y-86188928D01*
X223855500Y-86188928D01*
X223702243Y-86204023D01*
X223554875Y-86248726D01*
X223419060Y-86321321D01*
X223300017Y-86419017D01*
X223202321Y-86538060D01*
X223129726Y-86673875D01*
X223085023Y-86821243D01*
X223069928Y-86974500D01*
X223069928Y-87253000D01*
X219970018Y-87253000D01*
X219895185Y-87161815D01*
X219798494Y-87082463D01*
X219688180Y-87023498D01*
X219568482Y-86987188D01*
X219444000Y-86974928D01*
X217944000Y-86974928D01*
X217819518Y-86987188D01*
X217699820Y-87023498D01*
X217589506Y-87082463D01*
X217492815Y-87161815D01*
X217413463Y-87258506D01*
X217354498Y-87368820D01*
X217318188Y-87488518D01*
X217305928Y-87613000D01*
X217305928Y-88663000D01*
X217318188Y-88787482D01*
X217354498Y-88907180D01*
X217389176Y-88972057D01*
X217358728Y-89040663D01*
X217350036Y-89102190D01*
X217475837Y-89281000D01*
X217793765Y-89281000D01*
X217819518Y-89288812D01*
X217944000Y-89301072D01*
X219444000Y-89301072D01*
X219568482Y-89288812D01*
X219594235Y-89281000D01*
X219912163Y-89281000D01*
X220037964Y-89102190D01*
X220029272Y-89040663D01*
X220021433Y-89023000D01*
X223085682Y-89023000D01*
X223082188Y-89034518D01*
X223069928Y-89159000D01*
X223073000Y-89168250D01*
X223231750Y-89327000D01*
X223901000Y-89327000D01*
X223901000Y-89307000D01*
X224155000Y-89307000D01*
X224155000Y-89327000D01*
X224824250Y-89327000D01*
X224983000Y-89168250D01*
X224986072Y-89159000D01*
X224973812Y-89034518D01*
X224956364Y-88977000D01*
X226472799Y-88977000D01*
X226470928Y-88996000D01*
X226474000Y-89147750D01*
X226632750Y-89306500D01*
X227457000Y-89306500D01*
X227457000Y-89286500D01*
X227711000Y-89286500D01*
X227711000Y-89306500D01*
X228535250Y-89306500D01*
X228694000Y-89147750D01*
X228697072Y-88996000D01*
X228684812Y-88871518D01*
X228661449Y-88794500D01*
X229843465Y-88794500D01*
X229899725Y-88840671D01*
X230047858Y-88919850D01*
X230208592Y-88968608D01*
X230375750Y-88985072D01*
X230888250Y-88985072D01*
X231055408Y-88968608D01*
X231216142Y-88919850D01*
X231364275Y-88840671D01*
X231494115Y-88734115D01*
X231600671Y-88604275D01*
X231679850Y-88456142D01*
X231728608Y-88295408D01*
X231745072Y-88128250D01*
X231745072Y-87690750D01*
X231728608Y-87523592D01*
X231679850Y-87362858D01*
X231603223Y-87219500D01*
X234422031Y-87219500D01*
X234465500Y-87223781D01*
X234508969Y-87219500D01*
X234508977Y-87219500D01*
X234638990Y-87206695D01*
X234805813Y-87156089D01*
X234959559Y-87073911D01*
X235077000Y-86977529D01*
X235077000Y-97409423D01*
X201887346Y-97520078D01*
X201931680Y-97453727D01*
X202039853Y-97192574D01*
X202095000Y-96915335D01*
X202095000Y-96632665D01*
X202039853Y-96355426D01*
X201931680Y-96094273D01*
X201774637Y-95859241D01*
X201576039Y-95660643D01*
X201584482Y-95659812D01*
X201704180Y-95623502D01*
X201814494Y-95564537D01*
X201911185Y-95485185D01*
X201990537Y-95388494D01*
X202049502Y-95278180D01*
X202085812Y-95158482D01*
X202098072Y-95034000D01*
X202098072Y-93434000D01*
X202085812Y-93309518D01*
X202049502Y-93189820D01*
X201990537Y-93079506D01*
X201911185Y-92982815D01*
X201814494Y-92903463D01*
X201704180Y-92844498D01*
X201584482Y-92808188D01*
X201460000Y-92795928D01*
X199860000Y-92795928D01*
X199735518Y-92808188D01*
X199615820Y-92844498D01*
X199505506Y-92903463D01*
X199408815Y-92982815D01*
X199329463Y-93079506D01*
X199270498Y-93189820D01*
X199234188Y-93309518D01*
X199221928Y-93434000D01*
X199221928Y-95034000D01*
X199234188Y-95158482D01*
X199270498Y-95278180D01*
X199329463Y-95388494D01*
X199408815Y-95485185D01*
X199505506Y-95564537D01*
X199615820Y-95623502D01*
X199735518Y-95659812D01*
X199743961Y-95660643D01*
X199545363Y-95859241D01*
X199388320Y-96094273D01*
X199280147Y-96355426D01*
X199225000Y-96632665D01*
X199225000Y-96915335D01*
X199280147Y-97192574D01*
X199388320Y-97453727D01*
X199438110Y-97528244D01*
X197836707Y-97533583D01*
X197906537Y-97448494D01*
X197965502Y-97338180D01*
X198001812Y-97218482D01*
X198014072Y-97094000D01*
X198011000Y-97059750D01*
X197852250Y-96901000D01*
X197235687Y-96901000D01*
X197234646Y-96647000D01*
X197852250Y-96647000D01*
X198011000Y-96488250D01*
X198014072Y-96454000D01*
X198001812Y-96329518D01*
X197965502Y-96209820D01*
X197906537Y-96099506D01*
X197827185Y-96002815D01*
X197730494Y-95923463D01*
X197620180Y-95864498D01*
X197500482Y-95828188D01*
X197376000Y-95815928D01*
X197366750Y-95819000D01*
X197231805Y-95953945D01*
X197231058Y-95771823D01*
X197969800Y-92481061D01*
X213722000Y-92481061D01*
X213722000Y-92684939D01*
X213754187Y-92846757D01*
X213757805Y-92883490D01*
X213808412Y-93050313D01*
X213890590Y-93204059D01*
X214001183Y-93338817D01*
X214135941Y-93449410D01*
X214289687Y-93531588D01*
X214456510Y-93582195D01*
X214493243Y-93585813D01*
X214655061Y-93618000D01*
X214858939Y-93618000D01*
X215058898Y-93578226D01*
X215247256Y-93500205D01*
X215416774Y-93386937D01*
X215560937Y-93242774D01*
X215674205Y-93073256D01*
X215752226Y-92884898D01*
X215763535Y-92828043D01*
X217028579Y-91563000D01*
X217718858Y-91563000D01*
X217821421Y-91647171D01*
X218022940Y-91754885D01*
X218241600Y-91821215D01*
X218412021Y-91838000D01*
X218975979Y-91838000D01*
X219146400Y-91821215D01*
X219365060Y-91754885D01*
X219566579Y-91647171D01*
X219743212Y-91502212D01*
X219888171Y-91325579D01*
X219897033Y-91309000D01*
X223593531Y-91309000D01*
X223702243Y-91341977D01*
X223855500Y-91357072D01*
X224200500Y-91357072D01*
X224353757Y-91341977D01*
X224501125Y-91297274D01*
X224636940Y-91224679D01*
X224755983Y-91126983D01*
X224853679Y-91007940D01*
X224926274Y-90872125D01*
X224970977Y-90724757D01*
X224986072Y-90571500D01*
X224986072Y-90276500D01*
X224970977Y-90123243D01*
X224933688Y-90000316D01*
X224937502Y-89993180D01*
X224973812Y-89873482D01*
X224974056Y-89871000D01*
X226470928Y-89871000D01*
X226483188Y-89995482D01*
X226519498Y-90115180D01*
X226578463Y-90225494D01*
X226657815Y-90322185D01*
X226754506Y-90401537D01*
X226864820Y-90460502D01*
X226984518Y-90496812D01*
X227109000Y-90509072D01*
X227298250Y-90506000D01*
X227457000Y-90347250D01*
X227457000Y-89560500D01*
X227711000Y-89560500D01*
X227711000Y-90347250D01*
X227869750Y-90506000D01*
X228059000Y-90509072D01*
X228183482Y-90496812D01*
X228303180Y-90460502D01*
X228413494Y-90401537D01*
X228510185Y-90322185D01*
X228589537Y-90225494D01*
X228648502Y-90115180D01*
X228684812Y-89995482D01*
X228697072Y-89871000D01*
X228694000Y-89719250D01*
X228535250Y-89560500D01*
X227711000Y-89560500D01*
X227457000Y-89560500D01*
X226632750Y-89560500D01*
X226474000Y-89719250D01*
X226470928Y-89871000D01*
X224974056Y-89871000D01*
X224986072Y-89749000D01*
X224983000Y-89739750D01*
X224824250Y-89581000D01*
X224557763Y-89581000D01*
X224501125Y-89550726D01*
X224353757Y-89506023D01*
X224200500Y-89490928D01*
X223855500Y-89490928D01*
X223702243Y-89506023D01*
X223593531Y-89539000D01*
X219914977Y-89539000D01*
X219912163Y-89535000D01*
X219147109Y-89535000D01*
X219146400Y-89534785D01*
X218975979Y-89518000D01*
X218412021Y-89518000D01*
X218241600Y-89534785D01*
X218240891Y-89535000D01*
X217475837Y-89535000D01*
X217350036Y-89713810D01*
X217358728Y-89775337D01*
X217366567Y-89793000D01*
X216705469Y-89793000D01*
X216662000Y-89788719D01*
X216618531Y-89793000D01*
X216618523Y-89793000D01*
X216488510Y-89805805D01*
X216321687Y-89856411D01*
X216184119Y-89929942D01*
X216167941Y-89938589D01*
X216066953Y-90021468D01*
X216066951Y-90021470D01*
X216033183Y-90049183D01*
X216005470Y-90082951D01*
X214511957Y-91576465D01*
X214455102Y-91587774D01*
X214266744Y-91665795D01*
X214097226Y-91779063D01*
X213953063Y-91923226D01*
X213839795Y-92092744D01*
X213761774Y-92281102D01*
X213722000Y-92481061D01*
X197969800Y-92481061D01*
X200021916Y-83339818D01*
X200024019Y-83327752D01*
X200759588Y-77443196D01*
X213566409Y-77443196D01*
X214152124Y-78125416D01*
X215135704Y-78673045D01*
X216207223Y-79018265D01*
X217325501Y-79147808D01*
X218447565Y-79056697D01*
X219530294Y-78748433D01*
X220532079Y-78234863D01*
X220695876Y-78125416D01*
X221281591Y-77443196D01*
X217424000Y-73585605D01*
X213566409Y-77443196D01*
X200759588Y-77443196D01*
X200786019Y-77231752D01*
X200786046Y-77231540D01*
X201269831Y-73307501D01*
X211682192Y-73307501D01*
X211773303Y-74429565D01*
X212081567Y-75512294D01*
X212595137Y-76514079D01*
X212704584Y-76677876D01*
X213386804Y-77263591D01*
X217244395Y-73406000D01*
X217603605Y-73406000D01*
X221461196Y-77263591D01*
X222143416Y-76677876D01*
X222691045Y-75694296D01*
X223036265Y-74622777D01*
X223165808Y-73504499D01*
X223074697Y-72382435D01*
X222766433Y-71299706D01*
X222252863Y-70297921D01*
X222143416Y-70134124D01*
X221461196Y-69548409D01*
X217603605Y-73406000D01*
X217244395Y-73406000D01*
X213386804Y-69548409D01*
X212704584Y-70134124D01*
X212156955Y-71117704D01*
X211811735Y-72189223D01*
X211682192Y-73307501D01*
X201269831Y-73307501D01*
X201755423Y-69368804D01*
X213566409Y-69368804D01*
X217424000Y-73226395D01*
X221281591Y-69368804D01*
X220695876Y-68686584D01*
X219712296Y-68138955D01*
X218640777Y-67793735D01*
X217522499Y-67664192D01*
X216400435Y-67755303D01*
X215317706Y-68063567D01*
X214315921Y-68577137D01*
X214152124Y-68686584D01*
X213566409Y-69368804D01*
X201755423Y-69368804D01*
X203499179Y-55225000D01*
X225136928Y-55225000D01*
X225149188Y-55349482D01*
X225185498Y-55469180D01*
X225244463Y-55579494D01*
X225323815Y-55676185D01*
X225420506Y-55755537D01*
X225530820Y-55814502D01*
X225650518Y-55850812D01*
X225775000Y-55863072D01*
X227489250Y-55860000D01*
X227648000Y-55701250D01*
X227648000Y-54102000D01*
X227902000Y-54102000D01*
X227902000Y-55701250D01*
X228060750Y-55860000D01*
X229775000Y-55863072D01*
X229899482Y-55850812D01*
X230019180Y-55814502D01*
X230129494Y-55755537D01*
X230226185Y-55676185D01*
X230305537Y-55579494D01*
X230364502Y-55469180D01*
X230400812Y-55349482D01*
X230413072Y-55225000D01*
X230410000Y-54260750D01*
X230251250Y-54102000D01*
X227902000Y-54102000D01*
X227648000Y-54102000D01*
X225298750Y-54102000D01*
X225140000Y-54260750D01*
X225136928Y-55225000D01*
X203499179Y-55225000D01*
X203914077Y-51859721D01*
X209635000Y-51859721D01*
X209635000Y-52280279D01*
X209717047Y-52692756D01*
X209877988Y-53081302D01*
X210111637Y-53430983D01*
X210409017Y-53728363D01*
X210758698Y-53962012D01*
X211147244Y-54122953D01*
X211559721Y-54205000D01*
X211980279Y-54205000D01*
X212392756Y-54122953D01*
X212781302Y-53962012D01*
X213130983Y-53728363D01*
X213428363Y-53430983D01*
X213662012Y-53081302D01*
X213809597Y-52725000D01*
X225136928Y-52725000D01*
X225140000Y-53689250D01*
X225298750Y-53848000D01*
X227648000Y-53848000D01*
X227648000Y-52248750D01*
X227902000Y-52248750D01*
X227902000Y-53848000D01*
X230251250Y-53848000D01*
X230410000Y-53689250D01*
X230413072Y-52725000D01*
X230400812Y-52600518D01*
X230364502Y-52480820D01*
X230305537Y-52370506D01*
X230226185Y-52273815D01*
X230129494Y-52194463D01*
X230019180Y-52135498D01*
X229899482Y-52099188D01*
X229775000Y-52086928D01*
X228060750Y-52090000D01*
X227902000Y-52248750D01*
X227648000Y-52248750D01*
X227489250Y-52090000D01*
X225775000Y-52086928D01*
X225650518Y-52099188D01*
X225530820Y-52135498D01*
X225420506Y-52194463D01*
X225323815Y-52273815D01*
X225244463Y-52370506D01*
X225185498Y-52480820D01*
X225149188Y-52600518D01*
X225136928Y-52725000D01*
X213809597Y-52725000D01*
X213822953Y-52692756D01*
X213905000Y-52280279D01*
X213905000Y-51859721D01*
X213822953Y-51447244D01*
X213662012Y-51058698D01*
X213428363Y-50709017D01*
X213130983Y-50411637D01*
X212781302Y-50177988D01*
X212392756Y-50017047D01*
X211980279Y-49935000D01*
X211559721Y-49935000D01*
X211147244Y-50017047D01*
X210758698Y-50177988D01*
X210409017Y-50411637D01*
X210111637Y-50709017D01*
X209877988Y-51058698D01*
X209717047Y-51447244D01*
X209635000Y-51859721D01*
X203914077Y-51859721D01*
X204530515Y-46859721D01*
X209635000Y-46859721D01*
X209635000Y-47280279D01*
X209717047Y-47692756D01*
X209877988Y-48081302D01*
X210111637Y-48430983D01*
X210409017Y-48728363D01*
X210758698Y-48962012D01*
X211147244Y-49122953D01*
X211559721Y-49205000D01*
X211980279Y-49205000D01*
X212392756Y-49122953D01*
X212781302Y-48962012D01*
X213130983Y-48728363D01*
X213428363Y-48430983D01*
X213662012Y-48081302D01*
X213822953Y-47692756D01*
X213905000Y-47280279D01*
X213905000Y-46859721D01*
X213822953Y-46447244D01*
X213662012Y-46058698D01*
X213428363Y-45709017D01*
X213130983Y-45411637D01*
X212781302Y-45177988D01*
X212392756Y-45017047D01*
X211980279Y-44935000D01*
X211559721Y-44935000D01*
X211147244Y-45017047D01*
X210758698Y-45177988D01*
X210409017Y-45411637D01*
X210111637Y-45709017D01*
X209877988Y-46058698D01*
X209717047Y-46447244D01*
X209635000Y-46859721D01*
X204530515Y-46859721D01*
X204937126Y-43561653D01*
X210457952Y-43561653D01*
X210613962Y-43877214D01*
X210988745Y-44068020D01*
X211393551Y-44182044D01*
X211812824Y-44214902D01*
X212230451Y-44165334D01*
X212630383Y-44035243D01*
X212926038Y-43877214D01*
X213082048Y-43561653D01*
X211770000Y-42249605D01*
X210457952Y-43561653D01*
X204937126Y-43561653D01*
X205115750Y-42112824D01*
X209625098Y-42112824D01*
X209674666Y-42530451D01*
X209804757Y-42930383D01*
X209962786Y-43226038D01*
X210278347Y-43382048D01*
X211590395Y-42070000D01*
X211949605Y-42070000D01*
X213261653Y-43382048D01*
X213577214Y-43226038D01*
X213768020Y-42851255D01*
X213882044Y-42446449D01*
X213914902Y-42027176D01*
X213865334Y-41609549D01*
X213735243Y-41209617D01*
X213577214Y-40913962D01*
X213261653Y-40757952D01*
X211949605Y-42070000D01*
X211590395Y-42070000D01*
X210278347Y-40757952D01*
X209962786Y-40913962D01*
X209771980Y-41288745D01*
X209657956Y-41693551D01*
X209625098Y-42112824D01*
X205115750Y-42112824D01*
X205344304Y-40259000D01*
X210621045Y-40259000D01*
X210613962Y-40262786D01*
G37*
X210613962Y-40262786D02*
X210457952Y-40578347D01*
X211770000Y-41890395D01*
X213082048Y-40578347D01*
X212926038Y-40262786D01*
X212918602Y-40259000D01*
X227484062Y-40259000D01*
X235077000Y-71643145D01*
X235077000Y-84471422D01*
X234098922Y-85449500D01*
X231420535Y-85449500D01*
X231364275Y-85403329D01*
X231216142Y-85324150D01*
X231055408Y-85275392D01*
X230888250Y-85258928D01*
X230375750Y-85258928D01*
X230208592Y-85275392D01*
X230047858Y-85324150D01*
X229899725Y-85403329D01*
X229769885Y-85509885D01*
X229663329Y-85639725D01*
X229584150Y-85787858D01*
X229535392Y-85948592D01*
X229518928Y-86115750D01*
X229518928Y-86553250D01*
X229535392Y-86720408D01*
X229584150Y-86881142D01*
X229660777Y-87024500D01*
X228434679Y-87024500D01*
X228316275Y-86927329D01*
X228168142Y-86848150D01*
X228007408Y-86799392D01*
X227840250Y-86782928D01*
X227327750Y-86782928D01*
X227160592Y-86799392D01*
X226999858Y-86848150D01*
X226851725Y-86927329D01*
X226721885Y-87033885D01*
X226615329Y-87163725D01*
X226592198Y-87207000D01*
X224986072Y-87207000D01*
X224986072Y-86974500D01*
X224970977Y-86821243D01*
X224926274Y-86673875D01*
X224853679Y-86538060D01*
X224755983Y-86419017D01*
X224636940Y-86321321D01*
X224501125Y-86248726D01*
X224353757Y-86204023D01*
X224200500Y-86188928D01*
X223855500Y-86188928D01*
X223702243Y-86204023D01*
X223554875Y-86248726D01*
X223419060Y-86321321D01*
X223300017Y-86419017D01*
X223202321Y-86538060D01*
X223129726Y-86673875D01*
X223085023Y-86821243D01*
X223069928Y-86974500D01*
X223069928Y-87253000D01*
X219970018Y-87253000D01*
X219895185Y-87161815D01*
X219798494Y-87082463D01*
X219688180Y-87023498D01*
X219568482Y-86987188D01*
X219444000Y-86974928D01*
X217944000Y-86974928D01*
X217819518Y-86987188D01*
X217699820Y-87023498D01*
X217589506Y-87082463D01*
X217492815Y-87161815D01*
X217413463Y-87258506D01*
X217354498Y-87368820D01*
X217318188Y-87488518D01*
X217305928Y-87613000D01*
X217305928Y-88663000D01*
X217318188Y-88787482D01*
X217354498Y-88907180D01*
X217389176Y-88972057D01*
X217358728Y-89040663D01*
X217350036Y-89102190D01*
X217475837Y-89281000D01*
X217793765Y-89281000D01*
X217819518Y-89288812D01*
X217944000Y-89301072D01*
X219444000Y-89301072D01*
X219568482Y-89288812D01*
X219594235Y-89281000D01*
X219912163Y-89281000D01*
X220037964Y-89102190D01*
X220029272Y-89040663D01*
X220021433Y-89023000D01*
X223085682Y-89023000D01*
X223082188Y-89034518D01*
X223069928Y-89159000D01*
X223073000Y-89168250D01*
X223231750Y-89327000D01*
X223901000Y-89327000D01*
X223901000Y-89307000D01*
X224155000Y-89307000D01*
X224155000Y-89327000D01*
X224824250Y-89327000D01*
X224983000Y-89168250D01*
X224986072Y-89159000D01*
X224973812Y-89034518D01*
X224956364Y-88977000D01*
X226472799Y-88977000D01*
X226470928Y-88996000D01*
X226474000Y-89147750D01*
X226632750Y-89306500D01*
X227457000Y-89306500D01*
X227457000Y-89286500D01*
X227711000Y-89286500D01*
X227711000Y-89306500D01*
X228535250Y-89306500D01*
X228694000Y-89147750D01*
X228697072Y-88996000D01*
X228684812Y-88871518D01*
X228661449Y-88794500D01*
X229843465Y-88794500D01*
X229899725Y-88840671D01*
X230047858Y-88919850D01*
X230208592Y-88968608D01*
X230375750Y-88985072D01*
X230888250Y-88985072D01*
X231055408Y-88968608D01*
X231216142Y-88919850D01*
X231364275Y-88840671D01*
X231494115Y-88734115D01*
X231600671Y-88604275D01*
X231679850Y-88456142D01*
X231728608Y-88295408D01*
X231745072Y-88128250D01*
X231745072Y-87690750D01*
X231728608Y-87523592D01*
X231679850Y-87362858D01*
X231603223Y-87219500D01*
X234422031Y-87219500D01*
X234465500Y-87223781D01*
X234508969Y-87219500D01*
X234508977Y-87219500D01*
X234638990Y-87206695D01*
X234805813Y-87156089D01*
X234959559Y-87073911D01*
X235077000Y-86977529D01*
X235077000Y-97409423D01*
X201887346Y-97520078D01*
X201931680Y-97453727D01*
X202039853Y-97192574D01*
X202095000Y-96915335D01*
X202095000Y-96632665D01*
X202039853Y-96355426D01*
X201931680Y-96094273D01*
X201774637Y-95859241D01*
X201576039Y-95660643D01*
X201584482Y-95659812D01*
X201704180Y-95623502D01*
X201814494Y-95564537D01*
X201911185Y-95485185D01*
X201990537Y-95388494D01*
X202049502Y-95278180D01*
X202085812Y-95158482D01*
X202098072Y-95034000D01*
X202098072Y-93434000D01*
X202085812Y-93309518D01*
X202049502Y-93189820D01*
X201990537Y-93079506D01*
X201911185Y-92982815D01*
X201814494Y-92903463D01*
X201704180Y-92844498D01*
X201584482Y-92808188D01*
X201460000Y-92795928D01*
X199860000Y-92795928D01*
X199735518Y-92808188D01*
X199615820Y-92844498D01*
X199505506Y-92903463D01*
X199408815Y-92982815D01*
X199329463Y-93079506D01*
X199270498Y-93189820D01*
X199234188Y-93309518D01*
X199221928Y-93434000D01*
X199221928Y-95034000D01*
X199234188Y-95158482D01*
X199270498Y-95278180D01*
X199329463Y-95388494D01*
X199408815Y-95485185D01*
X199505506Y-95564537D01*
X199615820Y-95623502D01*
X199735518Y-95659812D01*
X199743961Y-95660643D01*
X199545363Y-95859241D01*
X199388320Y-96094273D01*
X199280147Y-96355426D01*
X199225000Y-96632665D01*
X199225000Y-96915335D01*
X199280147Y-97192574D01*
X199388320Y-97453727D01*
X199438110Y-97528244D01*
X197836707Y-97533583D01*
X197906537Y-97448494D01*
X197965502Y-97338180D01*
X198001812Y-97218482D01*
X198014072Y-97094000D01*
X198011000Y-97059750D01*
X197852250Y-96901000D01*
X197235687Y-96901000D01*
X197234646Y-96647000D01*
X197852250Y-96647000D01*
X198011000Y-96488250D01*
X198014072Y-96454000D01*
X198001812Y-96329518D01*
X197965502Y-96209820D01*
X197906537Y-96099506D01*
X197827185Y-96002815D01*
X197730494Y-95923463D01*
X197620180Y-95864498D01*
X197500482Y-95828188D01*
X197376000Y-95815928D01*
X197366750Y-95819000D01*
X197231805Y-95953945D01*
X197231058Y-95771823D01*
X197969800Y-92481061D01*
X213722000Y-92481061D01*
X213722000Y-92684939D01*
X213754187Y-92846757D01*
X213757805Y-92883490D01*
X213808412Y-93050313D01*
X213890590Y-93204059D01*
X214001183Y-93338817D01*
X214135941Y-93449410D01*
X214289687Y-93531588D01*
X214456510Y-93582195D01*
X214493243Y-93585813D01*
X214655061Y-93618000D01*
X214858939Y-93618000D01*
X215058898Y-93578226D01*
X215247256Y-93500205D01*
X215416774Y-93386937D01*
X215560937Y-93242774D01*
X215674205Y-93073256D01*
X215752226Y-92884898D01*
X215763535Y-92828043D01*
X217028579Y-91563000D01*
X217718858Y-91563000D01*
X217821421Y-91647171D01*
X218022940Y-91754885D01*
X218241600Y-91821215D01*
X218412021Y-91838000D01*
X218975979Y-91838000D01*
X219146400Y-91821215D01*
X219365060Y-91754885D01*
X219566579Y-91647171D01*
X219743212Y-91502212D01*
X219888171Y-91325579D01*
X219897033Y-91309000D01*
X223593531Y-91309000D01*
X223702243Y-91341977D01*
X223855500Y-91357072D01*
X224200500Y-91357072D01*
X224353757Y-91341977D01*
X224501125Y-91297274D01*
X224636940Y-91224679D01*
X224755983Y-91126983D01*
X224853679Y-91007940D01*
X224926274Y-90872125D01*
X224970977Y-90724757D01*
X224986072Y-90571500D01*
X224986072Y-90276500D01*
X224970977Y-90123243D01*
X224933688Y-90000316D01*
X224937502Y-89993180D01*
X224973812Y-89873482D01*
X224974056Y-89871000D01*
X226470928Y-89871000D01*
X226483188Y-89995482D01*
X226519498Y-90115180D01*
X226578463Y-90225494D01*
X226657815Y-90322185D01*
X226754506Y-90401537D01*
X226864820Y-90460502D01*
X226984518Y-90496812D01*
X227109000Y-90509072D01*
X227298250Y-90506000D01*
X227457000Y-90347250D01*
X227457000Y-89560500D01*
X227711000Y-89560500D01*
X227711000Y-90347250D01*
X227869750Y-90506000D01*
X228059000Y-90509072D01*
X228183482Y-90496812D01*
X228303180Y-90460502D01*
X228413494Y-90401537D01*
X228510185Y-90322185D01*
X228589537Y-90225494D01*
X228648502Y-90115180D01*
X228684812Y-89995482D01*
X228697072Y-89871000D01*
X228694000Y-89719250D01*
X228535250Y-89560500D01*
X227711000Y-89560500D01*
X227457000Y-89560500D01*
X226632750Y-89560500D01*
X226474000Y-89719250D01*
X226470928Y-89871000D01*
X224974056Y-89871000D01*
X224986072Y-89749000D01*
X224983000Y-89739750D01*
X224824250Y-89581000D01*
X224557763Y-89581000D01*
X224501125Y-89550726D01*
X224353757Y-89506023D01*
X224200500Y-89490928D01*
X223855500Y-89490928D01*
X223702243Y-89506023D01*
X223593531Y-89539000D01*
X219914977Y-89539000D01*
X219912163Y-89535000D01*
X219147109Y-89535000D01*
X219146400Y-89534785D01*
X218975979Y-89518000D01*
X218412021Y-89518000D01*
X218241600Y-89534785D01*
X218240891Y-89535000D01*
X217475837Y-89535000D01*
X217350036Y-89713810D01*
X217358728Y-89775337D01*
X217366567Y-89793000D01*
X216705469Y-89793000D01*
X216662000Y-89788719D01*
X216618531Y-89793000D01*
X216618523Y-89793000D01*
X216488510Y-89805805D01*
X216321687Y-89856411D01*
X216184119Y-89929942D01*
X216167941Y-89938589D01*
X216066953Y-90021468D01*
X216066951Y-90021470D01*
X216033183Y-90049183D01*
X216005470Y-90082951D01*
X214511957Y-91576465D01*
X214455102Y-91587774D01*
X214266744Y-91665795D01*
X214097226Y-91779063D01*
X213953063Y-91923226D01*
X213839795Y-92092744D01*
X213761774Y-92281102D01*
X213722000Y-92481061D01*
X197969800Y-92481061D01*
X200021916Y-83339818D01*
X200024019Y-83327752D01*
X200759588Y-77443196D01*
X213566409Y-77443196D01*
X214152124Y-78125416D01*
X215135704Y-78673045D01*
X216207223Y-79018265D01*
X217325501Y-79147808D01*
X218447565Y-79056697D01*
X219530294Y-78748433D01*
X220532079Y-78234863D01*
X220695876Y-78125416D01*
X221281591Y-77443196D01*
X217424000Y-73585605D01*
X213566409Y-77443196D01*
X200759588Y-77443196D01*
X200786019Y-77231752D01*
X200786046Y-77231540D01*
X201269831Y-73307501D01*
X211682192Y-73307501D01*
X211773303Y-74429565D01*
X212081567Y-75512294D01*
X212595137Y-76514079D01*
X212704584Y-76677876D01*
X213386804Y-77263591D01*
X217244395Y-73406000D01*
X217603605Y-73406000D01*
X221461196Y-77263591D01*
X222143416Y-76677876D01*
X222691045Y-75694296D01*
X223036265Y-74622777D01*
X223165808Y-73504499D01*
X223074697Y-72382435D01*
X222766433Y-71299706D01*
X222252863Y-70297921D01*
X222143416Y-70134124D01*
X221461196Y-69548409D01*
X217603605Y-73406000D01*
X217244395Y-73406000D01*
X213386804Y-69548409D01*
X212704584Y-70134124D01*
X212156955Y-71117704D01*
X211811735Y-72189223D01*
X211682192Y-73307501D01*
X201269831Y-73307501D01*
X201755423Y-69368804D01*
X213566409Y-69368804D01*
X217424000Y-73226395D01*
X221281591Y-69368804D01*
X220695876Y-68686584D01*
X219712296Y-68138955D01*
X218640777Y-67793735D01*
X217522499Y-67664192D01*
X216400435Y-67755303D01*
X215317706Y-68063567D01*
X214315921Y-68577137D01*
X214152124Y-68686584D01*
X213566409Y-69368804D01*
X201755423Y-69368804D01*
X203499179Y-55225000D01*
X225136928Y-55225000D01*
X225149188Y-55349482D01*
X225185498Y-55469180D01*
X225244463Y-55579494D01*
X225323815Y-55676185D01*
X225420506Y-55755537D01*
X225530820Y-55814502D01*
X225650518Y-55850812D01*
X225775000Y-55863072D01*
X227489250Y-55860000D01*
X227648000Y-55701250D01*
X227648000Y-54102000D01*
X227902000Y-54102000D01*
X227902000Y-55701250D01*
X228060750Y-55860000D01*
X229775000Y-55863072D01*
X229899482Y-55850812D01*
X230019180Y-55814502D01*
X230129494Y-55755537D01*
X230226185Y-55676185D01*
X230305537Y-55579494D01*
X230364502Y-55469180D01*
X230400812Y-55349482D01*
X230413072Y-55225000D01*
X230410000Y-54260750D01*
X230251250Y-54102000D01*
X227902000Y-54102000D01*
X227648000Y-54102000D01*
X225298750Y-54102000D01*
X225140000Y-54260750D01*
X225136928Y-55225000D01*
X203499179Y-55225000D01*
X203914077Y-51859721D01*
X209635000Y-51859721D01*
X209635000Y-52280279D01*
X209717047Y-52692756D01*
X209877988Y-53081302D01*
X210111637Y-53430983D01*
X210409017Y-53728363D01*
X210758698Y-53962012D01*
X211147244Y-54122953D01*
X211559721Y-54205000D01*
X211980279Y-54205000D01*
X212392756Y-54122953D01*
X212781302Y-53962012D01*
X213130983Y-53728363D01*
X213428363Y-53430983D01*
X213662012Y-53081302D01*
X213809597Y-52725000D01*
X225136928Y-52725000D01*
X225140000Y-53689250D01*
X225298750Y-53848000D01*
X227648000Y-53848000D01*
X227648000Y-52248750D01*
X227902000Y-52248750D01*
X227902000Y-53848000D01*
X230251250Y-53848000D01*
X230410000Y-53689250D01*
X230413072Y-52725000D01*
X230400812Y-52600518D01*
X230364502Y-52480820D01*
X230305537Y-52370506D01*
X230226185Y-52273815D01*
X230129494Y-52194463D01*
X230019180Y-52135498D01*
X229899482Y-52099188D01*
X229775000Y-52086928D01*
X228060750Y-52090000D01*
X227902000Y-52248750D01*
X227648000Y-52248750D01*
X227489250Y-52090000D01*
X225775000Y-52086928D01*
X225650518Y-52099188D01*
X225530820Y-52135498D01*
X225420506Y-52194463D01*
X225323815Y-52273815D01*
X225244463Y-52370506D01*
X225185498Y-52480820D01*
X225149188Y-52600518D01*
X225136928Y-52725000D01*
X213809597Y-52725000D01*
X213822953Y-52692756D01*
X213905000Y-52280279D01*
X213905000Y-51859721D01*
X213822953Y-51447244D01*
X213662012Y-51058698D01*
X213428363Y-50709017D01*
X213130983Y-50411637D01*
X212781302Y-50177988D01*
X212392756Y-50017047D01*
X211980279Y-49935000D01*
X211559721Y-49935000D01*
X211147244Y-50017047D01*
X210758698Y-50177988D01*
X210409017Y-50411637D01*
X210111637Y-50709017D01*
X209877988Y-51058698D01*
X209717047Y-51447244D01*
X209635000Y-51859721D01*
X203914077Y-51859721D01*
X204530515Y-46859721D01*
X209635000Y-46859721D01*
X209635000Y-47280279D01*
X209717047Y-47692756D01*
X209877988Y-48081302D01*
X210111637Y-48430983D01*
X210409017Y-48728363D01*
X210758698Y-48962012D01*
X211147244Y-49122953D01*
X211559721Y-49205000D01*
X211980279Y-49205000D01*
X212392756Y-49122953D01*
X212781302Y-48962012D01*
X213130983Y-48728363D01*
X213428363Y-48430983D01*
X213662012Y-48081302D01*
X213822953Y-47692756D01*
X213905000Y-47280279D01*
X213905000Y-46859721D01*
X213822953Y-46447244D01*
X213662012Y-46058698D01*
X213428363Y-45709017D01*
X213130983Y-45411637D01*
X212781302Y-45177988D01*
X212392756Y-45017047D01*
X211980279Y-44935000D01*
X211559721Y-44935000D01*
X211147244Y-45017047D01*
X210758698Y-45177988D01*
X210409017Y-45411637D01*
X210111637Y-45709017D01*
X209877988Y-46058698D01*
X209717047Y-46447244D01*
X209635000Y-46859721D01*
X204530515Y-46859721D01*
X204937126Y-43561653D01*
X210457952Y-43561653D01*
X210613962Y-43877214D01*
X210988745Y-44068020D01*
X211393551Y-44182044D01*
X211812824Y-44214902D01*
X212230451Y-44165334D01*
X212630383Y-44035243D01*
X212926038Y-43877214D01*
X213082048Y-43561653D01*
X211770000Y-42249605D01*
X210457952Y-43561653D01*
X204937126Y-43561653D01*
X205115750Y-42112824D01*
X209625098Y-42112824D01*
X209674666Y-42530451D01*
X209804757Y-42930383D01*
X209962786Y-43226038D01*
X210278347Y-43382048D01*
X211590395Y-42070000D01*
X211949605Y-42070000D01*
X213261653Y-43382048D01*
X213577214Y-43226038D01*
X213768020Y-42851255D01*
X213882044Y-42446449D01*
X213914902Y-42027176D01*
X213865334Y-41609549D01*
X213735243Y-41209617D01*
X213577214Y-40913962D01*
X213261653Y-40757952D01*
X211949605Y-42070000D01*
X211590395Y-42070000D01*
X210278347Y-40757952D01*
X209962786Y-40913962D01*
X209771980Y-41288745D01*
X209657956Y-41693551D01*
X209625098Y-42112824D01*
X205115750Y-42112824D01*
X205344304Y-40259000D01*
X210621045Y-40259000D01*
X210613962Y-40262786D01*
%TO.N,GND*%
G36*
X195932285Y-95926035D02*
G01*
X195825250Y-95819000D01*
X195816000Y-95815928D01*
X195691518Y-95828188D01*
X195571820Y-95864498D01*
X195461506Y-95923463D01*
X195364815Y-96002815D01*
X195285463Y-96099506D01*
X195226498Y-96209820D01*
X195190188Y-96329518D01*
X195177928Y-96454000D01*
X195181000Y-96488250D01*
X195339750Y-96647000D01*
X195938395Y-96647000D01*
X195940547Y-96901000D01*
X195339750Y-96901000D01*
X195181000Y-97059750D01*
X195177928Y-97094000D01*
X195190188Y-97218482D01*
X195226498Y-97338180D01*
X195285463Y-97448494D01*
X195364815Y-97545185D01*
X195461506Y-97624537D01*
X195571820Y-97683502D01*
X195691518Y-97719812D01*
X195816000Y-97732072D01*
X195825250Y-97729000D01*
X195946536Y-97607714D01*
X195959920Y-99187000D01*
X147193000Y-99187000D01*
X147193000Y-73887196D01*
X152860409Y-73887196D01*
X153446124Y-74569416D01*
X154429704Y-75117045D01*
X155501223Y-75462265D01*
X156619501Y-75591808D01*
X157741565Y-75500697D01*
X158824294Y-75192433D01*
X159771174Y-74707010D01*
X169790709Y-74707010D01*
X169794991Y-74750489D01*
X169794990Y-80212521D01*
X169790709Y-80255990D01*
X169794990Y-80299459D01*
X169794990Y-80299466D01*
X169807795Y-80429479D01*
X169858401Y-80596302D01*
X169940579Y-80750048D01*
X170051173Y-80884807D01*
X170084946Y-80912524D01*
X177931001Y-88758580D01*
X177931000Y-91917545D01*
X177898795Y-91965744D01*
X177820774Y-92154102D01*
X177781000Y-92354061D01*
X177781000Y-92557939D01*
X177820774Y-92757898D01*
X177898795Y-92946256D01*
X178012063Y-93115774D01*
X178156226Y-93259937D01*
X178325744Y-93373205D01*
X178514102Y-93451226D01*
X178714061Y-93491000D01*
X178917939Y-93491000D01*
X179117898Y-93451226D01*
X179306256Y-93373205D01*
X179475774Y-93259937D01*
X179619937Y-93115774D01*
X179733205Y-92946256D01*
X179811226Y-92757898D01*
X179851000Y-92557939D01*
X179851000Y-92354061D01*
X179811226Y-92154102D01*
X179733205Y-91965744D01*
X179701000Y-91917546D01*
X179701000Y-88435469D01*
X179705281Y-88392000D01*
X179701000Y-88348531D01*
X179701000Y-88348523D01*
X179688195Y-88218510D01*
X179637589Y-88051687D01*
X179637589Y-88051686D01*
X179555411Y-87897941D01*
X179472532Y-87796953D01*
X179472530Y-87796951D01*
X179444817Y-87763183D01*
X179411049Y-87735470D01*
X171564990Y-79889412D01*
X171564990Y-77341072D01*
X171622500Y-77341072D01*
X171775757Y-77325977D01*
X171884469Y-77293000D01*
X172445531Y-77293000D01*
X172489000Y-77297281D01*
X172532469Y-77293000D01*
X172532477Y-77293000D01*
X172579765Y-77288343D01*
X186846500Y-91555079D01*
X186846501Y-96261044D01*
X186814295Y-96309244D01*
X186736274Y-96497602D01*
X186696500Y-96697561D01*
X186696500Y-96901439D01*
X186736274Y-97101398D01*
X186814295Y-97289756D01*
X186927563Y-97459274D01*
X187071726Y-97603437D01*
X187241244Y-97716705D01*
X187429602Y-97794726D01*
X187629561Y-97834500D01*
X187833439Y-97834500D01*
X188033398Y-97794726D01*
X188221756Y-97716705D01*
X188391274Y-97603437D01*
X188535437Y-97459274D01*
X188648705Y-97289756D01*
X188726726Y-97101398D01*
X188766500Y-96901439D01*
X188766500Y-96697561D01*
X188726726Y-96497602D01*
X188648705Y-96309244D01*
X188616500Y-96261046D01*
X188616500Y-94092665D01*
X191605000Y-94092665D01*
X191605000Y-94375335D01*
X191660147Y-94652574D01*
X191768320Y-94913727D01*
X191925363Y-95148759D01*
X192125241Y-95348637D01*
X192357759Y-95504000D01*
X192125241Y-95659363D01*
X191925363Y-95859241D01*
X191768320Y-96094273D01*
X191660147Y-96355426D01*
X191605000Y-96632665D01*
X191605000Y-96915335D01*
X191660147Y-97192574D01*
X191768320Y-97453727D01*
X191925363Y-97688759D01*
X192125241Y-97888637D01*
X192360273Y-98045680D01*
X192621426Y-98153853D01*
X192898665Y-98209000D01*
X193181335Y-98209000D01*
X193458574Y-98153853D01*
X193719727Y-98045680D01*
X193954759Y-97888637D01*
X194154637Y-97688759D01*
X194311680Y-97453727D01*
X194419853Y-97192574D01*
X194475000Y-96915335D01*
X194475000Y-96632665D01*
X194419853Y-96355426D01*
X194311680Y-96094273D01*
X194154637Y-95859241D01*
X193954759Y-95659363D01*
X193722241Y-95504000D01*
X193954759Y-95348637D01*
X194154637Y-95148759D01*
X194311680Y-94913727D01*
X194419853Y-94652574D01*
X194475000Y-94375335D01*
X194475000Y-94092665D01*
X194419853Y-93815426D01*
X194311680Y-93554273D01*
X194154637Y-93319241D01*
X193954759Y-93119363D01*
X193719727Y-92962320D01*
X193458574Y-92854147D01*
X193181335Y-92799000D01*
X192898665Y-92799000D01*
X192621426Y-92854147D01*
X192360273Y-92962320D01*
X192125241Y-93119363D01*
X191925363Y-93319241D01*
X191768320Y-93554273D01*
X191660147Y-93815426D01*
X191605000Y-94092665D01*
X188616500Y-94092665D01*
X188616500Y-91231969D01*
X188620781Y-91188500D01*
X188616500Y-91145031D01*
X188616500Y-91145023D01*
X188603695Y-91015010D01*
X188553089Y-90848187D01*
X188470911Y-90694441D01*
X188360317Y-90559683D01*
X188326551Y-90531972D01*
X177362579Y-79568000D01*
X184255928Y-79568000D01*
X184268188Y-79692482D01*
X184304498Y-79812180D01*
X184363463Y-79922494D01*
X184442815Y-80019185D01*
X184539506Y-80098537D01*
X184649820Y-80157502D01*
X184769518Y-80193812D01*
X184894000Y-80206072D01*
X184903250Y-80203000D01*
X185062000Y-80044250D01*
X185062000Y-79375000D01*
X184417750Y-79375000D01*
X184259000Y-79533750D01*
X184255928Y-79568000D01*
X177362579Y-79568000D01*
X176600579Y-78806000D01*
X179937928Y-78806000D01*
X179950188Y-78930482D01*
X179986498Y-79050180D01*
X180045463Y-79160494D01*
X180124815Y-79257185D01*
X180221506Y-79336537D01*
X180331820Y-79395502D01*
X180451518Y-79431812D01*
X180576000Y-79444072D01*
X180585250Y-79441000D01*
X180744000Y-79282250D01*
X180744000Y-78613000D01*
X180099750Y-78613000D01*
X179941000Y-78771750D01*
X179937928Y-78806000D01*
X176600579Y-78806000D01*
X175960579Y-78166000D01*
X179937928Y-78166000D01*
X179941000Y-78200250D01*
X180099750Y-78359000D01*
X180744000Y-78359000D01*
X180744000Y-78313500D01*
X180907928Y-78313500D01*
X180907928Y-78658500D01*
X180923023Y-78811757D01*
X180967726Y-78959125D01*
X180998000Y-79015763D01*
X180998000Y-79282250D01*
X181156750Y-79441000D01*
X181166000Y-79444072D01*
X181290482Y-79431812D01*
X181410180Y-79395502D01*
X181417316Y-79391688D01*
X181540243Y-79428977D01*
X181693500Y-79444072D01*
X181988500Y-79444072D01*
X182141757Y-79428977D01*
X182289125Y-79384274D01*
X182424940Y-79311679D01*
X182543983Y-79213983D01*
X182641679Y-79094940D01*
X182714274Y-78959125D01*
X182723715Y-78928000D01*
X184255928Y-78928000D01*
X184259000Y-78962250D01*
X184417750Y-79121000D01*
X185062000Y-79121000D01*
X185062000Y-78451750D01*
X184903250Y-78293000D01*
X184894000Y-78289928D01*
X184769518Y-78302188D01*
X184649820Y-78338498D01*
X184539506Y-78397463D01*
X184442815Y-78476815D01*
X184363463Y-78573506D01*
X184304498Y-78683820D01*
X184268188Y-78803518D01*
X184255928Y-78928000D01*
X182723715Y-78928000D01*
X182758977Y-78811757D01*
X182774072Y-78658500D01*
X182774072Y-78313500D01*
X182758977Y-78160243D01*
X182726000Y-78051531D01*
X182726000Y-77892578D01*
X183353507Y-77265072D01*
X183815000Y-77265072D01*
X183939482Y-77252812D01*
X184059180Y-77216502D01*
X184067603Y-77212000D01*
X184650041Y-77212000D01*
X184674875Y-77225274D01*
X184822243Y-77269977D01*
X184975500Y-77285072D01*
X185208000Y-77285072D01*
X185208001Y-79138521D01*
X185203719Y-79182000D01*
X185220805Y-79355490D01*
X185225928Y-79372378D01*
X185225928Y-79420500D01*
X185241023Y-79573757D01*
X185285726Y-79721125D01*
X185316000Y-79777763D01*
X185316000Y-80044250D01*
X185474750Y-80203000D01*
X185484000Y-80206072D01*
X185608482Y-80193812D01*
X185728180Y-80157502D01*
X185735316Y-80153688D01*
X185846983Y-80187561D01*
X187258470Y-81599049D01*
X187286183Y-81632817D01*
X187319951Y-81660530D01*
X187319953Y-81660532D01*
X187391452Y-81719210D01*
X187420941Y-81743411D01*
X187574687Y-81825589D01*
X187741510Y-81876195D01*
X187871523Y-81889000D01*
X187871533Y-81889000D01*
X187914999Y-81893281D01*
X187958466Y-81889000D01*
X188851664Y-81889000D01*
X188941097Y-82056317D01*
X189176655Y-82343345D01*
X189463683Y-82578903D01*
X189791152Y-82753939D01*
X190146476Y-82861725D01*
X190423403Y-82889000D01*
X191237821Y-82889000D01*
X191171017Y-82933637D01*
X190873637Y-83231017D01*
X190639988Y-83580698D01*
X190479047Y-83969244D01*
X190397000Y-84381721D01*
X190397000Y-84802279D01*
X190479047Y-85214756D01*
X190639988Y-85603302D01*
X190873637Y-85952983D01*
X191171017Y-86250363D01*
X191520698Y-86484012D01*
X191909244Y-86644953D01*
X192321721Y-86727000D01*
X192742279Y-86727000D01*
X193154756Y-86644953D01*
X193543302Y-86484012D01*
X193892983Y-86250363D01*
X194190363Y-85952983D01*
X194424012Y-85603302D01*
X194584953Y-85214756D01*
X194667000Y-84802279D01*
X194667000Y-84381721D01*
X194584953Y-83969244D01*
X194424012Y-83580698D01*
X194190363Y-83231017D01*
X193892983Y-82933637D01*
X193543302Y-82699988D01*
X193429766Y-82652960D01*
X193568317Y-82578903D01*
X193855345Y-82343345D01*
X194090903Y-82056317D01*
X194265939Y-81728848D01*
X194373725Y-81373524D01*
X194410120Y-81004000D01*
X194373725Y-80634476D01*
X194265939Y-80279152D01*
X194090903Y-79951683D01*
X193855345Y-79664655D01*
X193568317Y-79429097D01*
X193240848Y-79254061D01*
X192885524Y-79146275D01*
X192608597Y-79119000D01*
X190423403Y-79119000D01*
X190146476Y-79146275D01*
X189791152Y-79254061D01*
X189463683Y-79429097D01*
X189176655Y-79664655D01*
X188941097Y-79951683D01*
X188851664Y-80119000D01*
X188281579Y-80119000D01*
X187073561Y-78910983D01*
X187032274Y-78774875D01*
X186978000Y-78673336D01*
X186978000Y-76761469D01*
X187010977Y-76652757D01*
X187026072Y-76499500D01*
X187026072Y-76154500D01*
X187010977Y-76001243D01*
X186993006Y-75942000D01*
X188663880Y-75942000D01*
X188766061Y-76278848D01*
X188941097Y-76606317D01*
X189176655Y-76893345D01*
X189463683Y-77128903D01*
X189791152Y-77303939D01*
X190146476Y-77411725D01*
X190423403Y-77439000D01*
X192608597Y-77439000D01*
X192885524Y-77411725D01*
X193240848Y-77303939D01*
X193568317Y-77128903D01*
X193855345Y-76893345D01*
X194090903Y-76606317D01*
X194265939Y-76278848D01*
X194373725Y-75923524D01*
X194410120Y-75554000D01*
X194373725Y-75184476D01*
X194265939Y-74829152D01*
X194090903Y-74501683D01*
X193855345Y-74214655D01*
X193568317Y-73979097D01*
X193240848Y-73804061D01*
X192885524Y-73696275D01*
X192608597Y-73669000D01*
X190423403Y-73669000D01*
X190146476Y-73696275D01*
X189791152Y-73804061D01*
X189463683Y-73979097D01*
X189228630Y-74172000D01*
X184067603Y-74172000D01*
X184059180Y-74167498D01*
X183939482Y-74131188D01*
X183815000Y-74118928D01*
X182265000Y-74118928D01*
X182140518Y-74131188D01*
X182020820Y-74167498D01*
X181910506Y-74226463D01*
X181813815Y-74305815D01*
X181734463Y-74402506D01*
X181675498Y-74512820D01*
X181639188Y-74632518D01*
X181626928Y-74757000D01*
X181626928Y-75357000D01*
X181639188Y-75481482D01*
X181675498Y-75601180D01*
X181724043Y-75692000D01*
X181675498Y-75782820D01*
X181639188Y-75902518D01*
X181626928Y-76027000D01*
X181626928Y-76488494D01*
X181245951Y-76869471D01*
X181212184Y-76897183D01*
X181184471Y-76930951D01*
X181184468Y-76930954D01*
X181101590Y-77031941D01*
X181019412Y-77185687D01*
X180968805Y-77352510D01*
X180951719Y-77526000D01*
X180956001Y-77569478D01*
X180956000Y-78051529D01*
X180923023Y-78160243D01*
X180907928Y-78313500D01*
X180744000Y-78313500D01*
X180744000Y-77689750D01*
X180585250Y-77531000D01*
X180576000Y-77527928D01*
X180451518Y-77540188D01*
X180331820Y-77576498D01*
X180221506Y-77635463D01*
X180124815Y-77714815D01*
X180045463Y-77811506D01*
X179986498Y-77921820D01*
X179950188Y-78041518D01*
X179937928Y-78166000D01*
X175960579Y-78166000D01*
X174830654Y-77036075D01*
X174843482Y-77034812D01*
X174879466Y-77023896D01*
X174949820Y-77061502D01*
X175069518Y-77097812D01*
X175194000Y-77110072D01*
X175228250Y-77107000D01*
X175387000Y-76948250D01*
X175387000Y-76304000D01*
X175367000Y-76304000D01*
X175367000Y-76140072D01*
X175661000Y-76140072D01*
X175661000Y-76304000D01*
X175641000Y-76304000D01*
X175641000Y-76948250D01*
X175799750Y-77107000D01*
X175834000Y-77110072D01*
X175958482Y-77097812D01*
X176078180Y-77061502D01*
X176188494Y-77002537D01*
X176285185Y-76923185D01*
X176296152Y-76909821D01*
X176334463Y-76981494D01*
X176413815Y-77078185D01*
X176510506Y-77157537D01*
X176620820Y-77216502D01*
X176740518Y-77252812D01*
X176865000Y-77265072D01*
X177354250Y-77262000D01*
X177513000Y-77103250D01*
X177513000Y-76454000D01*
X177767000Y-76454000D01*
X177767000Y-77103250D01*
X177925750Y-77262000D01*
X178415000Y-77265072D01*
X178539482Y-77252812D01*
X178659180Y-77216502D01*
X178769494Y-77157537D01*
X178866185Y-77078185D01*
X178945537Y-76981494D01*
X179004502Y-76871180D01*
X179040812Y-76751482D01*
X179053072Y-76627000D01*
X179050000Y-76612750D01*
X178891250Y-76454000D01*
X177767000Y-76454000D01*
X177513000Y-76454000D01*
X177493000Y-76454000D01*
X177493000Y-76200000D01*
X177513000Y-76200000D01*
X177513000Y-76180000D01*
X177767000Y-76180000D01*
X177767000Y-76200000D01*
X178891250Y-76200000D01*
X179050000Y-76041250D01*
X179053072Y-76027000D01*
X179040812Y-75902518D01*
X179004502Y-75782820D01*
X178955957Y-75692000D01*
X179004502Y-75601180D01*
X179040812Y-75481482D01*
X179053072Y-75357000D01*
X179053072Y-74757000D01*
X179040812Y-74632518D01*
X179004502Y-74512820D01*
X178955957Y-74422000D01*
X179004502Y-74331180D01*
X179040812Y-74211482D01*
X179053072Y-74087000D01*
X179053072Y-73652121D01*
X179117898Y-73639226D01*
X179306256Y-73561205D01*
X179475774Y-73447937D01*
X179619937Y-73303774D01*
X179733205Y-73134256D01*
X179811226Y-72945898D01*
X179851000Y-72745939D01*
X179851000Y-72542061D01*
X179811226Y-72342102D01*
X179733205Y-72153744D01*
X179619937Y-71984226D01*
X179475774Y-71840063D01*
X179306256Y-71726795D01*
X179117898Y-71648774D01*
X178917939Y-71609000D01*
X178714061Y-71609000D01*
X178644085Y-71622919D01*
X178539482Y-71591188D01*
X178415000Y-71578928D01*
X176865000Y-71578928D01*
X176740518Y-71591188D01*
X176620820Y-71627498D01*
X176612397Y-71632000D01*
X176296828Y-71632000D01*
X176239058Y-71584589D01*
X176085312Y-71502411D01*
X175918489Y-71451805D01*
X175745000Y-71434718D01*
X175571510Y-71451805D01*
X175404687Y-71502411D01*
X175250941Y-71584589D01*
X175121303Y-71690981D01*
X175070000Y-71685928D01*
X175060750Y-71689000D01*
X174902000Y-71847750D01*
X174902000Y-72054269D01*
X174872805Y-72150511D01*
X174870354Y-72175399D01*
X174827023Y-72318243D01*
X174811928Y-72471500D01*
X174811928Y-72791000D01*
X174648000Y-72791000D01*
X174648000Y-72771000D01*
X174003750Y-72771000D01*
X173936914Y-72837836D01*
X173910034Y-72810956D01*
X173882317Y-72777183D01*
X173747559Y-72666589D01*
X173593813Y-72584411D01*
X173475375Y-72548483D01*
X173399125Y-72507726D01*
X173251757Y-72463023D01*
X173098500Y-72447928D01*
X172803500Y-72447928D01*
X172650243Y-72463023D01*
X172502875Y-72507726D01*
X172485098Y-72517228D01*
X172459756Y-72500295D01*
X172271398Y-72422274D01*
X172071439Y-72382500D01*
X171867561Y-72382500D01*
X171667602Y-72422274D01*
X171479244Y-72500295D01*
X171309726Y-72613563D01*
X171165563Y-72757726D01*
X171052295Y-72927244D01*
X170974274Y-73115602D01*
X170962965Y-73172456D01*
X170084941Y-74050481D01*
X170051174Y-74078193D01*
X170023461Y-74111961D01*
X170023458Y-74111964D01*
X169940580Y-74212951D01*
X169858402Y-74366697D01*
X169807795Y-74533520D01*
X169790709Y-74707010D01*
X159771174Y-74707010D01*
X159826079Y-74678863D01*
X159989876Y-74569416D01*
X160575591Y-73887196D01*
X156718000Y-70029605D01*
X152860409Y-73887196D01*
X147193000Y-73887196D01*
X147193000Y-69751501D01*
X150976192Y-69751501D01*
X151067303Y-70873565D01*
X151375567Y-71956294D01*
X151889137Y-72958079D01*
X151998584Y-73121876D01*
X152680804Y-73707591D01*
X156538395Y-69850000D01*
X156897605Y-69850000D01*
X160755196Y-73707591D01*
X161437416Y-73121876D01*
X161881650Y-72324000D01*
X173841928Y-72324000D01*
X173845000Y-72358250D01*
X174003750Y-72517000D01*
X174648000Y-72517000D01*
X174648000Y-71847750D01*
X174489250Y-71689000D01*
X174480000Y-71685928D01*
X174355518Y-71698188D01*
X174235820Y-71734498D01*
X174125506Y-71793463D01*
X174028815Y-71872815D01*
X173949463Y-71969506D01*
X173890498Y-72079820D01*
X173854188Y-72199518D01*
X173841928Y-72324000D01*
X161881650Y-72324000D01*
X161985045Y-72138296D01*
X162330265Y-71066777D01*
X162459808Y-69948499D01*
X162368697Y-68826435D01*
X162060433Y-67743706D01*
X161546863Y-66741921D01*
X161437416Y-66578124D01*
X160755196Y-65992409D01*
X156897605Y-69850000D01*
X156538395Y-69850000D01*
X152680804Y-65992409D01*
X151998584Y-66578124D01*
X151450955Y-67561704D01*
X151105735Y-68633223D01*
X150976192Y-69751501D01*
X147193000Y-69751501D01*
X147193000Y-65812804D01*
X152860409Y-65812804D01*
X156718000Y-69670395D01*
X160575591Y-65812804D01*
X159989876Y-65130584D01*
X159006296Y-64582955D01*
X157934777Y-64237735D01*
X156816499Y-64108192D01*
X155694435Y-64199303D01*
X154611706Y-64507567D01*
X153609921Y-65021137D01*
X153446124Y-65130584D01*
X152860409Y-65812804D01*
X147193000Y-65812804D01*
X147193000Y-60579000D01*
X165100000Y-60579000D01*
X165124776Y-60576560D01*
X165148601Y-60569333D01*
X165170557Y-60557597D01*
X165184059Y-60547200D01*
X175091928Y-51798763D01*
X175091928Y-53474000D01*
X175104188Y-53598482D01*
X175140498Y-53718180D01*
X175199463Y-53828494D01*
X175278815Y-53925185D01*
X175375506Y-54004537D01*
X175485820Y-54063502D01*
X175605518Y-54099812D01*
X175730000Y-54112072D01*
X179230000Y-54112072D01*
X179354482Y-54099812D01*
X179474180Y-54063502D01*
X179514000Y-54042217D01*
X179514001Y-69832521D01*
X179509719Y-69876000D01*
X179526805Y-70049490D01*
X179577412Y-70216313D01*
X179659590Y-70370059D01*
X179742468Y-70471046D01*
X179742471Y-70471049D01*
X179770184Y-70504817D01*
X179803951Y-70532529D01*
X181626928Y-72355507D01*
X181626928Y-72817000D01*
X181639188Y-72941482D01*
X181675498Y-73061180D01*
X181734463Y-73171494D01*
X181813815Y-73268185D01*
X181910506Y-73347537D01*
X182020820Y-73406502D01*
X182140518Y-73442812D01*
X182265000Y-73455072D01*
X183815000Y-73455072D01*
X183939482Y-73442812D01*
X184059180Y-73406502D01*
X184169494Y-73347537D01*
X184266185Y-73268185D01*
X184345537Y-73171494D01*
X184404502Y-73061180D01*
X184440812Y-72941482D01*
X184453072Y-72817000D01*
X184453072Y-72217000D01*
X184440812Y-72092518D01*
X184404502Y-71972820D01*
X184345537Y-71862506D01*
X184266185Y-71765815D01*
X184169494Y-71686463D01*
X184059180Y-71627498D01*
X183939482Y-71591188D01*
X183815000Y-71578928D01*
X183353507Y-71578928D01*
X181284000Y-69509422D01*
X181284000Y-54112072D01*
X184630000Y-54112072D01*
X184754482Y-54099812D01*
X184874180Y-54063502D01*
X184984494Y-54004537D01*
X185081185Y-53925185D01*
X185160537Y-53828494D01*
X185219502Y-53718180D01*
X185255812Y-53598482D01*
X185268072Y-53474000D01*
X185268072Y-53205000D01*
X189960640Y-53205000D01*
X190111637Y-53430983D01*
X190409017Y-53728363D01*
X190635000Y-53879360D01*
X190635001Y-65792738D01*
X190479047Y-66169244D01*
X190397000Y-66581721D01*
X190397000Y-67002279D01*
X190479047Y-67414756D01*
X190635001Y-67791262D01*
X190635001Y-68215928D01*
X189266000Y-68215928D01*
X189141518Y-68228188D01*
X189021820Y-68264498D01*
X188911506Y-68323463D01*
X188814815Y-68402815D01*
X188735463Y-68499506D01*
X188676498Y-68609820D01*
X188640188Y-68729518D01*
X188627928Y-68854000D01*
X188627928Y-71354000D01*
X188640188Y-71478482D01*
X188676498Y-71598180D01*
X188735463Y-71708494D01*
X188814815Y-71805185D01*
X188911506Y-71884537D01*
X189021820Y-71943502D01*
X189141518Y-71979812D01*
X189266000Y-71992072D01*
X193766000Y-71992072D01*
X193890482Y-71979812D01*
X194010180Y-71943502D01*
X194120494Y-71884537D01*
X194217185Y-71805185D01*
X194296537Y-71708494D01*
X194355502Y-71598180D01*
X194391812Y-71478482D01*
X194404072Y-71354000D01*
X194404072Y-68854000D01*
X194391812Y-68729518D01*
X194355502Y-68609820D01*
X194296537Y-68499506D01*
X194217185Y-68402815D01*
X194120494Y-68323463D01*
X194054929Y-68288417D01*
X194190363Y-68152983D01*
X194424012Y-67803302D01*
X194584953Y-67414756D01*
X194667000Y-67002279D01*
X194667000Y-66581721D01*
X194584953Y-66169244D01*
X194424012Y-65780698D01*
X194190363Y-65431017D01*
X193892983Y-65133637D01*
X193543302Y-64899988D01*
X193154756Y-64739047D01*
X192905000Y-64689367D01*
X192905000Y-53879360D01*
X193130983Y-53728363D01*
X193428363Y-53430983D01*
X193662012Y-53081302D01*
X193822953Y-52692756D01*
X193905000Y-52280279D01*
X193905000Y-51859721D01*
X193822953Y-51447244D01*
X193662012Y-51058698D01*
X193428363Y-50709017D01*
X193130983Y-50411637D01*
X192781302Y-50177988D01*
X192392756Y-50017047D01*
X191980279Y-49935000D01*
X191559721Y-49935000D01*
X191147244Y-50017047D01*
X190758698Y-50177988D01*
X190409017Y-50411637D01*
X190111637Y-50709017D01*
X189960640Y-50935000D01*
X185221073Y-50935000D01*
X185219502Y-50929820D01*
X185160537Y-50819506D01*
X185081185Y-50722815D01*
X184984494Y-50643463D01*
X184874180Y-50584498D01*
X184754482Y-50548188D01*
X184630000Y-50535928D01*
X181284000Y-50535928D01*
X181284000Y-48205000D01*
X189960640Y-48205000D01*
X190111637Y-48430983D01*
X190409017Y-48728363D01*
X190758698Y-48962012D01*
X191147244Y-49122953D01*
X191559721Y-49205000D01*
X191980279Y-49205000D01*
X192392756Y-49122953D01*
X192781302Y-48962012D01*
X193130983Y-48728363D01*
X193428363Y-48430983D01*
X193662012Y-48081302D01*
X193822953Y-47692756D01*
X193905000Y-47280279D01*
X193905000Y-46859721D01*
X193822953Y-46447244D01*
X193662012Y-46058698D01*
X193428363Y-45709017D01*
X193130983Y-45411637D01*
X192781302Y-45177988D01*
X192392756Y-45017047D01*
X191980279Y-44935000D01*
X191559721Y-44935000D01*
X191147244Y-45017047D01*
X190758698Y-45177988D01*
X190409017Y-45411637D01*
X190111637Y-45709017D01*
X189960640Y-45935000D01*
X181732816Y-45935000D01*
X184420702Y-43561653D01*
X190457952Y-43561653D01*
X190613962Y-43877214D01*
X190988745Y-44068020D01*
X191393551Y-44182044D01*
X191812824Y-44214902D01*
X192230451Y-44165334D01*
X192630383Y-44035243D01*
X192926038Y-43877214D01*
X193082048Y-43561653D01*
X191770000Y-42249605D01*
X190457952Y-43561653D01*
X184420702Y-43561653D01*
X186061545Y-42112824D01*
X189625098Y-42112824D01*
X189674666Y-42530451D01*
X189804757Y-42930383D01*
X189962786Y-43226038D01*
X190278347Y-43382048D01*
X191590395Y-42070000D01*
X191949605Y-42070000D01*
X193261653Y-43382048D01*
X193577214Y-43226038D01*
X193768020Y-42851255D01*
X193882044Y-42446449D01*
X193914902Y-42027176D01*
X193865334Y-41609549D01*
X193735243Y-41209617D01*
X193577214Y-40913962D01*
X193261653Y-40757952D01*
X191949605Y-42070000D01*
X191590395Y-42070000D01*
X190278347Y-40757952D01*
X189962786Y-40913962D01*
X189771980Y-41288745D01*
X189657956Y-41693551D01*
X189625098Y-42112824D01*
X186061545Y-42112824D01*
X187799386Y-40578347D01*
X190457952Y-40578347D01*
X191770000Y-41890395D01*
X193082048Y-40578347D01*
X192926038Y-40262786D01*
X192551255Y-40071980D01*
X192146449Y-39957956D01*
X191727176Y-39925098D01*
X191309549Y-39974666D01*
X190909617Y-40104757D01*
X190613962Y-40262786D01*
X190457952Y-40578347D01*
X187799386Y-40578347D01*
X189024045Y-39497000D01*
X195454072Y-39497000D01*
X195932285Y-95926035D01*
G37*
X195932285Y-95926035D02*
X195825250Y-95819000D01*
X195816000Y-95815928D01*
X195691518Y-95828188D01*
X195571820Y-95864498D01*
X195461506Y-95923463D01*
X195364815Y-96002815D01*
X195285463Y-96099506D01*
X195226498Y-96209820D01*
X195190188Y-96329518D01*
X195177928Y-96454000D01*
X195181000Y-96488250D01*
X195339750Y-96647000D01*
X195938395Y-96647000D01*
X195940547Y-96901000D01*
X195339750Y-96901000D01*
X195181000Y-97059750D01*
X195177928Y-97094000D01*
X195190188Y-97218482D01*
X195226498Y-97338180D01*
X195285463Y-97448494D01*
X195364815Y-97545185D01*
X195461506Y-97624537D01*
X195571820Y-97683502D01*
X195691518Y-97719812D01*
X195816000Y-97732072D01*
X195825250Y-97729000D01*
X195946536Y-97607714D01*
X195959920Y-99187000D01*
X147193000Y-99187000D01*
X147193000Y-73887196D01*
X152860409Y-73887196D01*
X153446124Y-74569416D01*
X154429704Y-75117045D01*
X155501223Y-75462265D01*
X156619501Y-75591808D01*
X157741565Y-75500697D01*
X158824294Y-75192433D01*
X159771174Y-74707010D01*
X169790709Y-74707010D01*
X169794991Y-74750489D01*
X169794990Y-80212521D01*
X169790709Y-80255990D01*
X169794990Y-80299459D01*
X169794990Y-80299466D01*
X169807795Y-80429479D01*
X169858401Y-80596302D01*
X169940579Y-80750048D01*
X170051173Y-80884807D01*
X170084946Y-80912524D01*
X177931001Y-88758580D01*
X177931000Y-91917545D01*
X177898795Y-91965744D01*
X177820774Y-92154102D01*
X177781000Y-92354061D01*
X177781000Y-92557939D01*
X177820774Y-92757898D01*
X177898795Y-92946256D01*
X178012063Y-93115774D01*
X178156226Y-93259937D01*
X178325744Y-93373205D01*
X178514102Y-93451226D01*
X178714061Y-93491000D01*
X178917939Y-93491000D01*
X179117898Y-93451226D01*
X179306256Y-93373205D01*
X179475774Y-93259937D01*
X179619937Y-93115774D01*
X179733205Y-92946256D01*
X179811226Y-92757898D01*
X179851000Y-92557939D01*
X179851000Y-92354061D01*
X179811226Y-92154102D01*
X179733205Y-91965744D01*
X179701000Y-91917546D01*
X179701000Y-88435469D01*
X179705281Y-88392000D01*
X179701000Y-88348531D01*
X179701000Y-88348523D01*
X179688195Y-88218510D01*
X179637589Y-88051687D01*
X179637589Y-88051686D01*
X179555411Y-87897941D01*
X179472532Y-87796953D01*
X179472530Y-87796951D01*
X179444817Y-87763183D01*
X179411049Y-87735470D01*
X171564990Y-79889412D01*
X171564990Y-77341072D01*
X171622500Y-77341072D01*
X171775757Y-77325977D01*
X171884469Y-77293000D01*
X172445531Y-77293000D01*
X172489000Y-77297281D01*
X172532469Y-77293000D01*
X172532477Y-77293000D01*
X172579765Y-77288343D01*
X186846500Y-91555079D01*
X186846501Y-96261044D01*
X186814295Y-96309244D01*
X186736274Y-96497602D01*
X186696500Y-96697561D01*
X186696500Y-96901439D01*
X186736274Y-97101398D01*
X186814295Y-97289756D01*
X186927563Y-97459274D01*
X187071726Y-97603437D01*
X187241244Y-97716705D01*
X187429602Y-97794726D01*
X187629561Y-97834500D01*
X187833439Y-97834500D01*
X188033398Y-97794726D01*
X188221756Y-97716705D01*
X188391274Y-97603437D01*
X188535437Y-97459274D01*
X188648705Y-97289756D01*
X188726726Y-97101398D01*
X188766500Y-96901439D01*
X188766500Y-96697561D01*
X188726726Y-96497602D01*
X188648705Y-96309244D01*
X188616500Y-96261046D01*
X188616500Y-94092665D01*
X191605000Y-94092665D01*
X191605000Y-94375335D01*
X191660147Y-94652574D01*
X191768320Y-94913727D01*
X191925363Y-95148759D01*
X192125241Y-95348637D01*
X192357759Y-95504000D01*
X192125241Y-95659363D01*
X191925363Y-95859241D01*
X191768320Y-96094273D01*
X191660147Y-96355426D01*
X191605000Y-96632665D01*
X191605000Y-96915335D01*
X191660147Y-97192574D01*
X191768320Y-97453727D01*
X191925363Y-97688759D01*
X192125241Y-97888637D01*
X192360273Y-98045680D01*
X192621426Y-98153853D01*
X192898665Y-98209000D01*
X193181335Y-98209000D01*
X193458574Y-98153853D01*
X193719727Y-98045680D01*
X193954759Y-97888637D01*
X194154637Y-97688759D01*
X194311680Y-97453727D01*
X194419853Y-97192574D01*
X194475000Y-96915335D01*
X194475000Y-96632665D01*
X194419853Y-96355426D01*
X194311680Y-96094273D01*
X194154637Y-95859241D01*
X193954759Y-95659363D01*
X193722241Y-95504000D01*
X193954759Y-95348637D01*
X194154637Y-95148759D01*
X194311680Y-94913727D01*
X194419853Y-94652574D01*
X194475000Y-94375335D01*
X194475000Y-94092665D01*
X194419853Y-93815426D01*
X194311680Y-93554273D01*
X194154637Y-93319241D01*
X193954759Y-93119363D01*
X193719727Y-92962320D01*
X193458574Y-92854147D01*
X193181335Y-92799000D01*
X192898665Y-92799000D01*
X192621426Y-92854147D01*
X192360273Y-92962320D01*
X192125241Y-93119363D01*
X191925363Y-93319241D01*
X191768320Y-93554273D01*
X191660147Y-93815426D01*
X191605000Y-94092665D01*
X188616500Y-94092665D01*
X188616500Y-91231969D01*
X188620781Y-91188500D01*
X188616500Y-91145031D01*
X188616500Y-91145023D01*
X188603695Y-91015010D01*
X188553089Y-90848187D01*
X188470911Y-90694441D01*
X188360317Y-90559683D01*
X188326551Y-90531972D01*
X177362579Y-79568000D01*
X184255928Y-79568000D01*
X184268188Y-79692482D01*
X184304498Y-79812180D01*
X184363463Y-79922494D01*
X184442815Y-80019185D01*
X184539506Y-80098537D01*
X184649820Y-80157502D01*
X184769518Y-80193812D01*
X184894000Y-80206072D01*
X184903250Y-80203000D01*
X185062000Y-80044250D01*
X185062000Y-79375000D01*
X184417750Y-79375000D01*
X184259000Y-79533750D01*
X184255928Y-79568000D01*
X177362579Y-79568000D01*
X176600579Y-78806000D01*
X179937928Y-78806000D01*
X179950188Y-78930482D01*
X179986498Y-79050180D01*
X180045463Y-79160494D01*
X180124815Y-79257185D01*
X180221506Y-79336537D01*
X180331820Y-79395502D01*
X180451518Y-79431812D01*
X180576000Y-79444072D01*
X180585250Y-79441000D01*
X180744000Y-79282250D01*
X180744000Y-78613000D01*
X180099750Y-78613000D01*
X179941000Y-78771750D01*
X179937928Y-78806000D01*
X176600579Y-78806000D01*
X175960579Y-78166000D01*
X179937928Y-78166000D01*
X179941000Y-78200250D01*
X180099750Y-78359000D01*
X180744000Y-78359000D01*
X180744000Y-78313500D01*
X180907928Y-78313500D01*
X180907928Y-78658500D01*
X180923023Y-78811757D01*
X180967726Y-78959125D01*
X180998000Y-79015763D01*
X180998000Y-79282250D01*
X181156750Y-79441000D01*
X181166000Y-79444072D01*
X181290482Y-79431812D01*
X181410180Y-79395502D01*
X181417316Y-79391688D01*
X181540243Y-79428977D01*
X181693500Y-79444072D01*
X181988500Y-79444072D01*
X182141757Y-79428977D01*
X182289125Y-79384274D01*
X182424940Y-79311679D01*
X182543983Y-79213983D01*
X182641679Y-79094940D01*
X182714274Y-78959125D01*
X182723715Y-78928000D01*
X184255928Y-78928000D01*
X184259000Y-78962250D01*
X184417750Y-79121000D01*
X185062000Y-79121000D01*
X185062000Y-78451750D01*
X184903250Y-78293000D01*
X184894000Y-78289928D01*
X184769518Y-78302188D01*
X184649820Y-78338498D01*
X184539506Y-78397463D01*
X184442815Y-78476815D01*
X184363463Y-78573506D01*
X184304498Y-78683820D01*
X184268188Y-78803518D01*
X184255928Y-78928000D01*
X182723715Y-78928000D01*
X182758977Y-78811757D01*
X182774072Y-78658500D01*
X182774072Y-78313500D01*
X182758977Y-78160243D01*
X182726000Y-78051531D01*
X182726000Y-77892578D01*
X183353507Y-77265072D01*
X183815000Y-77265072D01*
X183939482Y-77252812D01*
X184059180Y-77216502D01*
X184067603Y-77212000D01*
X184650041Y-77212000D01*
X184674875Y-77225274D01*
X184822243Y-77269977D01*
X184975500Y-77285072D01*
X185208000Y-77285072D01*
X185208001Y-79138521D01*
X185203719Y-79182000D01*
X185220805Y-79355490D01*
X185225928Y-79372378D01*
X185225928Y-79420500D01*
X185241023Y-79573757D01*
X185285726Y-79721125D01*
X185316000Y-79777763D01*
X185316000Y-80044250D01*
X185474750Y-80203000D01*
X185484000Y-80206072D01*
X185608482Y-80193812D01*
X185728180Y-80157502D01*
X185735316Y-80153688D01*
X185846983Y-80187561D01*
X187258470Y-81599049D01*
X187286183Y-81632817D01*
X187319951Y-81660530D01*
X187319953Y-81660532D01*
X187391452Y-81719210D01*
X187420941Y-81743411D01*
X187574687Y-81825589D01*
X187741510Y-81876195D01*
X187871523Y-81889000D01*
X187871533Y-81889000D01*
X187914999Y-81893281D01*
X187958466Y-81889000D01*
X188851664Y-81889000D01*
X188941097Y-82056317D01*
X189176655Y-82343345D01*
X189463683Y-82578903D01*
X189791152Y-82753939D01*
X190146476Y-82861725D01*
X190423403Y-82889000D01*
X191237821Y-82889000D01*
X191171017Y-82933637D01*
X190873637Y-83231017D01*
X190639988Y-83580698D01*
X190479047Y-83969244D01*
X190397000Y-84381721D01*
X190397000Y-84802279D01*
X190479047Y-85214756D01*
X190639988Y-85603302D01*
X190873637Y-85952983D01*
X191171017Y-86250363D01*
X191520698Y-86484012D01*
X191909244Y-86644953D01*
X192321721Y-86727000D01*
X192742279Y-86727000D01*
X193154756Y-86644953D01*
X193543302Y-86484012D01*
X193892983Y-86250363D01*
X194190363Y-85952983D01*
X194424012Y-85603302D01*
X194584953Y-85214756D01*
X194667000Y-84802279D01*
X194667000Y-84381721D01*
X194584953Y-83969244D01*
X194424012Y-83580698D01*
X194190363Y-83231017D01*
X193892983Y-82933637D01*
X193543302Y-82699988D01*
X193429766Y-82652960D01*
X193568317Y-82578903D01*
X193855345Y-82343345D01*
X194090903Y-82056317D01*
X194265939Y-81728848D01*
X194373725Y-81373524D01*
X194410120Y-81004000D01*
X194373725Y-80634476D01*
X194265939Y-80279152D01*
X194090903Y-79951683D01*
X193855345Y-79664655D01*
X193568317Y-79429097D01*
X193240848Y-79254061D01*
X192885524Y-79146275D01*
X192608597Y-79119000D01*
X190423403Y-79119000D01*
X190146476Y-79146275D01*
X189791152Y-79254061D01*
X189463683Y-79429097D01*
X189176655Y-79664655D01*
X188941097Y-79951683D01*
X188851664Y-80119000D01*
X188281579Y-80119000D01*
X187073561Y-78910983D01*
X187032274Y-78774875D01*
X186978000Y-78673336D01*
X186978000Y-76761469D01*
X187010977Y-76652757D01*
X187026072Y-76499500D01*
X187026072Y-76154500D01*
X187010977Y-76001243D01*
X186993006Y-75942000D01*
X188663880Y-75942000D01*
X188766061Y-76278848D01*
X188941097Y-76606317D01*
X189176655Y-76893345D01*
X189463683Y-77128903D01*
X189791152Y-77303939D01*
X190146476Y-77411725D01*
X190423403Y-77439000D01*
X192608597Y-77439000D01*
X192885524Y-77411725D01*
X193240848Y-77303939D01*
X193568317Y-77128903D01*
X193855345Y-76893345D01*
X194090903Y-76606317D01*
X194265939Y-76278848D01*
X194373725Y-75923524D01*
X194410120Y-75554000D01*
X194373725Y-75184476D01*
X194265939Y-74829152D01*
X194090903Y-74501683D01*
X193855345Y-74214655D01*
X193568317Y-73979097D01*
X193240848Y-73804061D01*
X192885524Y-73696275D01*
X192608597Y-73669000D01*
X190423403Y-73669000D01*
X190146476Y-73696275D01*
X189791152Y-73804061D01*
X189463683Y-73979097D01*
X189228630Y-74172000D01*
X184067603Y-74172000D01*
X184059180Y-74167498D01*
X183939482Y-74131188D01*
X183815000Y-74118928D01*
X182265000Y-74118928D01*
X182140518Y-74131188D01*
X182020820Y-74167498D01*
X181910506Y-74226463D01*
X181813815Y-74305815D01*
X181734463Y-74402506D01*
X181675498Y-74512820D01*
X181639188Y-74632518D01*
X181626928Y-74757000D01*
X181626928Y-75357000D01*
X181639188Y-75481482D01*
X181675498Y-75601180D01*
X181724043Y-75692000D01*
X181675498Y-75782820D01*
X181639188Y-75902518D01*
X181626928Y-76027000D01*
X181626928Y-76488494D01*
X181245951Y-76869471D01*
X181212184Y-76897183D01*
X181184471Y-76930951D01*
X181184468Y-76930954D01*
X181101590Y-77031941D01*
X181019412Y-77185687D01*
X180968805Y-77352510D01*
X180951719Y-77526000D01*
X180956001Y-77569478D01*
X180956000Y-78051529D01*
X180923023Y-78160243D01*
X180907928Y-78313500D01*
X180744000Y-78313500D01*
X180744000Y-77689750D01*
X180585250Y-77531000D01*
X180576000Y-77527928D01*
X180451518Y-77540188D01*
X180331820Y-77576498D01*
X180221506Y-77635463D01*
X180124815Y-77714815D01*
X180045463Y-77811506D01*
X179986498Y-77921820D01*
X179950188Y-78041518D01*
X179937928Y-78166000D01*
X175960579Y-78166000D01*
X174830654Y-77036075D01*
X174843482Y-77034812D01*
X174879466Y-77023896D01*
X174949820Y-77061502D01*
X175069518Y-77097812D01*
X175194000Y-77110072D01*
X175228250Y-77107000D01*
X175387000Y-76948250D01*
X175387000Y-76304000D01*
X175367000Y-76304000D01*
X175367000Y-76140072D01*
X175661000Y-76140072D01*
X175661000Y-76304000D01*
X175641000Y-76304000D01*
X175641000Y-76948250D01*
X175799750Y-77107000D01*
X175834000Y-77110072D01*
X175958482Y-77097812D01*
X176078180Y-77061502D01*
X176188494Y-77002537D01*
X176285185Y-76923185D01*
X176296152Y-76909821D01*
X176334463Y-76981494D01*
X176413815Y-77078185D01*
X176510506Y-77157537D01*
X176620820Y-77216502D01*
X176740518Y-77252812D01*
X176865000Y-77265072D01*
X177354250Y-77262000D01*
X177513000Y-77103250D01*
X177513000Y-76454000D01*
X177767000Y-76454000D01*
X177767000Y-77103250D01*
X177925750Y-77262000D01*
X178415000Y-77265072D01*
X178539482Y-77252812D01*
X178659180Y-77216502D01*
X178769494Y-77157537D01*
X178866185Y-77078185D01*
X178945537Y-76981494D01*
X179004502Y-76871180D01*
X179040812Y-76751482D01*
X179053072Y-76627000D01*
X179050000Y-76612750D01*
X178891250Y-76454000D01*
X177767000Y-76454000D01*
X177513000Y-76454000D01*
X177493000Y-76454000D01*
X177493000Y-76200000D01*
X177513000Y-76200000D01*
X177513000Y-76180000D01*
X177767000Y-76180000D01*
X177767000Y-76200000D01*
X178891250Y-76200000D01*
X179050000Y-76041250D01*
X179053072Y-76027000D01*
X179040812Y-75902518D01*
X179004502Y-75782820D01*
X178955957Y-75692000D01*
X179004502Y-75601180D01*
X179040812Y-75481482D01*
X179053072Y-75357000D01*
X179053072Y-74757000D01*
X179040812Y-74632518D01*
X179004502Y-74512820D01*
X178955957Y-74422000D01*
X179004502Y-74331180D01*
X179040812Y-74211482D01*
X179053072Y-74087000D01*
X179053072Y-73652121D01*
X179117898Y-73639226D01*
X179306256Y-73561205D01*
X179475774Y-73447937D01*
X179619937Y-73303774D01*
X179733205Y-73134256D01*
X179811226Y-72945898D01*
X179851000Y-72745939D01*
X179851000Y-72542061D01*
X179811226Y-72342102D01*
X179733205Y-72153744D01*
X179619937Y-71984226D01*
X179475774Y-71840063D01*
X179306256Y-71726795D01*
X179117898Y-71648774D01*
X178917939Y-71609000D01*
X178714061Y-71609000D01*
X178644085Y-71622919D01*
X178539482Y-71591188D01*
X178415000Y-71578928D01*
X176865000Y-71578928D01*
X176740518Y-71591188D01*
X176620820Y-71627498D01*
X176612397Y-71632000D01*
X176296828Y-71632000D01*
X176239058Y-71584589D01*
X176085312Y-71502411D01*
X175918489Y-71451805D01*
X175745000Y-71434718D01*
X175571510Y-71451805D01*
X175404687Y-71502411D01*
X175250941Y-71584589D01*
X175121303Y-71690981D01*
X175070000Y-71685928D01*
X175060750Y-71689000D01*
X174902000Y-71847750D01*
X174902000Y-72054269D01*
X174872805Y-72150511D01*
X174870354Y-72175399D01*
X174827023Y-72318243D01*
X174811928Y-72471500D01*
X174811928Y-72791000D01*
X174648000Y-72791000D01*
X174648000Y-72771000D01*
X174003750Y-72771000D01*
X173936914Y-72837836D01*
X173910034Y-72810956D01*
X173882317Y-72777183D01*
X173747559Y-72666589D01*
X173593813Y-72584411D01*
X173475375Y-72548483D01*
X173399125Y-72507726D01*
X173251757Y-72463023D01*
X173098500Y-72447928D01*
X172803500Y-72447928D01*
X172650243Y-72463023D01*
X172502875Y-72507726D01*
X172485098Y-72517228D01*
X172459756Y-72500295D01*
X172271398Y-72422274D01*
X172071439Y-72382500D01*
X171867561Y-72382500D01*
X171667602Y-72422274D01*
X171479244Y-72500295D01*
X171309726Y-72613563D01*
X171165563Y-72757726D01*
X171052295Y-72927244D01*
X170974274Y-73115602D01*
X170962965Y-73172456D01*
X170084941Y-74050481D01*
X170051174Y-74078193D01*
X170023461Y-74111961D01*
X170023458Y-74111964D01*
X169940580Y-74212951D01*
X169858402Y-74366697D01*
X169807795Y-74533520D01*
X169790709Y-74707010D01*
X159771174Y-74707010D01*
X159826079Y-74678863D01*
X159989876Y-74569416D01*
X160575591Y-73887196D01*
X156718000Y-70029605D01*
X152860409Y-73887196D01*
X147193000Y-73887196D01*
X147193000Y-69751501D01*
X150976192Y-69751501D01*
X151067303Y-70873565D01*
X151375567Y-71956294D01*
X151889137Y-72958079D01*
X151998584Y-73121876D01*
X152680804Y-73707591D01*
X156538395Y-69850000D01*
X156897605Y-69850000D01*
X160755196Y-73707591D01*
X161437416Y-73121876D01*
X161881650Y-72324000D01*
X173841928Y-72324000D01*
X173845000Y-72358250D01*
X174003750Y-72517000D01*
X174648000Y-72517000D01*
X174648000Y-71847750D01*
X174489250Y-71689000D01*
X174480000Y-71685928D01*
X174355518Y-71698188D01*
X174235820Y-71734498D01*
X174125506Y-71793463D01*
X174028815Y-71872815D01*
X173949463Y-71969506D01*
X173890498Y-72079820D01*
X173854188Y-72199518D01*
X173841928Y-72324000D01*
X161881650Y-72324000D01*
X161985045Y-72138296D01*
X162330265Y-71066777D01*
X162459808Y-69948499D01*
X162368697Y-68826435D01*
X162060433Y-67743706D01*
X161546863Y-66741921D01*
X161437416Y-66578124D01*
X160755196Y-65992409D01*
X156897605Y-69850000D01*
X156538395Y-69850000D01*
X152680804Y-65992409D01*
X151998584Y-66578124D01*
X151450955Y-67561704D01*
X151105735Y-68633223D01*
X150976192Y-69751501D01*
X147193000Y-69751501D01*
X147193000Y-65812804D01*
X152860409Y-65812804D01*
X156718000Y-69670395D01*
X160575591Y-65812804D01*
X159989876Y-65130584D01*
X159006296Y-64582955D01*
X157934777Y-64237735D01*
X156816499Y-64108192D01*
X155694435Y-64199303D01*
X154611706Y-64507567D01*
X153609921Y-65021137D01*
X153446124Y-65130584D01*
X152860409Y-65812804D01*
X147193000Y-65812804D01*
X147193000Y-60579000D01*
X165100000Y-60579000D01*
X165124776Y-60576560D01*
X165148601Y-60569333D01*
X165170557Y-60557597D01*
X165184059Y-60547200D01*
X175091928Y-51798763D01*
X175091928Y-53474000D01*
X175104188Y-53598482D01*
X175140498Y-53718180D01*
X175199463Y-53828494D01*
X175278815Y-53925185D01*
X175375506Y-54004537D01*
X175485820Y-54063502D01*
X175605518Y-54099812D01*
X175730000Y-54112072D01*
X179230000Y-54112072D01*
X179354482Y-54099812D01*
X179474180Y-54063502D01*
X179514000Y-54042217D01*
X179514001Y-69832521D01*
X179509719Y-69876000D01*
X179526805Y-70049490D01*
X179577412Y-70216313D01*
X179659590Y-70370059D01*
X179742468Y-70471046D01*
X179742471Y-70471049D01*
X179770184Y-70504817D01*
X179803951Y-70532529D01*
X181626928Y-72355507D01*
X181626928Y-72817000D01*
X181639188Y-72941482D01*
X181675498Y-73061180D01*
X181734463Y-73171494D01*
X181813815Y-73268185D01*
X181910506Y-73347537D01*
X182020820Y-73406502D01*
X182140518Y-73442812D01*
X182265000Y-73455072D01*
X183815000Y-73455072D01*
X183939482Y-73442812D01*
X184059180Y-73406502D01*
X184169494Y-73347537D01*
X184266185Y-73268185D01*
X184345537Y-73171494D01*
X184404502Y-73061180D01*
X184440812Y-72941482D01*
X184453072Y-72817000D01*
X184453072Y-72217000D01*
X184440812Y-72092518D01*
X184404502Y-71972820D01*
X184345537Y-71862506D01*
X184266185Y-71765815D01*
X184169494Y-71686463D01*
X184059180Y-71627498D01*
X183939482Y-71591188D01*
X183815000Y-71578928D01*
X183353507Y-71578928D01*
X181284000Y-69509422D01*
X181284000Y-54112072D01*
X184630000Y-54112072D01*
X184754482Y-54099812D01*
X184874180Y-54063502D01*
X184984494Y-54004537D01*
X185081185Y-53925185D01*
X185160537Y-53828494D01*
X185219502Y-53718180D01*
X185255812Y-53598482D01*
X185268072Y-53474000D01*
X185268072Y-53205000D01*
X189960640Y-53205000D01*
X190111637Y-53430983D01*
X190409017Y-53728363D01*
X190635000Y-53879360D01*
X190635001Y-65792738D01*
X190479047Y-66169244D01*
X190397000Y-66581721D01*
X190397000Y-67002279D01*
X190479047Y-67414756D01*
X190635001Y-67791262D01*
X190635001Y-68215928D01*
X189266000Y-68215928D01*
X189141518Y-68228188D01*
X189021820Y-68264498D01*
X188911506Y-68323463D01*
X188814815Y-68402815D01*
X188735463Y-68499506D01*
X188676498Y-68609820D01*
X188640188Y-68729518D01*
X188627928Y-68854000D01*
X188627928Y-71354000D01*
X188640188Y-71478482D01*
X188676498Y-71598180D01*
X188735463Y-71708494D01*
X188814815Y-71805185D01*
X188911506Y-71884537D01*
X189021820Y-71943502D01*
X189141518Y-71979812D01*
X189266000Y-71992072D01*
X193766000Y-71992072D01*
X193890482Y-71979812D01*
X194010180Y-71943502D01*
X194120494Y-71884537D01*
X194217185Y-71805185D01*
X194296537Y-71708494D01*
X194355502Y-71598180D01*
X194391812Y-71478482D01*
X194404072Y-71354000D01*
X194404072Y-68854000D01*
X194391812Y-68729518D01*
X194355502Y-68609820D01*
X194296537Y-68499506D01*
X194217185Y-68402815D01*
X194120494Y-68323463D01*
X194054929Y-68288417D01*
X194190363Y-68152983D01*
X194424012Y-67803302D01*
X194584953Y-67414756D01*
X194667000Y-67002279D01*
X194667000Y-66581721D01*
X194584953Y-66169244D01*
X194424012Y-65780698D01*
X194190363Y-65431017D01*
X193892983Y-65133637D01*
X193543302Y-64899988D01*
X193154756Y-64739047D01*
X192905000Y-64689367D01*
X192905000Y-53879360D01*
X193130983Y-53728363D01*
X193428363Y-53430983D01*
X193662012Y-53081302D01*
X193822953Y-52692756D01*
X193905000Y-52280279D01*
X193905000Y-51859721D01*
X193822953Y-51447244D01*
X193662012Y-51058698D01*
X193428363Y-50709017D01*
X193130983Y-50411637D01*
X192781302Y-50177988D01*
X192392756Y-50017047D01*
X191980279Y-49935000D01*
X191559721Y-49935000D01*
X191147244Y-50017047D01*
X190758698Y-50177988D01*
X190409017Y-50411637D01*
X190111637Y-50709017D01*
X189960640Y-50935000D01*
X185221073Y-50935000D01*
X185219502Y-50929820D01*
X185160537Y-50819506D01*
X185081185Y-50722815D01*
X184984494Y-50643463D01*
X184874180Y-50584498D01*
X184754482Y-50548188D01*
X184630000Y-50535928D01*
X181284000Y-50535928D01*
X181284000Y-48205000D01*
X189960640Y-48205000D01*
X190111637Y-48430983D01*
X190409017Y-48728363D01*
X190758698Y-48962012D01*
X191147244Y-49122953D01*
X191559721Y-49205000D01*
X191980279Y-49205000D01*
X192392756Y-49122953D01*
X192781302Y-48962012D01*
X193130983Y-48728363D01*
X193428363Y-48430983D01*
X193662012Y-48081302D01*
X193822953Y-47692756D01*
X193905000Y-47280279D01*
X193905000Y-46859721D01*
X193822953Y-46447244D01*
X193662012Y-46058698D01*
X193428363Y-45709017D01*
X193130983Y-45411637D01*
X192781302Y-45177988D01*
X192392756Y-45017047D01*
X191980279Y-44935000D01*
X191559721Y-44935000D01*
X191147244Y-45017047D01*
X190758698Y-45177988D01*
X190409017Y-45411637D01*
X190111637Y-45709017D01*
X189960640Y-45935000D01*
X181732816Y-45935000D01*
X184420702Y-43561653D01*
X190457952Y-43561653D01*
X190613962Y-43877214D01*
X190988745Y-44068020D01*
X191393551Y-44182044D01*
X191812824Y-44214902D01*
X192230451Y-44165334D01*
X192630383Y-44035243D01*
X192926038Y-43877214D01*
X193082048Y-43561653D01*
X191770000Y-42249605D01*
X190457952Y-43561653D01*
X184420702Y-43561653D01*
X186061545Y-42112824D01*
X189625098Y-42112824D01*
X189674666Y-42530451D01*
X189804757Y-42930383D01*
X189962786Y-43226038D01*
X190278347Y-43382048D01*
X191590395Y-42070000D01*
X191949605Y-42070000D01*
X193261653Y-43382048D01*
X193577214Y-43226038D01*
X193768020Y-42851255D01*
X193882044Y-42446449D01*
X193914902Y-42027176D01*
X193865334Y-41609549D01*
X193735243Y-41209617D01*
X193577214Y-40913962D01*
X193261653Y-40757952D01*
X191949605Y-42070000D01*
X191590395Y-42070000D01*
X190278347Y-40757952D01*
X189962786Y-40913962D01*
X189771980Y-41288745D01*
X189657956Y-41693551D01*
X189625098Y-42112824D01*
X186061545Y-42112824D01*
X187799386Y-40578347D01*
X190457952Y-40578347D01*
X191770000Y-41890395D01*
X193082048Y-40578347D01*
X192926038Y-40262786D01*
X192551255Y-40071980D01*
X192146449Y-39957956D01*
X191727176Y-39925098D01*
X191309549Y-39974666D01*
X190909617Y-40104757D01*
X190613962Y-40262786D01*
X190457952Y-40578347D01*
X187799386Y-40578347D01*
X189024045Y-39497000D01*
X195454072Y-39497000D01*
X195932285Y-95926035D01*
G36*
X174391000Y-76098500D02*
G01*
X174371000Y-76098500D01*
X174371000Y-76118500D01*
X174117000Y-76118500D01*
X174117000Y-76098500D01*
X174097000Y-76098500D01*
X174097000Y-75967000D01*
X174391000Y-75967000D01*
X174391000Y-76098500D01*
G37*
X174391000Y-76098500D02*
X174371000Y-76098500D01*
X174371000Y-76118500D01*
X174117000Y-76118500D01*
X174117000Y-76098500D01*
X174097000Y-76098500D01*
X174097000Y-75967000D01*
X174391000Y-75967000D01*
X174391000Y-76098500D01*
%TD*%
M02*
