%TF.GenerationSoftware,KiCad,Pcbnew,(5.1.6)-1*%
%TF.CreationDate,2020-06-23T23:46:23+03:00*%
%TF.ProjectId,flyback,666c7962-6163-46b2-9e6b-696361645f70,rev?*%
%TF.SameCoordinates,Original*%
%TF.FileFunction,Copper,L2,Bot*%
%TF.FilePolarity,Positive*%
%FSLAX46Y46*%
G04 Gerber Fmt 4.6, Leading zero omitted, Abs format (unit mm)*
G04 Created by KiCad (PCBNEW (5.1.6)-1) date 2020-06-23 23:46:23*
%MOMM*%
%LPD*%
G01*
G04 APERTURE LIST*
%TA.AperFunction,ComponentPad*%
%ADD10C,3.000000*%
%TD*%
%TA.AperFunction,ComponentPad*%
%ADD11O,2.000000X2.000000*%
%TD*%
%TA.AperFunction,ComponentPad*%
%ADD12R,2.000000X2.000000*%
%TD*%
%TA.AperFunction,ComponentPad*%
%ADD13R,1.500000X1.050000*%
%TD*%
%TA.AperFunction,ComponentPad*%
%ADD14O,1.500000X1.050000*%
%TD*%
%TA.AperFunction,ComponentPad*%
%ADD15C,10.160000*%
%TD*%
%TA.AperFunction,SMDPad,CuDef*%
%ADD16R,2.500000X1.800000*%
%TD*%
%TA.AperFunction,ComponentPad*%
%ADD17O,1.600000X1.600000*%
%TD*%
%TA.AperFunction,ComponentPad*%
%ADD18R,1.600000X1.600000*%
%TD*%
%TA.AperFunction,ComponentPad*%
%ADD19O,4.500000X2.500000*%
%TD*%
%TA.AperFunction,ComponentPad*%
%ADD20R,4.500000X2.500000*%
%TD*%
%TA.AperFunction,ViaPad*%
%ADD21C,0.800000*%
%TD*%
%TA.AperFunction,Conductor*%
%ADD22C,0.500000*%
%TD*%
G04 APERTURE END LIST*
D10*
%TO.P,HS1,1*%
%TO.N,N/C*%
X192532000Y-84592000D03*
X192532000Y-66792000D03*
%TD*%
D11*
%TO.P,D5,2*%
%TO.N,/Vout+*%
X233426000Y-37084000D03*
D12*
%TO.P,D5,1*%
%TO.N,Net-(D5-Pad1)*%
X228346000Y-37084000D03*
%TD*%
D13*
%TO.P,U3,1*%
%TO.N,Net-(Cz1-Pad2)*%
X218694000Y-88138000D03*
D14*
%TO.P,U3,3*%
%TO.N,/OPTO-*%
X218694000Y-90678000D03*
%TO.P,U3,2*%
%TO.N,GND2*%
X218694000Y-89408000D03*
%TD*%
D15*
%TO.P,J1,2*%
%TO.N,GND2*%
X217424000Y-73406000D03*
%TO.P,J1,1*%
%TO.N,/Vout+*%
X247394000Y-73406000D03*
%TD*%
%TO.P,J2,2*%
%TO.N,GND*%
X156718000Y-69850000D03*
%TO.P,J2,1*%
%TO.N,+48V*%
X156718000Y-39880000D03*
%TD*%
%TO.P,Rvdd1,2*%
%TO.N,Net-(D3-Pad1)*%
%TA.AperFunction,SMDPad,CuDef*%
G36*
G01*
X190248250Y-92868000D02*
X189735750Y-92868000D01*
G75*
G02*
X189517000Y-92649250I0J218750D01*
G01*
X189517000Y-92211750D01*
G75*
G02*
X189735750Y-91993000I218750J0D01*
G01*
X190248250Y-91993000D01*
G75*
G02*
X190467000Y-92211750I0J-218750D01*
G01*
X190467000Y-92649250D01*
G75*
G02*
X190248250Y-92868000I-218750J0D01*
G01*
G37*
%TD.AperFunction*%
%TO.P,Rvdd1,1*%
%TO.N,Net-(Cext1-Pad1)*%
%TA.AperFunction,SMDPad,CuDef*%
G36*
G01*
X190248250Y-94443000D02*
X189735750Y-94443000D01*
G75*
G02*
X189517000Y-94224250I0J218750D01*
G01*
X189517000Y-93786750D01*
G75*
G02*
X189735750Y-93568000I218750J0D01*
G01*
X190248250Y-93568000D01*
G75*
G02*
X190467000Y-93786750I0J-218750D01*
G01*
X190467000Y-94224250D01*
G75*
G02*
X190248250Y-94443000I-218750J0D01*
G01*
G37*
%TD.AperFunction*%
%TD*%
%TO.P,RTL1,2*%
%TO.N,/OPTO+*%
%TA.AperFunction,SMDPad,CuDef*%
G36*
G01*
X207142500Y-93977750D02*
X207142500Y-94490250D01*
G75*
G02*
X206923750Y-94709000I-218750J0D01*
G01*
X206486250Y-94709000D01*
G75*
G02*
X206267500Y-94490250I0J218750D01*
G01*
X206267500Y-93977750D01*
G75*
G02*
X206486250Y-93759000I218750J0D01*
G01*
X206923750Y-93759000D01*
G75*
G02*
X207142500Y-93977750I0J-218750D01*
G01*
G37*
%TD.AperFunction*%
%TO.P,RTL1,1*%
%TO.N,/Vout+*%
%TA.AperFunction,SMDPad,CuDef*%
G36*
G01*
X208717500Y-93977750D02*
X208717500Y-94490250D01*
G75*
G02*
X208498750Y-94709000I-218750J0D01*
G01*
X208061250Y-94709000D01*
G75*
G02*
X207842500Y-94490250I0J218750D01*
G01*
X207842500Y-93977750D01*
G75*
G02*
X208061250Y-93759000I218750J0D01*
G01*
X208498750Y-93759000D01*
G75*
G02*
X208717500Y-93977750I0J-218750D01*
G01*
G37*
%TD.AperFunction*%
%TD*%
%TO.P,Ropt1,2*%
%TO.N,/OPTO-*%
%TA.AperFunction,SMDPad,CuDef*%
G36*
G01*
X206499750Y-97124000D02*
X207012250Y-97124000D01*
G75*
G02*
X207231000Y-97342750I0J-218750D01*
G01*
X207231000Y-97780250D01*
G75*
G02*
X207012250Y-97999000I-218750J0D01*
G01*
X206499750Y-97999000D01*
G75*
G02*
X206281000Y-97780250I0J218750D01*
G01*
X206281000Y-97342750D01*
G75*
G02*
X206499750Y-97124000I218750J0D01*
G01*
G37*
%TD.AperFunction*%
%TO.P,Ropt1,1*%
%TO.N,/OPTO+*%
%TA.AperFunction,SMDPad,CuDef*%
G36*
G01*
X206499750Y-95549000D02*
X207012250Y-95549000D01*
G75*
G02*
X207231000Y-95767750I0J-218750D01*
G01*
X207231000Y-96205250D01*
G75*
G02*
X207012250Y-96424000I-218750J0D01*
G01*
X206499750Y-96424000D01*
G75*
G02*
X206281000Y-96205250I0J218750D01*
G01*
X206281000Y-95767750D01*
G75*
G02*
X206499750Y-95549000I218750J0D01*
G01*
G37*
%TD.AperFunction*%
%TD*%
%TO.P,Cext1,2*%
%TO.N,Net-(CFB1-Pad1)*%
%TA.AperFunction,SMDPad,CuDef*%
G36*
G01*
X188973750Y-96362000D02*
X189486250Y-96362000D01*
G75*
G02*
X189705000Y-96580750I0J-218750D01*
G01*
X189705000Y-97018250D01*
G75*
G02*
X189486250Y-97237000I-218750J0D01*
G01*
X188973750Y-97237000D01*
G75*
G02*
X188755000Y-97018250I0J218750D01*
G01*
X188755000Y-96580750D01*
G75*
G02*
X188973750Y-96362000I218750J0D01*
G01*
G37*
%TD.AperFunction*%
%TO.P,Cext1,1*%
%TO.N,Net-(Cext1-Pad1)*%
%TA.AperFunction,SMDPad,CuDef*%
G36*
G01*
X188973750Y-94787000D02*
X189486250Y-94787000D01*
G75*
G02*
X189705000Y-95005750I0J-218750D01*
G01*
X189705000Y-95443250D01*
G75*
G02*
X189486250Y-95662000I-218750J0D01*
G01*
X188973750Y-95662000D01*
G75*
G02*
X188755000Y-95443250I0J218750D01*
G01*
X188755000Y-95005750D01*
G75*
G02*
X188973750Y-94787000I218750J0D01*
G01*
G37*
%TD.AperFunction*%
%TD*%
D16*
%TO.P,D3,2*%
%TO.N,Net-(D3-Pad2)*%
X180404000Y-92456000D03*
%TO.P,D3,1*%
%TO.N,Net-(D3-Pad1)*%
X184404000Y-92456000D03*
%TD*%
D10*
%TO.P,T1,10*%
%TO.N,N/C*%
X211770000Y-52070000D03*
%TO.P,T1,9*%
X211770000Y-47070000D03*
%TO.P,T1,4*%
%TO.N,GND2*%
X211770000Y-42070000D03*
%TO.P,T1,3*%
%TO.N,Net-(D5-Pad1)*%
X211770000Y-37070000D03*
%TO.P,T1,7*%
%TO.N,N/C*%
X211770000Y-32070000D03*
%TO.P,T1,8*%
X191770000Y-32070000D03*
%TO.P,T1,5*%
%TO.N,Net-(D3-Pad2)*%
X191770000Y-37070000D03*
%TO.P,T1,6*%
%TO.N,GND*%
X191770000Y-42070000D03*
%TO.P,T1,1*%
%TO.N,+48V*%
X191770000Y-47070000D03*
%TO.P,T1,2*%
%TO.N,Net-(D1-Pad2)*%
X191770000Y-52070000D03*
%TD*%
D17*
%TO.P,U1,4*%
%TO.N,Net-(Cext1-Pad1)*%
X193040000Y-94234000D03*
%TO.P,U1,2*%
%TO.N,/OPTO-*%
X200660000Y-96774000D03*
%TO.P,U1,3*%
%TO.N,Net-(CFB1-Pad1)*%
X193040000Y-96774000D03*
D18*
%TO.P,U1,1*%
%TO.N,/OPTO+*%
X200660000Y-94234000D03*
%TD*%
D19*
%TO.P,M1,3*%
%TO.N,Net-(M1-Pad3)*%
X191516000Y-81004000D03*
%TO.P,M1,2*%
%TO.N,Net-(M1-Pad2)*%
X191516000Y-75554000D03*
D20*
%TO.P,M1,1*%
%TO.N,Net-(D1-Pad2)*%
X191516000Y-70104000D03*
%TD*%
D21*
%TO.N,Net-(CFB1-Pad1)*%
X187731500Y-96799500D03*
%TO.N,Net-(Cext1-Pad1)*%
X178816000Y-72644000D03*
%TO.N,/OPTO-*%
X214757000Y-92583000D03*
%TO.N,Net-(D3-Pad2)*%
X178816000Y-92456000D03*
X171969500Y-73417500D03*
%TD*%
D22*
%TO.N,Net-(CFB1-Pad1)*%
X189255500Y-96774000D02*
X189230000Y-96799500D01*
X193040000Y-96774000D02*
X191262000Y-96774000D01*
X191262000Y-96774000D02*
X189255500Y-96774000D01*
X189230000Y-96799500D02*
X187731500Y-96799500D01*
X187731500Y-96799500D02*
X187731500Y-96799500D01*
%TO.N,Net-(Cext1-Pad1)*%
X189230000Y-94767500D02*
X189992000Y-94005500D01*
X189230000Y-95224500D02*
X189230000Y-94767500D01*
X190220500Y-94234000D02*
X189992000Y-94005500D01*
X193040000Y-94234000D02*
X190220500Y-94234000D01*
X189992000Y-94005500D02*
X182993498Y-94005500D01*
X182993498Y-94005500D02*
X182104001Y-93116003D01*
X182104001Y-75932001D02*
X178816000Y-72644000D01*
X178816000Y-72644000D02*
X178816000Y-72644000D01*
X182104001Y-93116003D02*
X182104001Y-88632001D01*
X182104001Y-89052003D02*
X182104001Y-88632001D01*
X182104001Y-88632001D02*
X182104001Y-75932001D01*
%TO.N,/Vout+*%
X247394000Y-73406000D02*
X234440000Y-86360000D01*
X212090000Y-86360000D02*
X208280000Y-90170000D01*
X234440000Y-86360000D02*
X212090000Y-86360000D01*
X208280000Y-90170000D02*
X208280000Y-94234000D01*
%TO.N,/OPTO-*%
X201447500Y-97561500D02*
X200660000Y-96774000D01*
X206756000Y-97536000D02*
X201447500Y-97536000D01*
X214757000Y-92583000D02*
X209778500Y-97561500D01*
X209778500Y-97561500D02*
X209575500Y-97561500D01*
X206756000Y-97561500D02*
X209575500Y-97561500D01*
X209575500Y-97561500D02*
X210032500Y-97561500D01*
%TO.N,/OPTO+*%
X206705000Y-95935500D02*
X206756000Y-95986500D01*
X206705000Y-94234000D02*
X206705000Y-95935500D01*
X206705000Y-94234000D02*
X200660000Y-94234000D01*
%TO.N,Net-(D3-Pad2)*%
X180404000Y-92456000D02*
X178816000Y-92456000D01*
X178816000Y-92456000D02*
X178816000Y-92456000D01*
X171969500Y-48984498D02*
X183883998Y-37070000D01*
X183883998Y-37070000D02*
X191770000Y-37070000D01*
X171969500Y-73417500D02*
X171969500Y-48984498D01*
%TO.N,Net-(D3-Pad1)*%
X189966500Y-92456000D02*
X189992000Y-92430500D01*
X184404000Y-92456000D02*
X189966500Y-92456000D01*
%TD*%
M02*
