%TF.GenerationSoftware,KiCad,Pcbnew,(5.1.6)-1*%
%TF.CreationDate,2020-06-23T23:46:23+03:00*%
%TF.ProjectId,flyback,666c7962-6163-46b2-9e6b-696361645f70,rev?*%
%TF.SameCoordinates,Original*%
%TF.FileFunction,Soldermask,Bot*%
%TF.FilePolarity,Negative*%
%FSLAX46Y46*%
G04 Gerber Fmt 4.6, Leading zero omitted, Abs format (unit mm)*
G04 Created by KiCad (PCBNEW (5.1.6)-1) date 2020-06-23 23:46:23*
%MOMM*%
%LPD*%
G01*
G04 APERTURE LIST*
%ADD10C,3.100000*%
%ADD11O,2.100000X2.100000*%
%ADD12R,2.100000X2.100000*%
%ADD13R,1.600000X1.150000*%
%ADD14O,1.600000X1.150000*%
%ADD15C,10.260000*%
%ADD16R,2.600000X1.900000*%
%ADD17O,1.700000X1.700000*%
%ADD18R,1.700000X1.700000*%
%ADD19O,4.600000X2.600000*%
%ADD20R,4.600000X2.600000*%
G04 APERTURE END LIST*
D10*
%TO.C,HS1*%
X192532000Y-84592000D03*
X192532000Y-66792000D03*
%TD*%
D11*
%TO.C,D5*%
X233426000Y-37084000D03*
D12*
X228346000Y-37084000D03*
%TD*%
D13*
%TO.C,U3*%
X218694000Y-88138000D03*
D14*
X218694000Y-90678000D03*
X218694000Y-89408000D03*
%TD*%
D15*
%TO.C,J1*%
X217424000Y-73406000D03*
X247394000Y-73406000D03*
%TD*%
%TO.C,J2*%
X156718000Y-69850000D03*
X156718000Y-39880000D03*
%TD*%
%TO.C,Rvdd1*%
G36*
G01*
X190273250Y-92918000D02*
X189710750Y-92918000D01*
G75*
G02*
X189467000Y-92674250I0J243750D01*
G01*
X189467000Y-92186750D01*
G75*
G02*
X189710750Y-91943000I243750J0D01*
G01*
X190273250Y-91943000D01*
G75*
G02*
X190517000Y-92186750I0J-243750D01*
G01*
X190517000Y-92674250D01*
G75*
G02*
X190273250Y-92918000I-243750J0D01*
G01*
G37*
G36*
G01*
X190273250Y-94493000D02*
X189710750Y-94493000D01*
G75*
G02*
X189467000Y-94249250I0J243750D01*
G01*
X189467000Y-93761750D01*
G75*
G02*
X189710750Y-93518000I243750J0D01*
G01*
X190273250Y-93518000D01*
G75*
G02*
X190517000Y-93761750I0J-243750D01*
G01*
X190517000Y-94249250D01*
G75*
G02*
X190273250Y-94493000I-243750J0D01*
G01*
G37*
%TD*%
%TO.C,RTL1*%
G36*
G01*
X207192500Y-93952750D02*
X207192500Y-94515250D01*
G75*
G02*
X206948750Y-94759000I-243750J0D01*
G01*
X206461250Y-94759000D01*
G75*
G02*
X206217500Y-94515250I0J243750D01*
G01*
X206217500Y-93952750D01*
G75*
G02*
X206461250Y-93709000I243750J0D01*
G01*
X206948750Y-93709000D01*
G75*
G02*
X207192500Y-93952750I0J-243750D01*
G01*
G37*
G36*
G01*
X208767500Y-93952750D02*
X208767500Y-94515250D01*
G75*
G02*
X208523750Y-94759000I-243750J0D01*
G01*
X208036250Y-94759000D01*
G75*
G02*
X207792500Y-94515250I0J243750D01*
G01*
X207792500Y-93952750D01*
G75*
G02*
X208036250Y-93709000I243750J0D01*
G01*
X208523750Y-93709000D01*
G75*
G02*
X208767500Y-93952750I0J-243750D01*
G01*
G37*
%TD*%
%TO.C,Ropt1*%
G36*
G01*
X206474750Y-97074000D02*
X207037250Y-97074000D01*
G75*
G02*
X207281000Y-97317750I0J-243750D01*
G01*
X207281000Y-97805250D01*
G75*
G02*
X207037250Y-98049000I-243750J0D01*
G01*
X206474750Y-98049000D01*
G75*
G02*
X206231000Y-97805250I0J243750D01*
G01*
X206231000Y-97317750D01*
G75*
G02*
X206474750Y-97074000I243750J0D01*
G01*
G37*
G36*
G01*
X206474750Y-95499000D02*
X207037250Y-95499000D01*
G75*
G02*
X207281000Y-95742750I0J-243750D01*
G01*
X207281000Y-96230250D01*
G75*
G02*
X207037250Y-96474000I-243750J0D01*
G01*
X206474750Y-96474000D01*
G75*
G02*
X206231000Y-96230250I0J243750D01*
G01*
X206231000Y-95742750D01*
G75*
G02*
X206474750Y-95499000I243750J0D01*
G01*
G37*
%TD*%
%TO.C,Cext1*%
G36*
G01*
X188948750Y-96312000D02*
X189511250Y-96312000D01*
G75*
G02*
X189755000Y-96555750I0J-243750D01*
G01*
X189755000Y-97043250D01*
G75*
G02*
X189511250Y-97287000I-243750J0D01*
G01*
X188948750Y-97287000D01*
G75*
G02*
X188705000Y-97043250I0J243750D01*
G01*
X188705000Y-96555750D01*
G75*
G02*
X188948750Y-96312000I243750J0D01*
G01*
G37*
G36*
G01*
X188948750Y-94737000D02*
X189511250Y-94737000D01*
G75*
G02*
X189755000Y-94980750I0J-243750D01*
G01*
X189755000Y-95468250D01*
G75*
G02*
X189511250Y-95712000I-243750J0D01*
G01*
X188948750Y-95712000D01*
G75*
G02*
X188705000Y-95468250I0J243750D01*
G01*
X188705000Y-94980750D01*
G75*
G02*
X188948750Y-94737000I243750J0D01*
G01*
G37*
%TD*%
D16*
%TO.C,D3*%
X180404000Y-92456000D03*
X184404000Y-92456000D03*
%TD*%
D10*
%TO.C,T1*%
X211770000Y-52070000D03*
X211770000Y-47070000D03*
X211770000Y-42070000D03*
X211770000Y-37070000D03*
X211770000Y-32070000D03*
X191770000Y-32070000D03*
X191770000Y-37070000D03*
X191770000Y-42070000D03*
X191770000Y-47070000D03*
X191770000Y-52070000D03*
%TD*%
D17*
%TO.C,U1*%
X193040000Y-94234000D03*
X200660000Y-96774000D03*
X193040000Y-96774000D03*
D18*
X200660000Y-94234000D03*
%TD*%
D19*
%TO.C,M1*%
X191516000Y-81004000D03*
X191516000Y-75554000D03*
D20*
X191516000Y-70104000D03*
%TD*%
M02*
