%TF.GenerationSoftware,KiCad,Pcbnew,(5.1.6)-1*%
%TF.CreationDate,2020-06-23T23:46:23+03:00*%
%TF.ProjectId,flyback,666c7962-6163-46b2-9e6b-696361645f70,rev?*%
%TF.SameCoordinates,Original*%
%TF.FileFunction,Legend,Bot*%
%TF.FilePolarity,Positive*%
%FSLAX46Y46*%
G04 Gerber Fmt 4.6, Leading zero omitted, Abs format (unit mm)*
G04 Created by KiCad (PCBNEW (5.1.6)-1) date 2020-06-23 23:46:23*
%MOMM*%
%LPD*%
G01*
G04 APERTURE LIST*
%ADD10C,0.120000*%
%ADD11C,0.150000*%
G04 APERTURE END LIST*
D10*
%TO.C,Rvdd1*%
X190502000Y-93380779D02*
X190502000Y-93055221D01*
X189482000Y-93380779D02*
X189482000Y-93055221D01*
%TO.C,RTL1*%
X207655279Y-93724000D02*
X207329721Y-93724000D01*
X207655279Y-94744000D02*
X207329721Y-94744000D01*
%TO.C,Ropt1*%
X206246000Y-96611221D02*
X206246000Y-96936779D01*
X207266000Y-96611221D02*
X207266000Y-96936779D01*
%TO.C,Cext1*%
X188720000Y-95849221D02*
X188720000Y-96174779D01*
X189740000Y-95849221D02*
X189740000Y-96174779D01*
%TO.C,D3*%
X185804000Y-90806000D02*
X185804000Y-94106000D01*
X185804000Y-94106000D02*
X180404000Y-94106000D01*
X185804000Y-90806000D02*
X180404000Y-90806000D01*
%TO.C,U1*%
X197850000Y-92904000D02*
X199500000Y-92904000D01*
X199500000Y-92904000D02*
X199500000Y-98104000D01*
X199500000Y-98104000D02*
X194200000Y-98104000D01*
X194200000Y-98104000D02*
X194200000Y-92904000D01*
X194200000Y-92904000D02*
X195850000Y-92904000D01*
X195850000Y-92904000D02*
G75*
G03*
X197850000Y-92904000I1000000J0D01*
G01*
%TO.C,Rvdd1*%
D11*
X191874380Y-91765619D02*
X191398190Y-91432285D01*
X191874380Y-91194190D02*
X190874380Y-91194190D01*
X190874380Y-91575142D01*
X190922000Y-91670380D01*
X190969619Y-91718000D01*
X191064857Y-91765619D01*
X191207714Y-91765619D01*
X191302952Y-91718000D01*
X191350571Y-91670380D01*
X191398190Y-91575142D01*
X191398190Y-91194190D01*
X191207714Y-92098952D02*
X191874380Y-92337047D01*
X191207714Y-92575142D01*
X191874380Y-93384666D02*
X190874380Y-93384666D01*
X191826761Y-93384666D02*
X191874380Y-93289428D01*
X191874380Y-93098952D01*
X191826761Y-93003714D01*
X191779142Y-92956095D01*
X191683904Y-92908476D01*
X191398190Y-92908476D01*
X191302952Y-92956095D01*
X191255333Y-93003714D01*
X191207714Y-93098952D01*
X191207714Y-93289428D01*
X191255333Y-93384666D01*
X191874380Y-94289428D02*
X190874380Y-94289428D01*
X191826761Y-94289428D02*
X191874380Y-94194190D01*
X191874380Y-94003714D01*
X191826761Y-93908476D01*
X191779142Y-93860857D01*
X191683904Y-93813238D01*
X191398190Y-93813238D01*
X191302952Y-93860857D01*
X191255333Y-93908476D01*
X191207714Y-94003714D01*
X191207714Y-94194190D01*
X191255333Y-94289428D01*
X191874380Y-95289428D02*
X191874380Y-94718000D01*
X191874380Y-95003714D02*
X190874380Y-95003714D01*
X191017238Y-94908476D01*
X191112476Y-94813238D01*
X191160095Y-94718000D01*
%TO.C,RTL1*%
X208444880Y-93256380D02*
X208778214Y-92780190D01*
X209016309Y-93256380D02*
X209016309Y-92256380D01*
X208635357Y-92256380D01*
X208540119Y-92304000D01*
X208492500Y-92351619D01*
X208444880Y-92446857D01*
X208444880Y-92589714D01*
X208492500Y-92684952D01*
X208540119Y-92732571D01*
X208635357Y-92780190D01*
X209016309Y-92780190D01*
X208159166Y-92256380D02*
X207587738Y-92256380D01*
X207873452Y-93256380D02*
X207873452Y-92256380D01*
X206778214Y-93256380D02*
X207254404Y-93256380D01*
X207254404Y-92256380D01*
X205921071Y-93256380D02*
X206492500Y-93256380D01*
X206206785Y-93256380D02*
X206206785Y-92256380D01*
X206302023Y-92399238D01*
X206397261Y-92494476D01*
X206492500Y-92542095D01*
%TO.C,Ropt1*%
X205778380Y-95416857D02*
X205302190Y-95083523D01*
X205778380Y-94845428D02*
X204778380Y-94845428D01*
X204778380Y-95226380D01*
X204826000Y-95321619D01*
X204873619Y-95369238D01*
X204968857Y-95416857D01*
X205111714Y-95416857D01*
X205206952Y-95369238D01*
X205254571Y-95321619D01*
X205302190Y-95226380D01*
X205302190Y-94845428D01*
X205778380Y-95988285D02*
X205730761Y-95893047D01*
X205683142Y-95845428D01*
X205587904Y-95797809D01*
X205302190Y-95797809D01*
X205206952Y-95845428D01*
X205159333Y-95893047D01*
X205111714Y-95988285D01*
X205111714Y-96131142D01*
X205159333Y-96226380D01*
X205206952Y-96274000D01*
X205302190Y-96321619D01*
X205587904Y-96321619D01*
X205683142Y-96274000D01*
X205730761Y-96226380D01*
X205778380Y-96131142D01*
X205778380Y-95988285D01*
X205111714Y-96750190D02*
X206111714Y-96750190D01*
X205159333Y-96750190D02*
X205111714Y-96845428D01*
X205111714Y-97035904D01*
X205159333Y-97131142D01*
X205206952Y-97178761D01*
X205302190Y-97226380D01*
X205587904Y-97226380D01*
X205683142Y-97178761D01*
X205730761Y-97131142D01*
X205778380Y-97035904D01*
X205778380Y-96845428D01*
X205730761Y-96750190D01*
X205111714Y-97512095D02*
X205111714Y-97893047D01*
X204778380Y-97654952D02*
X205635523Y-97654952D01*
X205730761Y-97702571D01*
X205778380Y-97797809D01*
X205778380Y-97893047D01*
X205778380Y-98750190D02*
X205778380Y-98178761D01*
X205778380Y-98464476D02*
X204778380Y-98464476D01*
X204921238Y-98369238D01*
X205016476Y-98274000D01*
X205064095Y-98178761D01*
%TO.C,Cext1*%
X188157142Y-94726285D02*
X188204761Y-94678666D01*
X188252380Y-94535809D01*
X188252380Y-94440571D01*
X188204761Y-94297714D01*
X188109523Y-94202476D01*
X188014285Y-94154857D01*
X187823809Y-94107238D01*
X187680952Y-94107238D01*
X187490476Y-94154857D01*
X187395238Y-94202476D01*
X187300000Y-94297714D01*
X187252380Y-94440571D01*
X187252380Y-94535809D01*
X187300000Y-94678666D01*
X187347619Y-94726285D01*
X188204761Y-95535809D02*
X188252380Y-95440571D01*
X188252380Y-95250095D01*
X188204761Y-95154857D01*
X188109523Y-95107238D01*
X187728571Y-95107238D01*
X187633333Y-95154857D01*
X187585714Y-95250095D01*
X187585714Y-95440571D01*
X187633333Y-95535809D01*
X187728571Y-95583428D01*
X187823809Y-95583428D01*
X187919047Y-95107238D01*
X188252380Y-95916761D02*
X187585714Y-96440571D01*
X187585714Y-95916761D02*
X188252380Y-96440571D01*
X187585714Y-96678666D02*
X187585714Y-97059619D01*
X187252380Y-96821523D02*
X188109523Y-96821523D01*
X188204761Y-96869142D01*
X188252380Y-96964380D01*
X188252380Y-97059619D01*
X188252380Y-97916761D02*
X188252380Y-97345333D01*
X188252380Y-97631047D02*
X187252380Y-97631047D01*
X187395238Y-97535809D01*
X187490476Y-97440571D01*
X187538095Y-97345333D01*
%TO.C,D3*%
X183142095Y-90408380D02*
X183142095Y-89408380D01*
X182904000Y-89408380D01*
X182761142Y-89456000D01*
X182665904Y-89551238D01*
X182618285Y-89646476D01*
X182570666Y-89836952D01*
X182570666Y-89979809D01*
X182618285Y-90170285D01*
X182665904Y-90265523D01*
X182761142Y-90360761D01*
X182904000Y-90408380D01*
X183142095Y-90408380D01*
X182237333Y-89408380D02*
X181618285Y-89408380D01*
X181951619Y-89789333D01*
X181808761Y-89789333D01*
X181713523Y-89836952D01*
X181665904Y-89884571D01*
X181618285Y-89979809D01*
X181618285Y-90217904D01*
X181665904Y-90313142D01*
X181713523Y-90360761D01*
X181808761Y-90408380D01*
X182094476Y-90408380D01*
X182189714Y-90360761D01*
X182237333Y-90313142D01*
%TO.C,U1*%
X197611904Y-91356380D02*
X197611904Y-92165904D01*
X197564285Y-92261142D01*
X197516666Y-92308761D01*
X197421428Y-92356380D01*
X197230952Y-92356380D01*
X197135714Y-92308761D01*
X197088095Y-92261142D01*
X197040476Y-92165904D01*
X197040476Y-91356380D01*
X196040476Y-92356380D02*
X196611904Y-92356380D01*
X196326190Y-92356380D02*
X196326190Y-91356380D01*
X196421428Y-91499238D01*
X196516666Y-91594476D01*
X196611904Y-91642095D01*
%TD*%
M02*
