%TF.GenerationSoftware,KiCad,Pcbnew,(5.1.6)-1*%
%TF.CreationDate,2020-06-23T23:46:23+03:00*%
%TF.ProjectId,flyback,666c7962-6163-46b2-9e6b-696361645f70,rev?*%
%TF.SameCoordinates,Original*%
%TF.FileFunction,Paste,Top*%
%TF.FilePolarity,Positive*%
%FSLAX46Y46*%
G04 Gerber Fmt 4.6, Leading zero omitted, Abs format (unit mm)*
G04 Created by KiCad (PCBNEW (5.1.6)-1) date 2020-06-23 23:46:23*
%MOMM*%
%LPD*%
G01*
G04 APERTURE LIST*
%ADD10R,2.300000X2.500000*%
%ADD11R,3.500000X2.300000*%
%ADD12R,1.550000X0.600000*%
G04 APERTURE END LIST*
%TO.C,C1*%
G36*
G01*
X196406000Y-96601500D02*
X196406000Y-96946500D01*
G75*
G02*
X196258500Y-97094000I-147500J0D01*
G01*
X195963500Y-97094000D01*
G75*
G02*
X195816000Y-96946500I0J147500D01*
G01*
X195816000Y-96601500D01*
G75*
G02*
X195963500Y-96454000I147500J0D01*
G01*
X196258500Y-96454000D01*
G75*
G02*
X196406000Y-96601500I0J-147500D01*
G01*
G37*
G36*
G01*
X197376000Y-96601500D02*
X197376000Y-96946500D01*
G75*
G02*
X197228500Y-97094000I-147500J0D01*
G01*
X196933500Y-97094000D01*
G75*
G02*
X196786000Y-96946500I0J147500D01*
G01*
X196786000Y-96601500D01*
G75*
G02*
X196933500Y-96454000I147500J0D01*
G01*
X197228500Y-96454000D01*
G75*
G02*
X197376000Y-96601500I0J-147500D01*
G01*
G37*
%TD*%
%TO.C,RVS1*%
G36*
G01*
X172656000Y-73578500D02*
X172656000Y-73233500D01*
G75*
G02*
X172803500Y-73086000I147500J0D01*
G01*
X173098500Y-73086000D01*
G75*
G02*
X173246000Y-73233500I0J-147500D01*
G01*
X173246000Y-73578500D01*
G75*
G02*
X173098500Y-73726000I-147500J0D01*
G01*
X172803500Y-73726000D01*
G75*
G02*
X172656000Y-73578500I0J147500D01*
G01*
G37*
G36*
G01*
X171686000Y-73578500D02*
X171686000Y-73233500D01*
G75*
G02*
X171833500Y-73086000I147500J0D01*
G01*
X172128500Y-73086000D01*
G75*
G02*
X172276000Y-73233500I0J-147500D01*
G01*
X172276000Y-73578500D01*
G75*
G02*
X172128500Y-73726000I-147500J0D01*
G01*
X171833500Y-73726000D01*
G75*
G02*
X171686000Y-73578500I0J147500D01*
G01*
G37*
%TD*%
%TO.C,RLC1*%
G36*
G01*
X185418000Y-76154500D02*
X185418000Y-76499500D01*
G75*
G02*
X185270500Y-76647000I-147500J0D01*
G01*
X184975500Y-76647000D01*
G75*
G02*
X184828000Y-76499500I0J147500D01*
G01*
X184828000Y-76154500D01*
G75*
G02*
X184975500Y-76007000I147500J0D01*
G01*
X185270500Y-76007000D01*
G75*
G02*
X185418000Y-76154500I0J-147500D01*
G01*
G37*
G36*
G01*
X186388000Y-76154500D02*
X186388000Y-76499500D01*
G75*
G02*
X186240500Y-76647000I-147500J0D01*
G01*
X185945500Y-76647000D01*
G75*
G02*
X185798000Y-76499500I0J147500D01*
G01*
X185798000Y-76154500D01*
G75*
G02*
X185945500Y-76007000I147500J0D01*
G01*
X186240500Y-76007000D01*
G75*
G02*
X186388000Y-76154500I0J-147500D01*
G01*
G37*
%TD*%
%TO.C,RFB3*%
G36*
G01*
X172892500Y-75502000D02*
X172547500Y-75502000D01*
G75*
G02*
X172400000Y-75354500I0J147500D01*
G01*
X172400000Y-75059500D01*
G75*
G02*
X172547500Y-74912000I147500J0D01*
G01*
X172892500Y-74912000D01*
G75*
G02*
X173040000Y-75059500I0J-147500D01*
G01*
X173040000Y-75354500D01*
G75*
G02*
X172892500Y-75502000I-147500J0D01*
G01*
G37*
G36*
G01*
X172892500Y-76472000D02*
X172547500Y-76472000D01*
G75*
G02*
X172400000Y-76324500I0J147500D01*
G01*
X172400000Y-76029500D01*
G75*
G02*
X172547500Y-75882000I147500J0D01*
G01*
X172892500Y-75882000D01*
G75*
G02*
X173040000Y-76029500I0J-147500D01*
G01*
X173040000Y-76324500D01*
G75*
G02*
X172892500Y-76472000I-147500J0D01*
G01*
G37*
%TD*%
%TO.C,Cout1*%
G36*
G01*
X229775000Y-52975000D02*
X229775000Y-54975000D01*
G75*
G02*
X229525000Y-55225000I-250000J0D01*
G01*
X226025000Y-55225000D01*
G75*
G02*
X225775000Y-54975000I0J250000D01*
G01*
X225775000Y-52975000D01*
G75*
G02*
X226025000Y-52725000I250000J0D01*
G01*
X229525000Y-52725000D01*
G75*
G02*
X229775000Y-52975000I0J-250000D01*
G01*
G37*
G36*
G01*
X237775000Y-52975000D02*
X237775000Y-54975000D01*
G75*
G02*
X237525000Y-55225000I-250000J0D01*
G01*
X234025000Y-55225000D01*
G75*
G02*
X233775000Y-54975000I0J250000D01*
G01*
X233775000Y-52975000D01*
G75*
G02*
X234025000Y-52725000I250000J0D01*
G01*
X237525000Y-52725000D01*
G75*
G02*
X237775000Y-52975000I0J-250000D01*
G01*
G37*
%TD*%
D10*
%TO.C,Dclamp1*%
X173736000Y-40014000D03*
X173736000Y-44314000D03*
%TD*%
D11*
%TO.C,D1*%
X182880000Y-52324000D03*
X177480000Y-52324000D03*
%TD*%
%TO.C,RFB2*%
G36*
G01*
X227327750Y-87421000D02*
X227840250Y-87421000D01*
G75*
G02*
X228059000Y-87639750I0J-218750D01*
G01*
X228059000Y-88077250D01*
G75*
G02*
X227840250Y-88296000I-218750J0D01*
G01*
X227327750Y-88296000D01*
G75*
G02*
X227109000Y-88077250I0J218750D01*
G01*
X227109000Y-87639750D01*
G75*
G02*
X227327750Y-87421000I218750J0D01*
G01*
G37*
G36*
G01*
X227327750Y-88996000D02*
X227840250Y-88996000D01*
G75*
G02*
X228059000Y-89214750I0J-218750D01*
G01*
X228059000Y-89652250D01*
G75*
G02*
X227840250Y-89871000I-218750J0D01*
G01*
X227327750Y-89871000D01*
G75*
G02*
X227109000Y-89652250I0J218750D01*
G01*
X227109000Y-89214750D01*
G75*
G02*
X227327750Y-88996000I218750J0D01*
G01*
G37*
%TD*%
%TO.C,RFB1*%
G36*
G01*
X230375750Y-85897000D02*
X230888250Y-85897000D01*
G75*
G02*
X231107000Y-86115750I0J-218750D01*
G01*
X231107000Y-86553250D01*
G75*
G02*
X230888250Y-86772000I-218750J0D01*
G01*
X230375750Y-86772000D01*
G75*
G02*
X230157000Y-86553250I0J218750D01*
G01*
X230157000Y-86115750D01*
G75*
G02*
X230375750Y-85897000I218750J0D01*
G01*
G37*
G36*
G01*
X230375750Y-87472000D02*
X230888250Y-87472000D01*
G75*
G02*
X231107000Y-87690750I0J-218750D01*
G01*
X231107000Y-88128250D01*
G75*
G02*
X230888250Y-88347000I-218750J0D01*
G01*
X230375750Y-88347000D01*
G75*
G02*
X230157000Y-88128250I0J218750D01*
G01*
X230157000Y-87690750D01*
G75*
G02*
X230375750Y-87472000I218750J0D01*
G01*
G37*
%TD*%
%TO.C,RFB4*%
G36*
G01*
X175341500Y-75882000D02*
X175686500Y-75882000D01*
G75*
G02*
X175834000Y-76029500I0J-147500D01*
G01*
X175834000Y-76324500D01*
G75*
G02*
X175686500Y-76472000I-147500J0D01*
G01*
X175341500Y-76472000D01*
G75*
G02*
X175194000Y-76324500I0J147500D01*
G01*
X175194000Y-76029500D01*
G75*
G02*
X175341500Y-75882000I147500J0D01*
G01*
G37*
G36*
G01*
X175341500Y-74912000D02*
X175686500Y-74912000D01*
G75*
G02*
X175834000Y-75059500I0J-147500D01*
G01*
X175834000Y-75354500D01*
G75*
G02*
X175686500Y-75502000I-147500J0D01*
G01*
X175341500Y-75502000D01*
G75*
G02*
X175194000Y-75354500I0J147500D01*
G01*
X175194000Y-75059500D01*
G75*
G02*
X175341500Y-74912000I147500J0D01*
G01*
G37*
%TD*%
%TO.C,RVS2*%
G36*
G01*
X173987750Y-75534000D02*
X174500250Y-75534000D01*
G75*
G02*
X174719000Y-75752750I0J-218750D01*
G01*
X174719000Y-76190250D01*
G75*
G02*
X174500250Y-76409000I-218750J0D01*
G01*
X173987750Y-76409000D01*
G75*
G02*
X173769000Y-76190250I0J218750D01*
G01*
X173769000Y-75752750D01*
G75*
G02*
X173987750Y-75534000I218750J0D01*
G01*
G37*
G36*
G01*
X173987750Y-73959000D02*
X174500250Y-73959000D01*
G75*
G02*
X174719000Y-74177750I0J-218750D01*
G01*
X174719000Y-74615250D01*
G75*
G02*
X174500250Y-74834000I-218750J0D01*
G01*
X173987750Y-74834000D01*
G75*
G02*
X173769000Y-74615250I0J218750D01*
G01*
X173769000Y-74177750D01*
G75*
G02*
X173987750Y-73959000I218750J0D01*
G01*
G37*
%TD*%
%TO.C,CFB1*%
G36*
G01*
X171622500Y-75733000D02*
X171277500Y-75733000D01*
G75*
G02*
X171130000Y-75585500I0J147500D01*
G01*
X171130000Y-75290500D01*
G75*
G02*
X171277500Y-75143000I147500J0D01*
G01*
X171622500Y-75143000D01*
G75*
G02*
X171770000Y-75290500I0J-147500D01*
G01*
X171770000Y-75585500D01*
G75*
G02*
X171622500Y-75733000I-147500J0D01*
G01*
G37*
G36*
G01*
X171622500Y-76703000D02*
X171277500Y-76703000D01*
G75*
G02*
X171130000Y-76555500I0J147500D01*
G01*
X171130000Y-76260500D01*
G75*
G02*
X171277500Y-76113000I147500J0D01*
G01*
X171622500Y-76113000D01*
G75*
G02*
X171770000Y-76260500I0J-147500D01*
G01*
X171770000Y-76555500D01*
G75*
G02*
X171622500Y-76703000I-147500J0D01*
G01*
G37*
%TD*%
D12*
%TO.C,U2*%
X183040000Y-72517000D03*
X183040000Y-75057000D03*
X183040000Y-76327000D03*
X177640000Y-76327000D03*
X177640000Y-75057000D03*
X177640000Y-73787000D03*
X177640000Y-72517000D03*
%TD*%
%TO.C,RCS1*%
G36*
G01*
X185484000Y-79075500D02*
X185484000Y-79420500D01*
G75*
G02*
X185336500Y-79568000I-147500J0D01*
G01*
X185041500Y-79568000D01*
G75*
G02*
X184894000Y-79420500I0J147500D01*
G01*
X184894000Y-79075500D01*
G75*
G02*
X185041500Y-78928000I147500J0D01*
G01*
X185336500Y-78928000D01*
G75*
G02*
X185484000Y-79075500I0J-147500D01*
G01*
G37*
G36*
G01*
X186454000Y-79075500D02*
X186454000Y-79420500D01*
G75*
G02*
X186306500Y-79568000I-147500J0D01*
G01*
X186011500Y-79568000D01*
G75*
G02*
X185864000Y-79420500I0J147500D01*
G01*
X185864000Y-79075500D01*
G75*
G02*
X186011500Y-78928000I147500J0D01*
G01*
X186306500Y-78928000D01*
G75*
G02*
X186454000Y-79075500I0J-147500D01*
G01*
G37*
%TD*%
%TO.C,Cz1*%
G36*
G01*
X223855500Y-86827000D02*
X224200500Y-86827000D01*
G75*
G02*
X224348000Y-86974500I0J-147500D01*
G01*
X224348000Y-87269500D01*
G75*
G02*
X224200500Y-87417000I-147500J0D01*
G01*
X223855500Y-87417000D01*
G75*
G02*
X223708000Y-87269500I0J147500D01*
G01*
X223708000Y-86974500D01*
G75*
G02*
X223855500Y-86827000I147500J0D01*
G01*
G37*
G36*
G01*
X223855500Y-87797000D02*
X224200500Y-87797000D01*
G75*
G02*
X224348000Y-87944500I0J-147500D01*
G01*
X224348000Y-88239500D01*
G75*
G02*
X224200500Y-88387000I-147500J0D01*
G01*
X223855500Y-88387000D01*
G75*
G02*
X223708000Y-88239500I0J147500D01*
G01*
X223708000Y-87944500D01*
G75*
G02*
X223855500Y-87797000I147500J0D01*
G01*
G37*
%TD*%
%TO.C,Cvdd1*%
G36*
G01*
X175070000Y-72471500D02*
X175070000Y-72816500D01*
G75*
G02*
X174922500Y-72964000I-147500J0D01*
G01*
X174627500Y-72964000D01*
G75*
G02*
X174480000Y-72816500I0J147500D01*
G01*
X174480000Y-72471500D01*
G75*
G02*
X174627500Y-72324000I147500J0D01*
G01*
X174922500Y-72324000D01*
G75*
G02*
X175070000Y-72471500I0J-147500D01*
G01*
G37*
G36*
G01*
X176040000Y-72471500D02*
X176040000Y-72816500D01*
G75*
G02*
X175892500Y-72964000I-147500J0D01*
G01*
X175597500Y-72964000D01*
G75*
G02*
X175450000Y-72816500I0J147500D01*
G01*
X175450000Y-72471500D01*
G75*
G02*
X175597500Y-72324000I147500J0D01*
G01*
X175892500Y-72324000D01*
G75*
G02*
X176040000Y-72471500I0J-147500D01*
G01*
G37*
%TD*%
%TO.C,Css431*%
G36*
G01*
X224200500Y-90719000D02*
X223855500Y-90719000D01*
G75*
G02*
X223708000Y-90571500I0J147500D01*
G01*
X223708000Y-90276500D01*
G75*
G02*
X223855500Y-90129000I147500J0D01*
G01*
X224200500Y-90129000D01*
G75*
G02*
X224348000Y-90276500I0J-147500D01*
G01*
X224348000Y-90571500D01*
G75*
G02*
X224200500Y-90719000I-147500J0D01*
G01*
G37*
G36*
G01*
X224200500Y-89749000D02*
X223855500Y-89749000D01*
G75*
G02*
X223708000Y-89601500I0J147500D01*
G01*
X223708000Y-89306500D01*
G75*
G02*
X223855500Y-89159000I147500J0D01*
G01*
X224200500Y-89159000D01*
G75*
G02*
X224348000Y-89306500I0J-147500D01*
G01*
X224348000Y-89601500D01*
G75*
G02*
X224200500Y-89749000I-147500J0D01*
G01*
G37*
%TD*%
%TO.C,Ccs1*%
G36*
G01*
X181166000Y-78313500D02*
X181166000Y-78658500D01*
G75*
G02*
X181018500Y-78806000I-147500J0D01*
G01*
X180723500Y-78806000D01*
G75*
G02*
X180576000Y-78658500I0J147500D01*
G01*
X180576000Y-78313500D01*
G75*
G02*
X180723500Y-78166000I147500J0D01*
G01*
X181018500Y-78166000D01*
G75*
G02*
X181166000Y-78313500I0J-147500D01*
G01*
G37*
G36*
G01*
X182136000Y-78313500D02*
X182136000Y-78658500D01*
G75*
G02*
X181988500Y-78806000I-147500J0D01*
G01*
X181693500Y-78806000D01*
G75*
G02*
X181546000Y-78658500I0J147500D01*
G01*
X181546000Y-78313500D01*
G75*
G02*
X181693500Y-78166000I147500J0D01*
G01*
X181988500Y-78166000D01*
G75*
G02*
X182136000Y-78313500I0J-147500D01*
G01*
G37*
%TD*%
M02*
