M48
; DRILL file {KiCad (5.1.6)-1} date 06/23/20 23:46:27
; FORMAT={-:-/ absolute / inch / decimal}
; #@! TF.CreationDate,2020-06-23T23:46:27+03:00
; #@! TF.GenerationSoftware,Kicad,Pcbnew,(5.1.6)-1
FMAT,2
INCH
T1C0.0157
T2C0.0295
T3C0.0315
T4C0.0433
T5C0.0591
T6C0.2402
%
G90
G05
T1
X6.7705Y-2.8905
X7.04Y-2.86
X7.04Y-3.64
X7.391Y-3.811
X8.455Y-3.645
T2
X8.61Y-3.47
X8.61Y-3.52
X8.61Y-3.57
T3
X7.6Y-3.71
X7.6Y-3.81
X7.9Y-3.71
X7.9Y-3.81
T4
X8.99Y-1.46
X9.19Y-1.46
T5
X7.55Y-1.2626
X7.55Y-1.4594
X7.55Y-1.6563
X7.55Y-1.8531
X7.55Y-2.05
X8.3374Y-1.2626
X8.3374Y-1.4594
X8.3374Y-1.6563
X8.3374Y-1.8531
X8.3374Y-2.05
X7.54Y-2.76
X7.54Y-2.9746
X7.54Y-3.1891
X7.58Y-2.6296
X7.58Y-3.3304
T6
X6.17Y-1.5701
X6.17Y-2.75
X8.56Y-2.89
X9.7399Y-2.89
T0
M30
