%TF.GenerationSoftware,KiCad,Pcbnew,(5.1.6)-1*%
%TF.CreationDate,2020-06-23T23:46:23+03:00*%
%TF.ProjectId,flyback,666c7962-6163-46b2-9e6b-696361645f70,rev?*%
%TF.SameCoordinates,Original*%
%TF.FileFunction,Legend,Top*%
%TF.FilePolarity,Positive*%
%FSLAX46Y46*%
G04 Gerber Fmt 4.6, Leading zero omitted, Abs format (unit mm)*
G04 Created by KiCad (PCBNEW (5.1.6)-1) date 2020-06-23 23:46:23*
%MOMM*%
%LPD*%
G01*
G04 APERTURE LIST*
%ADD10C,0.150000*%
%ADD11C,0.120000*%
%ADD12C,0.300000*%
G04 APERTURE END LIST*
D10*
X152043428Y-46363142D02*
X153043428Y-49363142D01*
X154043428Y-46363142D01*
X155043428Y-49363142D02*
X155043428Y-47363142D01*
X155043428Y-46363142D02*
X154900571Y-46506000D01*
X155043428Y-46648857D01*
X155186285Y-46506000D01*
X155043428Y-46363142D01*
X155043428Y-46648857D01*
X156472000Y-47363142D02*
X156472000Y-49363142D01*
X156472000Y-47648857D02*
X156614857Y-47506000D01*
X156900571Y-47363142D01*
X157329142Y-47363142D01*
X157614857Y-47506000D01*
X157757714Y-47791714D01*
X157757714Y-49363142D01*
X159186285Y-48220285D02*
X161472000Y-48220285D01*
X160329142Y-49363142D02*
X160329142Y-47077428D01*
D11*
X196596000Y-99568000D02*
X196596000Y-89916000D01*
X197104000Y-99568000D02*
X196596000Y-99568000D01*
X197104000Y-89916000D02*
X197104000Y-99568000D01*
X196596000Y-89916000D02*
X197104000Y-89916000D01*
D10*
X233529714Y-72017142D02*
X234529714Y-75017142D01*
X235529714Y-72017142D01*
X236958285Y-75017142D02*
X236672571Y-74874285D01*
X236529714Y-74731428D01*
X236386857Y-74445714D01*
X236386857Y-73588571D01*
X236529714Y-73302857D01*
X236672571Y-73160000D01*
X236958285Y-73017142D01*
X237386857Y-73017142D01*
X237672571Y-73160000D01*
X237815428Y-73302857D01*
X237958285Y-73588571D01*
X237958285Y-74445714D01*
X237815428Y-74731428D01*
X237672571Y-74874285D01*
X237386857Y-75017142D01*
X236958285Y-75017142D01*
X239244000Y-73874285D02*
X241529714Y-73874285D01*
X240386857Y-75017142D02*
X240386857Y-72731428D01*
X223115714Y-72017142D02*
X224115714Y-75017142D01*
X225115714Y-72017142D01*
X226544285Y-75017142D02*
X226258571Y-74874285D01*
X226115714Y-74731428D01*
X225972857Y-74445714D01*
X225972857Y-73588571D01*
X226115714Y-73302857D01*
X226258571Y-73160000D01*
X226544285Y-73017142D01*
X226972857Y-73017142D01*
X227258571Y-73160000D01*
X227401428Y-73302857D01*
X227544285Y-73588571D01*
X227544285Y-74445714D01*
X227401428Y-74731428D01*
X227258571Y-74874285D01*
X226972857Y-75017142D01*
X226544285Y-75017142D01*
X228830000Y-73874285D02*
X231115714Y-73874285D01*
D12*
X233482857Y-98952857D02*
X233982857Y-98952857D01*
X234197142Y-99738571D02*
X233482857Y-99738571D01*
X233482857Y-98238571D01*
X234197142Y-98238571D01*
X234839999Y-98952857D02*
X235339999Y-98952857D01*
X235554285Y-99738571D02*
X234839999Y-99738571D01*
X234839999Y-98238571D01*
X235554285Y-98238571D01*
X236839999Y-98738571D02*
X236839999Y-99738571D01*
X236482857Y-98167142D02*
X236125714Y-99238571D01*
X237054285Y-99238571D01*
X238268571Y-98238571D02*
X237982857Y-98238571D01*
X237839999Y-98310000D01*
X237768571Y-98381428D01*
X237625714Y-98595714D01*
X237554285Y-98881428D01*
X237554285Y-99452857D01*
X237625714Y-99595714D01*
X237697142Y-99667142D01*
X237839999Y-99738571D01*
X238125714Y-99738571D01*
X238268571Y-99667142D01*
X238339999Y-99595714D01*
X238411428Y-99452857D01*
X238411428Y-99095714D01*
X238339999Y-98952857D01*
X238268571Y-98881428D01*
X238125714Y-98810000D01*
X237839999Y-98810000D01*
X237697142Y-98881428D01*
X237625714Y-98952857D01*
X237554285Y-99095714D01*
X239697142Y-98738571D02*
X239697142Y-99738571D01*
X239339999Y-98167142D02*
X238982857Y-99238571D01*
X239911428Y-99238571D01*
X241625714Y-99167142D02*
X242768571Y-99167142D01*
X244554285Y-99667142D02*
X244768571Y-99738571D01*
X245125714Y-99738571D01*
X245268571Y-99667142D01*
X245339999Y-99595714D01*
X245411428Y-99452857D01*
X245411428Y-99310000D01*
X245339999Y-99167142D01*
X245268571Y-99095714D01*
X245125714Y-99024285D01*
X244839999Y-98952857D01*
X244697142Y-98881428D01*
X244625714Y-98810000D01*
X244554285Y-98667142D01*
X244554285Y-98524285D01*
X244625714Y-98381428D01*
X244697142Y-98310000D01*
X244839999Y-98238571D01*
X245197142Y-98238571D01*
X245411428Y-98310000D01*
X244982857Y-99810000D02*
X245125714Y-99881428D01*
X245197142Y-100024285D01*
X245125714Y-100167142D01*
X244982857Y-100238571D01*
X244768571Y-100238571D01*
X246268571Y-99738571D02*
X246125714Y-99667142D01*
X246054285Y-99595714D01*
X245982857Y-99452857D01*
X245982857Y-99024285D01*
X246054285Y-98881428D01*
X246125714Y-98810000D01*
X246268571Y-98738571D01*
X246482857Y-98738571D01*
X246625714Y-98810000D01*
X246697142Y-98881428D01*
X246768571Y-99024285D01*
X246768571Y-99452857D01*
X246697142Y-99595714D01*
X246625714Y-99667142D01*
X246482857Y-99738571D01*
X246268571Y-99738571D01*
X246125714Y-98238571D02*
X246197142Y-98310000D01*
X246125714Y-98381428D01*
X246054285Y-98310000D01*
X246125714Y-98238571D01*
X246125714Y-98381428D01*
X246697142Y-98238571D02*
X246768571Y-98310000D01*
X246697142Y-98381428D01*
X246625714Y-98310000D01*
X246697142Y-98238571D01*
X246697142Y-98381428D01*
X247411428Y-98738571D02*
X247411428Y-99738571D01*
X247411428Y-98881428D02*
X247482857Y-98810000D01*
X247625714Y-98738571D01*
X247839999Y-98738571D01*
X247982857Y-98810000D01*
X248054285Y-98952857D01*
X248054285Y-99738571D01*
X248554285Y-98738571D02*
X249125714Y-98738571D01*
X248768571Y-98238571D02*
X248768571Y-99524285D01*
X248839999Y-99667142D01*
X248982857Y-99738571D01*
X249125714Y-99738571D01*
X250697142Y-99310000D02*
X251411428Y-99310000D01*
X250554285Y-99738571D02*
X251054285Y-98238571D01*
X251554285Y-99738571D01*
X252054285Y-99595714D02*
X252125714Y-99667142D01*
X252054285Y-99738571D01*
X251982857Y-99667142D01*
X252054285Y-99595714D01*
X252054285Y-99738571D01*
X252697142Y-99667142D02*
X252911428Y-99738571D01*
X253268571Y-99738571D01*
X253411428Y-99667142D01*
X253482857Y-99595714D01*
X253554285Y-99452857D01*
X253554285Y-99310000D01*
X253482857Y-99167142D01*
X253411428Y-99095714D01*
X253268571Y-99024285D01*
X252982857Y-98952857D01*
X252839999Y-98881428D01*
X252768571Y-98810000D01*
X252697142Y-98667142D01*
X252697142Y-98524285D01*
X252768571Y-98381428D01*
X252839999Y-98310000D01*
X252982857Y-98238571D01*
X253339999Y-98238571D01*
X253554285Y-98310000D01*
X253125714Y-99810000D02*
X253268571Y-99881428D01*
X253339999Y-100024285D01*
X253268571Y-100167142D01*
X253125714Y-100238571D01*
X252911428Y-100238571D01*
X254197142Y-99595714D02*
X254268571Y-99667142D01*
X254197142Y-99738571D01*
X254125714Y-99667142D01*
X254197142Y-99595714D01*
X254197142Y-99738571D01*
X140610000Y-93862857D02*
X140110000Y-93862857D01*
X140110000Y-94648571D02*
X140110000Y-93148571D01*
X140824285Y-93148571D01*
X141610000Y-94648571D02*
X141467142Y-94577142D01*
X141395714Y-94434285D01*
X141395714Y-93148571D01*
X142038571Y-93648571D02*
X142395714Y-94648571D01*
X142752857Y-93648571D02*
X142395714Y-94648571D01*
X142252857Y-95005714D01*
X142181428Y-95077142D01*
X142038571Y-95148571D01*
X143324285Y-94648571D02*
X143324285Y-93148571D01*
X143324285Y-93720000D02*
X143467142Y-93648571D01*
X143752857Y-93648571D01*
X143895714Y-93720000D01*
X143967142Y-93791428D01*
X144038571Y-93934285D01*
X144038571Y-94362857D01*
X143967142Y-94505714D01*
X143895714Y-94577142D01*
X143752857Y-94648571D01*
X143467142Y-94648571D01*
X143324285Y-94577142D01*
X145324285Y-94648571D02*
X145324285Y-93862857D01*
X145252857Y-93720000D01*
X145110000Y-93648571D01*
X144824285Y-93648571D01*
X144681428Y-93720000D01*
X145324285Y-94577142D02*
X145181428Y-94648571D01*
X144824285Y-94648571D01*
X144681428Y-94577142D01*
X144610000Y-94434285D01*
X144610000Y-94291428D01*
X144681428Y-94148571D01*
X144824285Y-94077142D01*
X145181428Y-94077142D01*
X145324285Y-94005714D01*
X146681428Y-94577142D02*
X146538571Y-94648571D01*
X146252857Y-94648571D01*
X146110000Y-94577142D01*
X146038571Y-94505714D01*
X145967142Y-94362857D01*
X145967142Y-93934285D01*
X146038571Y-93791428D01*
X146110000Y-93720000D01*
X146252857Y-93648571D01*
X146538571Y-93648571D01*
X146681428Y-93720000D01*
X147324285Y-94648571D02*
X147324285Y-93148571D01*
X147467142Y-94077142D02*
X147895714Y-94648571D01*
X147895714Y-93648571D02*
X147324285Y-94220000D01*
X150538571Y-94505714D02*
X150467142Y-94577142D01*
X150252857Y-94648571D01*
X150110000Y-94648571D01*
X149895714Y-94577142D01*
X149752857Y-94434285D01*
X149681428Y-94291428D01*
X149610000Y-94005714D01*
X149610000Y-93791428D01*
X149681428Y-93505714D01*
X149752857Y-93362857D01*
X149895714Y-93220000D01*
X150110000Y-93148571D01*
X150252857Y-93148571D01*
X150467142Y-93220000D01*
X150538571Y-93291428D01*
X151395714Y-94648571D02*
X151252857Y-94577142D01*
X151181428Y-94505714D01*
X151110000Y-94362857D01*
X151110000Y-93934285D01*
X151181428Y-93791428D01*
X151252857Y-93720000D01*
X151395714Y-93648571D01*
X151610000Y-93648571D01*
X151752857Y-93720000D01*
X151824285Y-93791428D01*
X151895714Y-93934285D01*
X151895714Y-94362857D01*
X151824285Y-94505714D01*
X151752857Y-94577142D01*
X151610000Y-94648571D01*
X151395714Y-94648571D01*
X152538571Y-93648571D02*
X152538571Y-94648571D01*
X152538571Y-93791428D02*
X152610000Y-93720000D01*
X152752857Y-93648571D01*
X152967142Y-93648571D01*
X153110000Y-93720000D01*
X153181428Y-93862857D01*
X153181428Y-94648571D01*
X153752857Y-93648571D02*
X154110000Y-94648571D01*
X154467142Y-93648571D01*
X155610000Y-94577142D02*
X155467142Y-94648571D01*
X155181428Y-94648571D01*
X155038571Y-94577142D01*
X154967142Y-94434285D01*
X154967142Y-93862857D01*
X155038571Y-93720000D01*
X155181428Y-93648571D01*
X155467142Y-93648571D01*
X155610000Y-93720000D01*
X155681428Y-93862857D01*
X155681428Y-94005714D01*
X154967142Y-94148571D01*
X156324285Y-94648571D02*
X156324285Y-93648571D01*
X156324285Y-93934285D02*
X156395714Y-93791428D01*
X156467142Y-93720000D01*
X156610000Y-93648571D01*
X156752857Y-93648571D01*
X157038571Y-93648571D02*
X157610000Y-93648571D01*
X157252857Y-93148571D02*
X157252857Y-94434285D01*
X157324285Y-94577142D01*
X157467142Y-94648571D01*
X157610000Y-94648571D01*
X158681428Y-94577142D02*
X158538571Y-94648571D01*
X158252857Y-94648571D01*
X158110000Y-94577142D01*
X158038571Y-94434285D01*
X158038571Y-93862857D01*
X158110000Y-93720000D01*
X158252857Y-93648571D01*
X158538571Y-93648571D01*
X158681428Y-93720000D01*
X158752857Y-93862857D01*
X158752857Y-94005714D01*
X158038571Y-94148571D01*
X159395714Y-94648571D02*
X159395714Y-93648571D01*
X159395714Y-93934285D02*
X159467142Y-93791428D01*
X159538571Y-93720000D01*
X159681428Y-93648571D01*
X159824285Y-93648571D01*
X140895714Y-95698571D02*
X141395714Y-97198571D01*
X141895714Y-95698571D01*
X142395714Y-97198571D02*
X142395714Y-96198571D01*
X142395714Y-95698571D02*
X142324285Y-95770000D01*
X142395714Y-95841428D01*
X142467142Y-95770000D01*
X142395714Y-95698571D01*
X142395714Y-95841428D01*
X143110000Y-96198571D02*
X143110000Y-97198571D01*
X143110000Y-96341428D02*
X143181428Y-96270000D01*
X143324285Y-96198571D01*
X143538571Y-96198571D01*
X143681428Y-96270000D01*
X143752857Y-96412857D01*
X143752857Y-97198571D01*
X144467142Y-97055714D02*
X144538571Y-97127142D01*
X144467142Y-97198571D01*
X144395714Y-97127142D01*
X144467142Y-97055714D01*
X144467142Y-97198571D01*
X144467142Y-96270000D02*
X144538571Y-96341428D01*
X144467142Y-96412857D01*
X144395714Y-96341428D01*
X144467142Y-96270000D01*
X144467142Y-96412857D01*
X146252857Y-95841428D02*
X146324285Y-95770000D01*
X146467142Y-95698571D01*
X146824285Y-95698571D01*
X146967142Y-95770000D01*
X147038571Y-95841428D01*
X147110000Y-95984285D01*
X147110000Y-96127142D01*
X147038571Y-96341428D01*
X146181428Y-97198571D01*
X147110000Y-97198571D01*
X148395714Y-96198571D02*
X148395714Y-97198571D01*
X148038571Y-95627142D02*
X147681428Y-96698571D01*
X148610000Y-96698571D01*
X149181428Y-96627142D02*
X150324285Y-96627142D01*
X151681428Y-96198571D02*
X151681428Y-97198571D01*
X151324285Y-95627142D02*
X150967142Y-96698571D01*
X151895714Y-96698571D01*
X152681428Y-96341428D02*
X152538571Y-96270000D01*
X152467142Y-96198571D01*
X152395714Y-96055714D01*
X152395714Y-95984285D01*
X152467142Y-95841428D01*
X152538571Y-95770000D01*
X152681428Y-95698571D01*
X152967142Y-95698571D01*
X153110000Y-95770000D01*
X153181428Y-95841428D01*
X153252857Y-95984285D01*
X153252857Y-96055714D01*
X153181428Y-96198571D01*
X153110000Y-96270000D01*
X152967142Y-96341428D01*
X152681428Y-96341428D01*
X152538571Y-96412857D01*
X152467142Y-96484285D01*
X152395714Y-96627142D01*
X152395714Y-96912857D01*
X152467142Y-97055714D01*
X152538571Y-97127142D01*
X152681428Y-97198571D01*
X152967142Y-97198571D01*
X153110000Y-97127142D01*
X153181428Y-97055714D01*
X153252857Y-96912857D01*
X153252857Y-96627142D01*
X153181428Y-96484285D01*
X153110000Y-96412857D01*
X152967142Y-96341428D01*
X154824285Y-95698571D02*
X155324285Y-97198571D01*
X155824285Y-95698571D01*
X156324285Y-97198571D02*
X156324285Y-95698571D01*
X156681428Y-95698571D01*
X156895714Y-95770000D01*
X157038571Y-95912857D01*
X157110000Y-96055714D01*
X157181428Y-96341428D01*
X157181428Y-96555714D01*
X157110000Y-96841428D01*
X157038571Y-96984285D01*
X156895714Y-97127142D01*
X156681428Y-97198571D01*
X156324285Y-97198571D01*
X158681428Y-97055714D02*
X158610000Y-97127142D01*
X158395714Y-97198571D01*
X158252857Y-97198571D01*
X158038571Y-97127142D01*
X157895714Y-96984285D01*
X157824285Y-96841428D01*
X157752857Y-96555714D01*
X157752857Y-96341428D01*
X157824285Y-96055714D01*
X157895714Y-95912857D01*
X158038571Y-95770000D01*
X158252857Y-95698571D01*
X158395714Y-95698571D01*
X158610000Y-95770000D01*
X158681428Y-95841428D01*
X142502857Y-98248571D02*
X143002857Y-99748571D01*
X143502857Y-98248571D01*
X144217142Y-99748571D02*
X144074285Y-99677142D01*
X144002857Y-99605714D01*
X143931428Y-99462857D01*
X143931428Y-99034285D01*
X144002857Y-98891428D01*
X144074285Y-98820000D01*
X144217142Y-98748571D01*
X144431428Y-98748571D01*
X144574285Y-98820000D01*
X144645714Y-98891428D01*
X144717142Y-99034285D01*
X144717142Y-99462857D01*
X144645714Y-99605714D01*
X144574285Y-99677142D01*
X144431428Y-99748571D01*
X144217142Y-99748571D01*
X146002857Y-98748571D02*
X146002857Y-99748571D01*
X145360000Y-98748571D02*
X145360000Y-99534285D01*
X145431428Y-99677142D01*
X145574285Y-99748571D01*
X145788571Y-99748571D01*
X145931428Y-99677142D01*
X146002857Y-99605714D01*
X146502857Y-98748571D02*
X147074285Y-98748571D01*
X146717142Y-98248571D02*
X146717142Y-99534285D01*
X146788571Y-99677142D01*
X146931428Y-99748571D01*
X147074285Y-99748571D01*
X147574285Y-99605714D02*
X147645714Y-99677142D01*
X147574285Y-99748571D01*
X147502857Y-99677142D01*
X147574285Y-99605714D01*
X147574285Y-99748571D01*
X147574285Y-98820000D02*
X147645714Y-98891428D01*
X147574285Y-98962857D01*
X147502857Y-98891428D01*
X147574285Y-98820000D01*
X147574285Y-98962857D01*
X150217142Y-99748571D02*
X149360000Y-99748571D01*
X149788571Y-99748571D02*
X149788571Y-98248571D01*
X149645714Y-98462857D01*
X149502857Y-98605714D01*
X149360000Y-98677142D01*
X151574285Y-98248571D02*
X150860000Y-98248571D01*
X150788571Y-98962857D01*
X150860000Y-98891428D01*
X151002857Y-98820000D01*
X151360000Y-98820000D01*
X151502857Y-98891428D01*
X151574285Y-98962857D01*
X151645714Y-99105714D01*
X151645714Y-99462857D01*
X151574285Y-99605714D01*
X151502857Y-99677142D01*
X151360000Y-99748571D01*
X151002857Y-99748571D01*
X150860000Y-99677142D01*
X150788571Y-99605714D01*
X153217142Y-98248571D02*
X153717142Y-99748571D01*
X154217142Y-98248571D01*
X154717142Y-99748571D02*
X154717142Y-98248571D01*
X155074285Y-98248571D01*
X155288571Y-98320000D01*
X155431428Y-98462857D01*
X155502857Y-98605714D01*
X155574285Y-98891428D01*
X155574285Y-99105714D01*
X155502857Y-99391428D01*
X155431428Y-99534285D01*
X155288571Y-99677142D01*
X155074285Y-99748571D01*
X154717142Y-99748571D01*
X157074285Y-99605714D02*
X157002857Y-99677142D01*
X156788571Y-99748571D01*
X156645714Y-99748571D01*
X156431428Y-99677142D01*
X156288571Y-99534285D01*
X156217142Y-99391428D01*
X156145714Y-99105714D01*
X156145714Y-98891428D01*
X156217142Y-98605714D01*
X156288571Y-98462857D01*
X156431428Y-98320000D01*
X156645714Y-98248571D01*
X156788571Y-98248571D01*
X157002857Y-98320000D01*
X157074285Y-98391428D01*
D10*
X152551428Y-59317142D02*
X153551428Y-62317142D01*
X154551428Y-59317142D01*
X155551428Y-62317142D02*
X155551428Y-60317142D01*
X155551428Y-59317142D02*
X155408571Y-59460000D01*
X155551428Y-59602857D01*
X155694285Y-59460000D01*
X155551428Y-59317142D01*
X155551428Y-59602857D01*
X156980000Y-60317142D02*
X156980000Y-62317142D01*
X156980000Y-60602857D02*
X157122857Y-60460000D01*
X157408571Y-60317142D01*
X157837142Y-60317142D01*
X158122857Y-60460000D01*
X158265714Y-60745714D01*
X158265714Y-62317142D01*
X159694285Y-61174285D02*
X161980000Y-61174285D01*
%TO.C,HS1*%
X197532000Y-59692000D02*
X197532000Y-91692000D01*
X194532000Y-68192000D02*
X194532000Y-83192000D01*
X183532000Y-68192000D02*
X183532000Y-59692000D01*
X183532000Y-83192000D02*
X183532000Y-91692000D01*
X194532000Y-83192000D02*
X193532000Y-83192000D01*
X194532000Y-68192000D02*
X193532000Y-68192000D01*
X191532000Y-68192000D02*
X183532000Y-68192000D01*
X191532000Y-83192000D02*
X183532000Y-83192000D01*
X193532000Y-65192000D02*
X193532000Y-59692000D01*
X191532000Y-59692000D02*
X191532000Y-65192000D01*
X193532000Y-86192000D02*
X193532000Y-91692000D01*
X191532000Y-86192000D02*
X191532000Y-91692000D01*
X195782000Y-86192000D02*
X195782000Y-91692000D01*
X185532000Y-86192000D02*
X185532000Y-91692000D01*
X189532000Y-86192000D02*
X189532000Y-91692000D01*
X187532000Y-86192000D02*
X187532000Y-91692000D01*
X185532000Y-65192000D02*
X185532000Y-59692000D01*
X187532000Y-59692000D02*
X187532000Y-65192000D01*
X189532000Y-65192000D02*
X189532000Y-59692000D01*
X195782000Y-65192000D02*
X195782000Y-59692000D01*
X197532000Y-91692000D02*
X195782000Y-91692000D01*
X195782000Y-59692000D02*
X197532000Y-59692000D01*
X195782000Y-65192000D02*
X193532000Y-65192000D01*
X191532000Y-65192000D02*
X189532000Y-65192000D01*
X193532000Y-59692000D02*
X191532000Y-59692000D01*
X189532000Y-59692000D02*
X187532000Y-59692000D01*
X187532000Y-65192000D02*
X185532000Y-65192000D01*
X185532000Y-59692000D02*
X183532000Y-59692000D01*
X187532000Y-86192000D02*
X185532000Y-86192000D01*
X191532000Y-86192000D02*
X189532000Y-86192000D01*
X195782000Y-86192000D02*
X193532000Y-86192000D01*
X193532000Y-91692000D02*
X191532000Y-91692000D01*
X189532000Y-91692000D02*
X187532000Y-91692000D01*
X185532000Y-91692000D02*
X183532000Y-91692000D01*
X196782000Y-73942000D02*
X196282000Y-73942000D01*
X195782000Y-73942000D02*
X195282000Y-73942000D01*
X196782000Y-77442000D02*
X196282000Y-77442000D01*
X195782000Y-77442000D02*
X195282000Y-77442000D01*
X194782000Y-77442000D02*
X194532000Y-77442000D01*
X194782000Y-73942000D02*
X194532000Y-73942000D01*
X197282000Y-73942000D02*
X197532000Y-73942000D01*
X197282000Y-77442000D02*
X197532000Y-77442000D01*
D11*
%TO.C,D5*%
X232737000Y-33814000D02*
X232737000Y-35324000D01*
X229036000Y-33814000D02*
X229036000Y-35324000D01*
X225766000Y-35324000D02*
X236006000Y-35324000D01*
X236006000Y-33814000D02*
X236006000Y-38455000D01*
X225766000Y-33814000D02*
X225766000Y-38455000D01*
X225766000Y-38455000D02*
X236006000Y-38455000D01*
X225766000Y-33814000D02*
X236006000Y-33814000D01*
%TO.C,U3*%
X216844000Y-87608000D02*
X216844000Y-91208000D01*
X216855522Y-91246478D02*
G75*
G03*
X221294000Y-89408000I1838478J1838478D01*
G01*
X216855522Y-87569522D02*
G75*
G02*
X221294000Y-89408000I1838478J-1838478D01*
G01*
%TO.C,Cout1*%
X237900000Y-57360000D02*
X237900000Y-56110000D01*
X238525000Y-56735000D02*
X237275000Y-56735000D01*
X237035000Y-49779437D02*
X235970563Y-48715000D01*
X237035000Y-58170563D02*
X235970563Y-59235000D01*
X237035000Y-58170563D02*
X237035000Y-55485000D01*
X237035000Y-49779437D02*
X237035000Y-52465000D01*
X235970563Y-48715000D02*
X226515000Y-48715000D01*
X235970563Y-59235000D02*
X226515000Y-59235000D01*
X226515000Y-59235000D02*
X226515000Y-55485000D01*
X226515000Y-48715000D02*
X226515000Y-52465000D01*
%TO.C,Dclamp1*%
X171586000Y-45714000D02*
X171586000Y-40014000D01*
X175886000Y-45714000D02*
X175886000Y-40014000D01*
X171586000Y-45714000D02*
X175886000Y-45714000D01*
%TO.C,D1*%
X175580000Y-50174000D02*
X182880000Y-50174000D01*
X175580000Y-54474000D02*
X182880000Y-54474000D01*
X175580000Y-50174000D02*
X175580000Y-54474000D01*
%TO.C,J1*%
X247394000Y-68156000D02*
X217394000Y-68156000D01*
X217394000Y-78656000D02*
X247394000Y-78656000D01*
X247394000Y-78656000D02*
G75*
G03*
X247394000Y-68156000I0J5250000D01*
G01*
X217394000Y-68156000D02*
G75*
G03*
X217394000Y-78656000I0J-5250000D01*
G01*
%TO.C,J2*%
X151468000Y-39880000D02*
X151468000Y-69880000D01*
X161968000Y-69880000D02*
X161968000Y-39880000D01*
X161968000Y-39880000D02*
G75*
G03*
X151468000Y-39880000I-5250000J0D01*
G01*
X151468000Y-69880000D02*
G75*
G03*
X161968000Y-69880000I5250000J0D01*
G01*
%TO.C,RFB2*%
X227074000Y-88483221D02*
X227074000Y-88808779D01*
X228094000Y-88483221D02*
X228094000Y-88808779D01*
%TO.C,RFB1*%
X230122000Y-86959221D02*
X230122000Y-87284779D01*
X231142000Y-86959221D02*
X231142000Y-87284779D01*
%TO.C,RVS2*%
X174754000Y-75021221D02*
X174754000Y-75346779D01*
X173734000Y-75021221D02*
X173734000Y-75346779D01*
D10*
%TO.C,U2*%
X178265000Y-71847000D02*
X178265000Y-71897000D01*
X182415000Y-71847000D02*
X182415000Y-71992000D01*
X182415000Y-76997000D02*
X182415000Y-76852000D01*
X178265000Y-76997000D02*
X178265000Y-76852000D01*
X178265000Y-71847000D02*
X182415000Y-71847000D01*
X178265000Y-76997000D02*
X182415000Y-76997000D01*
X178265000Y-71897000D02*
X176865000Y-71897000D01*
D11*
%TO.C,T1*%
X188150000Y-25950000D02*
X215390000Y-25950000D01*
X188150000Y-25950000D02*
X188150000Y-58190000D01*
X215390000Y-58190000D02*
X215390000Y-25950000D01*
X215390000Y-58190000D02*
X188150000Y-58190000D01*
%TO.C,M1*%
X194636000Y-67684000D02*
X194636000Y-83424000D01*
X189896000Y-67684000D02*
X189896000Y-68704000D01*
X189896000Y-71504000D02*
X189896000Y-74155000D01*
X189896000Y-76954000D02*
X189896000Y-79604000D01*
X189896000Y-82404000D02*
X189896000Y-83424000D01*
X194636000Y-67684000D02*
X189896000Y-67684000D01*
X194636000Y-83424000D02*
X189896000Y-83424000D01*
X192896000Y-67684000D02*
X192896000Y-68704000D01*
X192896000Y-71504000D02*
X192896000Y-74155000D01*
X192896000Y-76954000D02*
X192896000Y-79604000D01*
X192896000Y-82404000D02*
X192896000Y-83424000D01*
X194636000Y-73954000D02*
X192896000Y-73954000D01*
X194636000Y-77155000D02*
X192896000Y-77155000D01*
%TO.C,C1*%
D10*
X196429333Y-98301142D02*
X196381714Y-98348761D01*
X196238857Y-98396380D01*
X196143619Y-98396380D01*
X196000761Y-98348761D01*
X195905523Y-98253523D01*
X195857904Y-98158285D01*
X195810285Y-97967809D01*
X195810285Y-97824952D01*
X195857904Y-97634476D01*
X195905523Y-97539238D01*
X196000761Y-97444000D01*
X196143619Y-97396380D01*
X196238857Y-97396380D01*
X196381714Y-97444000D01*
X196429333Y-97491619D01*
X197381714Y-98396380D02*
X196810285Y-98396380D01*
X197096000Y-98396380D02*
X197096000Y-97396380D01*
X197000761Y-97539238D01*
X196905523Y-97634476D01*
X196810285Y-97682095D01*
%TO.C,HS1*%
X198984380Y-76930095D02*
X197984380Y-76930095D01*
X198460571Y-76930095D02*
X198460571Y-76358666D01*
X198984380Y-76358666D02*
X197984380Y-76358666D01*
X198936761Y-75930095D02*
X198984380Y-75787238D01*
X198984380Y-75549142D01*
X198936761Y-75453904D01*
X198889142Y-75406285D01*
X198793904Y-75358666D01*
X198698666Y-75358666D01*
X198603428Y-75406285D01*
X198555809Y-75453904D01*
X198508190Y-75549142D01*
X198460571Y-75739619D01*
X198412952Y-75834857D01*
X198365333Y-75882476D01*
X198270095Y-75930095D01*
X198174857Y-75930095D01*
X198079619Y-75882476D01*
X198032000Y-75834857D01*
X197984380Y-75739619D01*
X197984380Y-75501523D01*
X198032000Y-75358666D01*
X198984380Y-74406285D02*
X198984380Y-74977714D01*
X198984380Y-74692000D02*
X197984380Y-74692000D01*
X198127238Y-74787238D01*
X198222476Y-74882476D01*
X198270095Y-74977714D01*
%TO.C,D5*%
X230147904Y-33266380D02*
X230147904Y-32266380D01*
X230386000Y-32266380D01*
X230528857Y-32314000D01*
X230624095Y-32409238D01*
X230671714Y-32504476D01*
X230719333Y-32694952D01*
X230719333Y-32837809D01*
X230671714Y-33028285D01*
X230624095Y-33123523D01*
X230528857Y-33218761D01*
X230386000Y-33266380D01*
X230147904Y-33266380D01*
X231624095Y-32266380D02*
X231147904Y-32266380D01*
X231100285Y-32742571D01*
X231147904Y-32694952D01*
X231243142Y-32647333D01*
X231481238Y-32647333D01*
X231576476Y-32694952D01*
X231624095Y-32742571D01*
X231671714Y-32837809D01*
X231671714Y-33075904D01*
X231624095Y-33171142D01*
X231576476Y-33218761D01*
X231481238Y-33266380D01*
X231243142Y-33266380D01*
X231147904Y-33218761D01*
X231100285Y-33171142D01*
%TO.C,RVS1*%
X171394571Y-72688380D02*
X171061238Y-72212190D01*
X170823142Y-72688380D02*
X170823142Y-71688380D01*
X171204095Y-71688380D01*
X171299333Y-71736000D01*
X171346952Y-71783619D01*
X171394571Y-71878857D01*
X171394571Y-72021714D01*
X171346952Y-72116952D01*
X171299333Y-72164571D01*
X171204095Y-72212190D01*
X170823142Y-72212190D01*
X171680285Y-71688380D02*
X172013619Y-72688380D01*
X172346952Y-71688380D01*
X172632666Y-72640761D02*
X172775523Y-72688380D01*
X173013619Y-72688380D01*
X173108857Y-72640761D01*
X173156476Y-72593142D01*
X173204095Y-72497904D01*
X173204095Y-72402666D01*
X173156476Y-72307428D01*
X173108857Y-72259809D01*
X173013619Y-72212190D01*
X172823142Y-72164571D01*
X172727904Y-72116952D01*
X172680285Y-72069333D01*
X172632666Y-71974095D01*
X172632666Y-71878857D01*
X172680285Y-71783619D01*
X172727904Y-71736000D01*
X172823142Y-71688380D01*
X173061238Y-71688380D01*
X173204095Y-71736000D01*
X174156476Y-72688380D02*
X173585047Y-72688380D01*
X173870761Y-72688380D02*
X173870761Y-71688380D01*
X173775523Y-71831238D01*
X173680285Y-71926476D01*
X173585047Y-71974095D01*
%TO.C,RLC1*%
X184536571Y-77949380D02*
X184203238Y-77473190D01*
X183965142Y-77949380D02*
X183965142Y-76949380D01*
X184346095Y-76949380D01*
X184441333Y-76997000D01*
X184488952Y-77044619D01*
X184536571Y-77139857D01*
X184536571Y-77282714D01*
X184488952Y-77377952D01*
X184441333Y-77425571D01*
X184346095Y-77473190D01*
X183965142Y-77473190D01*
X185441333Y-77949380D02*
X184965142Y-77949380D01*
X184965142Y-76949380D01*
X186346095Y-77854142D02*
X186298476Y-77901761D01*
X186155619Y-77949380D01*
X186060380Y-77949380D01*
X185917523Y-77901761D01*
X185822285Y-77806523D01*
X185774666Y-77711285D01*
X185727047Y-77520809D01*
X185727047Y-77377952D01*
X185774666Y-77187476D01*
X185822285Y-77092238D01*
X185917523Y-76997000D01*
X186060380Y-76949380D01*
X186155619Y-76949380D01*
X186298476Y-76997000D01*
X186346095Y-77044619D01*
X187298476Y-77949380D02*
X186727047Y-77949380D01*
X187012761Y-77949380D02*
X187012761Y-76949380D01*
X186917523Y-77092238D01*
X186822285Y-77187476D01*
X186727047Y-77235095D01*
%TO.C,RFB3*%
X172002380Y-76787238D02*
X171526190Y-77120571D01*
X172002380Y-77358666D02*
X171002380Y-77358666D01*
X171002380Y-76977714D01*
X171050000Y-76882476D01*
X171097619Y-76834857D01*
X171192857Y-76787238D01*
X171335714Y-76787238D01*
X171430952Y-76834857D01*
X171478571Y-76882476D01*
X171526190Y-76977714D01*
X171526190Y-77358666D01*
X171478571Y-76025333D02*
X171478571Y-76358666D01*
X172002380Y-76358666D02*
X171002380Y-76358666D01*
X171002380Y-75882476D01*
X171478571Y-75168190D02*
X171526190Y-75025333D01*
X171573809Y-74977714D01*
X171669047Y-74930095D01*
X171811904Y-74930095D01*
X171907142Y-74977714D01*
X171954761Y-75025333D01*
X172002380Y-75120571D01*
X172002380Y-75501523D01*
X171002380Y-75501523D01*
X171002380Y-75168190D01*
X171050000Y-75072952D01*
X171097619Y-75025333D01*
X171192857Y-74977714D01*
X171288095Y-74977714D01*
X171383333Y-75025333D01*
X171430952Y-75072952D01*
X171478571Y-75168190D01*
X171478571Y-75501523D01*
X171002380Y-74596761D02*
X171002380Y-73977714D01*
X171383333Y-74311047D01*
X171383333Y-74168190D01*
X171430952Y-74072952D01*
X171478571Y-74025333D01*
X171573809Y-73977714D01*
X171811904Y-73977714D01*
X171907142Y-74025333D01*
X171954761Y-74072952D01*
X172002380Y-74168190D01*
X172002380Y-74453904D01*
X171954761Y-74549142D01*
X171907142Y-74596761D01*
%TO.C,U3*%
X221706380Y-90169904D02*
X222515904Y-90169904D01*
X222611142Y-90122285D01*
X222658761Y-90074666D01*
X222706380Y-89979428D01*
X222706380Y-89788952D01*
X222658761Y-89693714D01*
X222611142Y-89646095D01*
X222515904Y-89598476D01*
X221706380Y-89598476D01*
X221706380Y-89217523D02*
X221706380Y-88598476D01*
X222087333Y-88931809D01*
X222087333Y-88788952D01*
X222134952Y-88693714D01*
X222182571Y-88646095D01*
X222277809Y-88598476D01*
X222515904Y-88598476D01*
X222611142Y-88646095D01*
X222658761Y-88693714D01*
X222706380Y-88788952D01*
X222706380Y-89074666D01*
X222658761Y-89169904D01*
X222611142Y-89217523D01*
%TO.C,Cout1*%
X230417857Y-60532142D02*
X230370238Y-60579761D01*
X230227380Y-60627380D01*
X230132142Y-60627380D01*
X229989285Y-60579761D01*
X229894047Y-60484523D01*
X229846428Y-60389285D01*
X229798809Y-60198809D01*
X229798809Y-60055952D01*
X229846428Y-59865476D01*
X229894047Y-59770238D01*
X229989285Y-59675000D01*
X230132142Y-59627380D01*
X230227380Y-59627380D01*
X230370238Y-59675000D01*
X230417857Y-59722619D01*
X230989285Y-60627380D02*
X230894047Y-60579761D01*
X230846428Y-60532142D01*
X230798809Y-60436904D01*
X230798809Y-60151190D01*
X230846428Y-60055952D01*
X230894047Y-60008333D01*
X230989285Y-59960714D01*
X231132142Y-59960714D01*
X231227380Y-60008333D01*
X231275000Y-60055952D01*
X231322619Y-60151190D01*
X231322619Y-60436904D01*
X231275000Y-60532142D01*
X231227380Y-60579761D01*
X231132142Y-60627380D01*
X230989285Y-60627380D01*
X232179761Y-59960714D02*
X232179761Y-60627380D01*
X231751190Y-59960714D02*
X231751190Y-60484523D01*
X231798809Y-60579761D01*
X231894047Y-60627380D01*
X232036904Y-60627380D01*
X232132142Y-60579761D01*
X232179761Y-60532142D01*
X232513095Y-59960714D02*
X232894047Y-59960714D01*
X232655952Y-59627380D02*
X232655952Y-60484523D01*
X232703571Y-60579761D01*
X232798809Y-60627380D01*
X232894047Y-60627380D01*
X233751190Y-60627380D02*
X233179761Y-60627380D01*
X233465476Y-60627380D02*
X233465476Y-59627380D01*
X233370238Y-59770238D01*
X233275000Y-59865476D01*
X233179761Y-59913095D01*
%TO.C,Dclamp1*%
X171188380Y-45164000D02*
X170188380Y-45164000D01*
X170188380Y-44925904D01*
X170236000Y-44783047D01*
X170331238Y-44687809D01*
X170426476Y-44640190D01*
X170616952Y-44592571D01*
X170759809Y-44592571D01*
X170950285Y-44640190D01*
X171045523Y-44687809D01*
X171140761Y-44783047D01*
X171188380Y-44925904D01*
X171188380Y-45164000D01*
X171140761Y-43735428D02*
X171188380Y-43830666D01*
X171188380Y-44021142D01*
X171140761Y-44116380D01*
X171093142Y-44164000D01*
X170997904Y-44211619D01*
X170712190Y-44211619D01*
X170616952Y-44164000D01*
X170569333Y-44116380D01*
X170521714Y-44021142D01*
X170521714Y-43830666D01*
X170569333Y-43735428D01*
X171188380Y-43164000D02*
X171140761Y-43259238D01*
X171045523Y-43306857D01*
X170188380Y-43306857D01*
X171188380Y-42354476D02*
X170664571Y-42354476D01*
X170569333Y-42402095D01*
X170521714Y-42497333D01*
X170521714Y-42687809D01*
X170569333Y-42783047D01*
X171140761Y-42354476D02*
X171188380Y-42449714D01*
X171188380Y-42687809D01*
X171140761Y-42783047D01*
X171045523Y-42830666D01*
X170950285Y-42830666D01*
X170855047Y-42783047D01*
X170807428Y-42687809D01*
X170807428Y-42449714D01*
X170759809Y-42354476D01*
X171188380Y-41878285D02*
X170521714Y-41878285D01*
X170616952Y-41878285D02*
X170569333Y-41830666D01*
X170521714Y-41735428D01*
X170521714Y-41592571D01*
X170569333Y-41497333D01*
X170664571Y-41449714D01*
X171188380Y-41449714D01*
X170664571Y-41449714D02*
X170569333Y-41402095D01*
X170521714Y-41306857D01*
X170521714Y-41164000D01*
X170569333Y-41068761D01*
X170664571Y-41021142D01*
X171188380Y-41021142D01*
X170521714Y-40544952D02*
X171521714Y-40544952D01*
X170569333Y-40544952D02*
X170521714Y-40449714D01*
X170521714Y-40259238D01*
X170569333Y-40164000D01*
X170616952Y-40116380D01*
X170712190Y-40068761D01*
X170997904Y-40068761D01*
X171093142Y-40116380D01*
X171140761Y-40164000D01*
X171188380Y-40259238D01*
X171188380Y-40449714D01*
X171140761Y-40544952D01*
X171188380Y-39116380D02*
X171188380Y-39687809D01*
X171188380Y-39402095D02*
X170188380Y-39402095D01*
X170331238Y-39497333D01*
X170426476Y-39592571D01*
X170474095Y-39687809D01*
%TO.C,D1*%
X179441904Y-49776380D02*
X179441904Y-48776380D01*
X179680000Y-48776380D01*
X179822857Y-48824000D01*
X179918095Y-48919238D01*
X179965714Y-49014476D01*
X180013333Y-49204952D01*
X180013333Y-49347809D01*
X179965714Y-49538285D01*
X179918095Y-49633523D01*
X179822857Y-49728761D01*
X179680000Y-49776380D01*
X179441904Y-49776380D01*
X180965714Y-49776380D02*
X180394285Y-49776380D01*
X180680000Y-49776380D02*
X180680000Y-48776380D01*
X180584761Y-48919238D01*
X180489523Y-49014476D01*
X180394285Y-49062095D01*
%TO.C,J1*%
X232075666Y-79098380D02*
X232075666Y-79812666D01*
X232028047Y-79955523D01*
X231932809Y-80050761D01*
X231789952Y-80098380D01*
X231694714Y-80098380D01*
X233075666Y-80098380D02*
X232504238Y-80098380D01*
X232789952Y-80098380D02*
X232789952Y-79098380D01*
X232694714Y-79241238D01*
X232599476Y-79336476D01*
X232504238Y-79384095D01*
%TO.C,J2*%
X162410380Y-55198333D02*
X163124666Y-55198333D01*
X163267523Y-55245952D01*
X163362761Y-55341190D01*
X163410380Y-55484047D01*
X163410380Y-55579285D01*
X162505619Y-54769761D02*
X162458000Y-54722142D01*
X162410380Y-54626904D01*
X162410380Y-54388809D01*
X162458000Y-54293571D01*
X162505619Y-54245952D01*
X162600857Y-54198333D01*
X162696095Y-54198333D01*
X162838952Y-54245952D01*
X163410380Y-54817380D01*
X163410380Y-54198333D01*
%TO.C,RFB2*%
X229466380Y-89741238D02*
X228990190Y-90074571D01*
X229466380Y-90312666D02*
X228466380Y-90312666D01*
X228466380Y-89931714D01*
X228514000Y-89836476D01*
X228561619Y-89788857D01*
X228656857Y-89741238D01*
X228799714Y-89741238D01*
X228894952Y-89788857D01*
X228942571Y-89836476D01*
X228990190Y-89931714D01*
X228990190Y-90312666D01*
X228942571Y-88979333D02*
X228942571Y-89312666D01*
X229466380Y-89312666D02*
X228466380Y-89312666D01*
X228466380Y-88836476D01*
X228942571Y-88122190D02*
X228990190Y-87979333D01*
X229037809Y-87931714D01*
X229133047Y-87884095D01*
X229275904Y-87884095D01*
X229371142Y-87931714D01*
X229418761Y-87979333D01*
X229466380Y-88074571D01*
X229466380Y-88455523D01*
X228466380Y-88455523D01*
X228466380Y-88122190D01*
X228514000Y-88026952D01*
X228561619Y-87979333D01*
X228656857Y-87931714D01*
X228752095Y-87931714D01*
X228847333Y-87979333D01*
X228894952Y-88026952D01*
X228942571Y-88122190D01*
X228942571Y-88455523D01*
X228561619Y-87503142D02*
X228514000Y-87455523D01*
X228466380Y-87360285D01*
X228466380Y-87122190D01*
X228514000Y-87026952D01*
X228561619Y-86979333D01*
X228656857Y-86931714D01*
X228752095Y-86931714D01*
X228894952Y-86979333D01*
X229466380Y-87550761D01*
X229466380Y-86931714D01*
%TO.C,RFB1*%
X232514380Y-88217238D02*
X232038190Y-88550571D01*
X232514380Y-88788666D02*
X231514380Y-88788666D01*
X231514380Y-88407714D01*
X231562000Y-88312476D01*
X231609619Y-88264857D01*
X231704857Y-88217238D01*
X231847714Y-88217238D01*
X231942952Y-88264857D01*
X231990571Y-88312476D01*
X232038190Y-88407714D01*
X232038190Y-88788666D01*
X231990571Y-87455333D02*
X231990571Y-87788666D01*
X232514380Y-87788666D02*
X231514380Y-87788666D01*
X231514380Y-87312476D01*
X231990571Y-86598190D02*
X232038190Y-86455333D01*
X232085809Y-86407714D01*
X232181047Y-86360095D01*
X232323904Y-86360095D01*
X232419142Y-86407714D01*
X232466761Y-86455333D01*
X232514380Y-86550571D01*
X232514380Y-86931523D01*
X231514380Y-86931523D01*
X231514380Y-86598190D01*
X231562000Y-86502952D01*
X231609619Y-86455333D01*
X231704857Y-86407714D01*
X231800095Y-86407714D01*
X231895333Y-86455333D01*
X231942952Y-86502952D01*
X231990571Y-86598190D01*
X231990571Y-86931523D01*
X232514380Y-85407714D02*
X232514380Y-85979142D01*
X232514380Y-85693428D02*
X231514380Y-85693428D01*
X231657238Y-85788666D01*
X231752476Y-85883904D01*
X231800095Y-85979142D01*
%TO.C,RFB4*%
X177136380Y-76787238D02*
X176660190Y-77120571D01*
X177136380Y-77358666D02*
X176136380Y-77358666D01*
X176136380Y-76977714D01*
X176184000Y-76882476D01*
X176231619Y-76834857D01*
X176326857Y-76787238D01*
X176469714Y-76787238D01*
X176564952Y-76834857D01*
X176612571Y-76882476D01*
X176660190Y-76977714D01*
X176660190Y-77358666D01*
X176612571Y-76025333D02*
X176612571Y-76358666D01*
X177136380Y-76358666D02*
X176136380Y-76358666D01*
X176136380Y-75882476D01*
X176612571Y-75168190D02*
X176660190Y-75025333D01*
X176707809Y-74977714D01*
X176803047Y-74930095D01*
X176945904Y-74930095D01*
X177041142Y-74977714D01*
X177088761Y-75025333D01*
X177136380Y-75120571D01*
X177136380Y-75501523D01*
X176136380Y-75501523D01*
X176136380Y-75168190D01*
X176184000Y-75072952D01*
X176231619Y-75025333D01*
X176326857Y-74977714D01*
X176422095Y-74977714D01*
X176517333Y-75025333D01*
X176564952Y-75072952D01*
X176612571Y-75168190D01*
X176612571Y-75501523D01*
X176469714Y-74072952D02*
X177136380Y-74072952D01*
X176088761Y-74311047D02*
X176803047Y-74549142D01*
X176803047Y-73930095D01*
%TO.C,RVS2*%
X176126380Y-76255428D02*
X175650190Y-76588761D01*
X176126380Y-76826857D02*
X175126380Y-76826857D01*
X175126380Y-76445904D01*
X175174000Y-76350666D01*
X175221619Y-76303047D01*
X175316857Y-76255428D01*
X175459714Y-76255428D01*
X175554952Y-76303047D01*
X175602571Y-76350666D01*
X175650190Y-76445904D01*
X175650190Y-76826857D01*
X175126380Y-75969714D02*
X176126380Y-75636380D01*
X175126380Y-75303047D01*
X176078761Y-75017333D02*
X176126380Y-74874476D01*
X176126380Y-74636380D01*
X176078761Y-74541142D01*
X176031142Y-74493523D01*
X175935904Y-74445904D01*
X175840666Y-74445904D01*
X175745428Y-74493523D01*
X175697809Y-74541142D01*
X175650190Y-74636380D01*
X175602571Y-74826857D01*
X175554952Y-74922095D01*
X175507333Y-74969714D01*
X175412095Y-75017333D01*
X175316857Y-75017333D01*
X175221619Y-74969714D01*
X175174000Y-74922095D01*
X175126380Y-74826857D01*
X175126380Y-74588761D01*
X175174000Y-74445904D01*
X175221619Y-74064952D02*
X175174000Y-74017333D01*
X175126380Y-73922095D01*
X175126380Y-73684000D01*
X175174000Y-73588761D01*
X175221619Y-73541142D01*
X175316857Y-73493523D01*
X175412095Y-73493523D01*
X175554952Y-73541142D01*
X176126380Y-74112571D01*
X176126380Y-73493523D01*
%TO.C,CFB1*%
X170637142Y-77018238D02*
X170684761Y-77065857D01*
X170732380Y-77208714D01*
X170732380Y-77303952D01*
X170684761Y-77446809D01*
X170589523Y-77542047D01*
X170494285Y-77589666D01*
X170303809Y-77637285D01*
X170160952Y-77637285D01*
X169970476Y-77589666D01*
X169875238Y-77542047D01*
X169780000Y-77446809D01*
X169732380Y-77303952D01*
X169732380Y-77208714D01*
X169780000Y-77065857D01*
X169827619Y-77018238D01*
X170208571Y-76256333D02*
X170208571Y-76589666D01*
X170732380Y-76589666D02*
X169732380Y-76589666D01*
X169732380Y-76113476D01*
X170208571Y-75399190D02*
X170256190Y-75256333D01*
X170303809Y-75208714D01*
X170399047Y-75161095D01*
X170541904Y-75161095D01*
X170637142Y-75208714D01*
X170684761Y-75256333D01*
X170732380Y-75351571D01*
X170732380Y-75732523D01*
X169732380Y-75732523D01*
X169732380Y-75399190D01*
X169780000Y-75303952D01*
X169827619Y-75256333D01*
X169922857Y-75208714D01*
X170018095Y-75208714D01*
X170113333Y-75256333D01*
X170160952Y-75303952D01*
X170208571Y-75399190D01*
X170208571Y-75732523D01*
X170732380Y-74208714D02*
X170732380Y-74780142D01*
X170732380Y-74494428D02*
X169732380Y-74494428D01*
X169875238Y-74589666D01*
X169970476Y-74684904D01*
X170018095Y-74780142D01*
%TO.C,U2*%
X179578095Y-70374380D02*
X179578095Y-71183904D01*
X179625714Y-71279142D01*
X179673333Y-71326761D01*
X179768571Y-71374380D01*
X179959047Y-71374380D01*
X180054285Y-71326761D01*
X180101904Y-71279142D01*
X180149523Y-71183904D01*
X180149523Y-70374380D01*
X180578095Y-70469619D02*
X180625714Y-70422000D01*
X180720952Y-70374380D01*
X180959047Y-70374380D01*
X181054285Y-70422000D01*
X181101904Y-70469619D01*
X181149523Y-70564857D01*
X181149523Y-70660095D01*
X181101904Y-70802952D01*
X180530476Y-71374380D01*
X181149523Y-71374380D01*
%TO.C,T1*%
X201008095Y-23742380D02*
X201579523Y-23742380D01*
X201293809Y-24742380D02*
X201293809Y-23742380D01*
X202436666Y-24742380D02*
X201865238Y-24742380D01*
X202150952Y-24742380D02*
X202150952Y-23742380D01*
X202055714Y-23885238D01*
X201960476Y-23980476D01*
X201865238Y-24028095D01*
X195222380Y-53784285D02*
X195222380Y-54355714D01*
X195222380Y-54070000D02*
X194222380Y-54070000D01*
X194365238Y-54165238D01*
X194460476Y-54260476D01*
X194508095Y-54355714D01*
X195222380Y-42879523D02*
X194222380Y-42879523D01*
X194222380Y-42498571D01*
X194270000Y-42403333D01*
X194317619Y-42355714D01*
X194412857Y-42308095D01*
X194555714Y-42308095D01*
X194650952Y-42355714D01*
X194698571Y-42403333D01*
X194746190Y-42498571D01*
X194746190Y-42879523D01*
X195222380Y-41879523D02*
X194555714Y-41879523D01*
X194746190Y-41879523D02*
X194650952Y-41831904D01*
X194603333Y-41784285D01*
X194555714Y-41689047D01*
X194555714Y-41593809D01*
X195222380Y-41260476D02*
X194555714Y-41260476D01*
X194222380Y-41260476D02*
X194270000Y-41308095D01*
X194317619Y-41260476D01*
X194270000Y-41212857D01*
X194222380Y-41260476D01*
X194317619Y-41260476D01*
%TO.C,RCS1*%
X184531142Y-80870380D02*
X184197809Y-80394190D01*
X183959714Y-80870380D02*
X183959714Y-79870380D01*
X184340666Y-79870380D01*
X184435904Y-79918000D01*
X184483523Y-79965619D01*
X184531142Y-80060857D01*
X184531142Y-80203714D01*
X184483523Y-80298952D01*
X184435904Y-80346571D01*
X184340666Y-80394190D01*
X183959714Y-80394190D01*
X185531142Y-80775142D02*
X185483523Y-80822761D01*
X185340666Y-80870380D01*
X185245428Y-80870380D01*
X185102571Y-80822761D01*
X185007333Y-80727523D01*
X184959714Y-80632285D01*
X184912095Y-80441809D01*
X184912095Y-80298952D01*
X184959714Y-80108476D01*
X185007333Y-80013238D01*
X185102571Y-79918000D01*
X185245428Y-79870380D01*
X185340666Y-79870380D01*
X185483523Y-79918000D01*
X185531142Y-79965619D01*
X185912095Y-80822761D02*
X186054952Y-80870380D01*
X186293047Y-80870380D01*
X186388285Y-80822761D01*
X186435904Y-80775142D01*
X186483523Y-80679904D01*
X186483523Y-80584666D01*
X186435904Y-80489428D01*
X186388285Y-80441809D01*
X186293047Y-80394190D01*
X186102571Y-80346571D01*
X186007333Y-80298952D01*
X185959714Y-80251333D01*
X185912095Y-80156095D01*
X185912095Y-80060857D01*
X185959714Y-79965619D01*
X186007333Y-79918000D01*
X186102571Y-79870380D01*
X186340666Y-79870380D01*
X186483523Y-79918000D01*
X187435904Y-80870380D02*
X186864476Y-80870380D01*
X187150190Y-80870380D02*
X187150190Y-79870380D01*
X187054952Y-80013238D01*
X186959714Y-80108476D01*
X186864476Y-80156095D01*
%TO.C,M1*%
X196088380Y-76363523D02*
X195088380Y-76363523D01*
X195802666Y-76030190D01*
X195088380Y-75696857D01*
X196088380Y-75696857D01*
X196088380Y-74696857D02*
X196088380Y-75268285D01*
X196088380Y-74982571D02*
X195088380Y-74982571D01*
X195231238Y-75077809D01*
X195326476Y-75173047D01*
X195374095Y-75268285D01*
%TO.C,Cz1*%
X225555142Y-88178428D02*
X225602761Y-88226047D01*
X225650380Y-88368904D01*
X225650380Y-88464142D01*
X225602761Y-88607000D01*
X225507523Y-88702238D01*
X225412285Y-88749857D01*
X225221809Y-88797476D01*
X225078952Y-88797476D01*
X224888476Y-88749857D01*
X224793238Y-88702238D01*
X224698000Y-88607000D01*
X224650380Y-88464142D01*
X224650380Y-88368904D01*
X224698000Y-88226047D01*
X224745619Y-88178428D01*
X224983714Y-87845095D02*
X224983714Y-87321285D01*
X225650380Y-87845095D01*
X225650380Y-87321285D01*
X225650380Y-86416523D02*
X225650380Y-86987952D01*
X225650380Y-86702238D02*
X224650380Y-86702238D01*
X224793238Y-86797476D01*
X224888476Y-86892714D01*
X224936095Y-86987952D01*
%TO.C,Cvdd1*%
X173807619Y-74171142D02*
X173760000Y-74218761D01*
X173617142Y-74266380D01*
X173521904Y-74266380D01*
X173379047Y-74218761D01*
X173283809Y-74123523D01*
X173236190Y-74028285D01*
X173188571Y-73837809D01*
X173188571Y-73694952D01*
X173236190Y-73504476D01*
X173283809Y-73409238D01*
X173379047Y-73314000D01*
X173521904Y-73266380D01*
X173617142Y-73266380D01*
X173760000Y-73314000D01*
X173807619Y-73361619D01*
X174140952Y-73599714D02*
X174379047Y-74266380D01*
X174617142Y-73599714D01*
X175426666Y-74266380D02*
X175426666Y-73266380D01*
X175426666Y-74218761D02*
X175331428Y-74266380D01*
X175140952Y-74266380D01*
X175045714Y-74218761D01*
X174998095Y-74171142D01*
X174950476Y-74075904D01*
X174950476Y-73790190D01*
X174998095Y-73694952D01*
X175045714Y-73647333D01*
X175140952Y-73599714D01*
X175331428Y-73599714D01*
X175426666Y-73647333D01*
X176331428Y-74266380D02*
X176331428Y-73266380D01*
X176331428Y-74218761D02*
X176236190Y-74266380D01*
X176045714Y-74266380D01*
X175950476Y-74218761D01*
X175902857Y-74171142D01*
X175855238Y-74075904D01*
X175855238Y-73790190D01*
X175902857Y-73694952D01*
X175950476Y-73647333D01*
X176045714Y-73599714D01*
X176236190Y-73599714D01*
X176331428Y-73647333D01*
X177331428Y-74266380D02*
X176760000Y-74266380D01*
X177045714Y-74266380D02*
X177045714Y-73266380D01*
X176950476Y-73409238D01*
X176855238Y-73504476D01*
X176760000Y-73552095D01*
%TO.C,Css431*%
X223215142Y-91867571D02*
X223262761Y-91915190D01*
X223310380Y-92058047D01*
X223310380Y-92153285D01*
X223262761Y-92296142D01*
X223167523Y-92391380D01*
X223072285Y-92439000D01*
X222881809Y-92486619D01*
X222738952Y-92486619D01*
X222548476Y-92439000D01*
X222453238Y-92391380D01*
X222358000Y-92296142D01*
X222310380Y-92153285D01*
X222310380Y-92058047D01*
X222358000Y-91915190D01*
X222405619Y-91867571D01*
X223262761Y-91486619D02*
X223310380Y-91391380D01*
X223310380Y-91200904D01*
X223262761Y-91105666D01*
X223167523Y-91058047D01*
X223119904Y-91058047D01*
X223024666Y-91105666D01*
X222977047Y-91200904D01*
X222977047Y-91343761D01*
X222929428Y-91439000D01*
X222834190Y-91486619D01*
X222786571Y-91486619D01*
X222691333Y-91439000D01*
X222643714Y-91343761D01*
X222643714Y-91200904D01*
X222691333Y-91105666D01*
X223262761Y-90677095D02*
X223310380Y-90581857D01*
X223310380Y-90391380D01*
X223262761Y-90296142D01*
X223167523Y-90248523D01*
X223119904Y-90248523D01*
X223024666Y-90296142D01*
X222977047Y-90391380D01*
X222977047Y-90534238D01*
X222929428Y-90629476D01*
X222834190Y-90677095D01*
X222786571Y-90677095D01*
X222691333Y-90629476D01*
X222643714Y-90534238D01*
X222643714Y-90391380D01*
X222691333Y-90296142D01*
X222643714Y-89391380D02*
X223310380Y-89391380D01*
X222262761Y-89629476D02*
X222977047Y-89867571D01*
X222977047Y-89248523D01*
X222310380Y-88962809D02*
X222310380Y-88343761D01*
X222691333Y-88677095D01*
X222691333Y-88534238D01*
X222738952Y-88439000D01*
X222786571Y-88391380D01*
X222881809Y-88343761D01*
X223119904Y-88343761D01*
X223215142Y-88391380D01*
X223262761Y-88439000D01*
X223310380Y-88534238D01*
X223310380Y-88819952D01*
X223262761Y-88915190D01*
X223215142Y-88962809D01*
X223310380Y-87391380D02*
X223310380Y-87962809D01*
X223310380Y-87677095D02*
X222310380Y-87677095D01*
X222453238Y-87772333D01*
X222548476Y-87867571D01*
X222596095Y-87962809D01*
%TO.C,Ccs1*%
X180356000Y-80013142D02*
X180308380Y-80060761D01*
X180165523Y-80108380D01*
X180070285Y-80108380D01*
X179927428Y-80060761D01*
X179832190Y-79965523D01*
X179784571Y-79870285D01*
X179736952Y-79679809D01*
X179736952Y-79536952D01*
X179784571Y-79346476D01*
X179832190Y-79251238D01*
X179927428Y-79156000D01*
X180070285Y-79108380D01*
X180165523Y-79108380D01*
X180308380Y-79156000D01*
X180356000Y-79203619D01*
X181213142Y-80060761D02*
X181117904Y-80108380D01*
X180927428Y-80108380D01*
X180832190Y-80060761D01*
X180784571Y-80013142D01*
X180736952Y-79917904D01*
X180736952Y-79632190D01*
X180784571Y-79536952D01*
X180832190Y-79489333D01*
X180927428Y-79441714D01*
X181117904Y-79441714D01*
X181213142Y-79489333D01*
X181594095Y-80060761D02*
X181689333Y-80108380D01*
X181879809Y-80108380D01*
X181975047Y-80060761D01*
X182022666Y-79965523D01*
X182022666Y-79917904D01*
X181975047Y-79822666D01*
X181879809Y-79775047D01*
X181736952Y-79775047D01*
X181641714Y-79727428D01*
X181594095Y-79632190D01*
X181594095Y-79584571D01*
X181641714Y-79489333D01*
X181736952Y-79441714D01*
X181879809Y-79441714D01*
X181975047Y-79489333D01*
X182975047Y-80108380D02*
X182403619Y-80108380D01*
X182689333Y-80108380D02*
X182689333Y-79108380D01*
X182594095Y-79251238D01*
X182498857Y-79346476D01*
X182403619Y-79394095D01*
%TD*%
M02*
