%TF.GenerationSoftware,KiCad,Pcbnew,(5.1.6)-1*%
%TF.CreationDate,2020-06-23T23:46:23+03:00*%
%TF.ProjectId,flyback,666c7962-6163-46b2-9e6b-696361645f70,rev?*%
%TF.SameCoordinates,Original*%
%TF.FileFunction,Soldermask,Top*%
%TF.FilePolarity,Negative*%
%FSLAX46Y46*%
G04 Gerber Fmt 4.6, Leading zero omitted, Abs format (unit mm)*
G04 Created by KiCad (PCBNEW (5.1.6)-1) date 2020-06-23 23:46:23*
%MOMM*%
%LPD*%
G01*
G04 APERTURE LIST*
%ADD10C,3.100000*%
%ADD11O,2.100000X2.100000*%
%ADD12R,2.100000X2.100000*%
%ADD13R,1.600000X1.150000*%
%ADD14O,1.600000X1.150000*%
%ADD15R,2.400000X2.600000*%
%ADD16R,3.600000X2.400000*%
%ADD17C,10.260000*%
%ADD18R,1.650000X0.700000*%
%ADD19O,1.700000X1.700000*%
%ADD20R,1.700000X1.700000*%
%ADD21O,4.600000X2.600000*%
%ADD22R,4.600000X2.600000*%
G04 APERTURE END LIST*
%TO.C,C1*%
G36*
G01*
X196456000Y-96576500D02*
X196456000Y-96971500D01*
G75*
G02*
X196283500Y-97144000I-172500J0D01*
G01*
X195938500Y-97144000D01*
G75*
G02*
X195766000Y-96971500I0J172500D01*
G01*
X195766000Y-96576500D01*
G75*
G02*
X195938500Y-96404000I172500J0D01*
G01*
X196283500Y-96404000D01*
G75*
G02*
X196456000Y-96576500I0J-172500D01*
G01*
G37*
G36*
G01*
X197426000Y-96576500D02*
X197426000Y-96971500D01*
G75*
G02*
X197253500Y-97144000I-172500J0D01*
G01*
X196908500Y-97144000D01*
G75*
G02*
X196736000Y-96971500I0J172500D01*
G01*
X196736000Y-96576500D01*
G75*
G02*
X196908500Y-96404000I172500J0D01*
G01*
X197253500Y-96404000D01*
G75*
G02*
X197426000Y-96576500I0J-172500D01*
G01*
G37*
%TD*%
D10*
%TO.C,HS1*%
X192532000Y-84592000D03*
X192532000Y-66792000D03*
%TD*%
D11*
%TO.C,D5*%
X233426000Y-37084000D03*
D12*
X228346000Y-37084000D03*
%TD*%
%TO.C,RVS1*%
G36*
G01*
X172606000Y-73603500D02*
X172606000Y-73208500D01*
G75*
G02*
X172778500Y-73036000I172500J0D01*
G01*
X173123500Y-73036000D01*
G75*
G02*
X173296000Y-73208500I0J-172500D01*
G01*
X173296000Y-73603500D01*
G75*
G02*
X173123500Y-73776000I-172500J0D01*
G01*
X172778500Y-73776000D01*
G75*
G02*
X172606000Y-73603500I0J172500D01*
G01*
G37*
G36*
G01*
X171636000Y-73603500D02*
X171636000Y-73208500D01*
G75*
G02*
X171808500Y-73036000I172500J0D01*
G01*
X172153500Y-73036000D01*
G75*
G02*
X172326000Y-73208500I0J-172500D01*
G01*
X172326000Y-73603500D01*
G75*
G02*
X172153500Y-73776000I-172500J0D01*
G01*
X171808500Y-73776000D01*
G75*
G02*
X171636000Y-73603500I0J172500D01*
G01*
G37*
%TD*%
%TO.C,RLC1*%
G36*
G01*
X185468000Y-76129500D02*
X185468000Y-76524500D01*
G75*
G02*
X185295500Y-76697000I-172500J0D01*
G01*
X184950500Y-76697000D01*
G75*
G02*
X184778000Y-76524500I0J172500D01*
G01*
X184778000Y-76129500D01*
G75*
G02*
X184950500Y-75957000I172500J0D01*
G01*
X185295500Y-75957000D01*
G75*
G02*
X185468000Y-76129500I0J-172500D01*
G01*
G37*
G36*
G01*
X186438000Y-76129500D02*
X186438000Y-76524500D01*
G75*
G02*
X186265500Y-76697000I-172500J0D01*
G01*
X185920500Y-76697000D01*
G75*
G02*
X185748000Y-76524500I0J172500D01*
G01*
X185748000Y-76129500D01*
G75*
G02*
X185920500Y-75957000I172500J0D01*
G01*
X186265500Y-75957000D01*
G75*
G02*
X186438000Y-76129500I0J-172500D01*
G01*
G37*
%TD*%
%TO.C,RFB3*%
G36*
G01*
X172917500Y-75552000D02*
X172522500Y-75552000D01*
G75*
G02*
X172350000Y-75379500I0J172500D01*
G01*
X172350000Y-75034500D01*
G75*
G02*
X172522500Y-74862000I172500J0D01*
G01*
X172917500Y-74862000D01*
G75*
G02*
X173090000Y-75034500I0J-172500D01*
G01*
X173090000Y-75379500D01*
G75*
G02*
X172917500Y-75552000I-172500J0D01*
G01*
G37*
G36*
G01*
X172917500Y-76522000D02*
X172522500Y-76522000D01*
G75*
G02*
X172350000Y-76349500I0J172500D01*
G01*
X172350000Y-76004500D01*
G75*
G02*
X172522500Y-75832000I172500J0D01*
G01*
X172917500Y-75832000D01*
G75*
G02*
X173090000Y-76004500I0J-172500D01*
G01*
X173090000Y-76349500D01*
G75*
G02*
X172917500Y-76522000I-172500J0D01*
G01*
G37*
%TD*%
D13*
%TO.C,U3*%
X218694000Y-88138000D03*
D14*
X218694000Y-90678000D03*
X218694000Y-89408000D03*
%TD*%
%TO.C,Cout1*%
G36*
G01*
X229825000Y-52935000D02*
X229825000Y-55015000D01*
G75*
G02*
X229565000Y-55275000I-260000J0D01*
G01*
X225985000Y-55275000D01*
G75*
G02*
X225725000Y-55015000I0J260000D01*
G01*
X225725000Y-52935000D01*
G75*
G02*
X225985000Y-52675000I260000J0D01*
G01*
X229565000Y-52675000D01*
G75*
G02*
X229825000Y-52935000I0J-260000D01*
G01*
G37*
G36*
G01*
X237825000Y-52935000D02*
X237825000Y-55015000D01*
G75*
G02*
X237565000Y-55275000I-260000J0D01*
G01*
X233985000Y-55275000D01*
G75*
G02*
X233725000Y-55015000I0J260000D01*
G01*
X233725000Y-52935000D01*
G75*
G02*
X233985000Y-52675000I260000J0D01*
G01*
X237565000Y-52675000D01*
G75*
G02*
X237825000Y-52935000I0J-260000D01*
G01*
G37*
%TD*%
D15*
%TO.C,Dclamp1*%
X173736000Y-40014000D03*
X173736000Y-44314000D03*
%TD*%
D16*
%TO.C,D1*%
X182880000Y-52324000D03*
X177480000Y-52324000D03*
%TD*%
D17*
%TO.C,J1*%
X217424000Y-73406000D03*
X247394000Y-73406000D03*
%TD*%
%TO.C,J2*%
X156718000Y-69850000D03*
X156718000Y-39880000D03*
%TD*%
%TO.C,RFB2*%
G36*
G01*
X227302750Y-87371000D02*
X227865250Y-87371000D01*
G75*
G02*
X228109000Y-87614750I0J-243750D01*
G01*
X228109000Y-88102250D01*
G75*
G02*
X227865250Y-88346000I-243750J0D01*
G01*
X227302750Y-88346000D01*
G75*
G02*
X227059000Y-88102250I0J243750D01*
G01*
X227059000Y-87614750D01*
G75*
G02*
X227302750Y-87371000I243750J0D01*
G01*
G37*
G36*
G01*
X227302750Y-88946000D02*
X227865250Y-88946000D01*
G75*
G02*
X228109000Y-89189750I0J-243750D01*
G01*
X228109000Y-89677250D01*
G75*
G02*
X227865250Y-89921000I-243750J0D01*
G01*
X227302750Y-89921000D01*
G75*
G02*
X227059000Y-89677250I0J243750D01*
G01*
X227059000Y-89189750D01*
G75*
G02*
X227302750Y-88946000I243750J0D01*
G01*
G37*
%TD*%
%TO.C,RFB1*%
G36*
G01*
X230350750Y-85847000D02*
X230913250Y-85847000D01*
G75*
G02*
X231157000Y-86090750I0J-243750D01*
G01*
X231157000Y-86578250D01*
G75*
G02*
X230913250Y-86822000I-243750J0D01*
G01*
X230350750Y-86822000D01*
G75*
G02*
X230107000Y-86578250I0J243750D01*
G01*
X230107000Y-86090750D01*
G75*
G02*
X230350750Y-85847000I243750J0D01*
G01*
G37*
G36*
G01*
X230350750Y-87422000D02*
X230913250Y-87422000D01*
G75*
G02*
X231157000Y-87665750I0J-243750D01*
G01*
X231157000Y-88153250D01*
G75*
G02*
X230913250Y-88397000I-243750J0D01*
G01*
X230350750Y-88397000D01*
G75*
G02*
X230107000Y-88153250I0J243750D01*
G01*
X230107000Y-87665750D01*
G75*
G02*
X230350750Y-87422000I243750J0D01*
G01*
G37*
%TD*%
%TO.C,RFB4*%
G36*
G01*
X175316500Y-75832000D02*
X175711500Y-75832000D01*
G75*
G02*
X175884000Y-76004500I0J-172500D01*
G01*
X175884000Y-76349500D01*
G75*
G02*
X175711500Y-76522000I-172500J0D01*
G01*
X175316500Y-76522000D01*
G75*
G02*
X175144000Y-76349500I0J172500D01*
G01*
X175144000Y-76004500D01*
G75*
G02*
X175316500Y-75832000I172500J0D01*
G01*
G37*
G36*
G01*
X175316500Y-74862000D02*
X175711500Y-74862000D01*
G75*
G02*
X175884000Y-75034500I0J-172500D01*
G01*
X175884000Y-75379500D01*
G75*
G02*
X175711500Y-75552000I-172500J0D01*
G01*
X175316500Y-75552000D01*
G75*
G02*
X175144000Y-75379500I0J172500D01*
G01*
X175144000Y-75034500D01*
G75*
G02*
X175316500Y-74862000I172500J0D01*
G01*
G37*
%TD*%
%TO.C,RVS2*%
G36*
G01*
X173962750Y-75484000D02*
X174525250Y-75484000D01*
G75*
G02*
X174769000Y-75727750I0J-243750D01*
G01*
X174769000Y-76215250D01*
G75*
G02*
X174525250Y-76459000I-243750J0D01*
G01*
X173962750Y-76459000D01*
G75*
G02*
X173719000Y-76215250I0J243750D01*
G01*
X173719000Y-75727750D01*
G75*
G02*
X173962750Y-75484000I243750J0D01*
G01*
G37*
G36*
G01*
X173962750Y-73909000D02*
X174525250Y-73909000D01*
G75*
G02*
X174769000Y-74152750I0J-243750D01*
G01*
X174769000Y-74640250D01*
G75*
G02*
X174525250Y-74884000I-243750J0D01*
G01*
X173962750Y-74884000D01*
G75*
G02*
X173719000Y-74640250I0J243750D01*
G01*
X173719000Y-74152750D01*
G75*
G02*
X173962750Y-73909000I243750J0D01*
G01*
G37*
%TD*%
%TO.C,CFB1*%
G36*
G01*
X171647500Y-75783000D02*
X171252500Y-75783000D01*
G75*
G02*
X171080000Y-75610500I0J172500D01*
G01*
X171080000Y-75265500D01*
G75*
G02*
X171252500Y-75093000I172500J0D01*
G01*
X171647500Y-75093000D01*
G75*
G02*
X171820000Y-75265500I0J-172500D01*
G01*
X171820000Y-75610500D01*
G75*
G02*
X171647500Y-75783000I-172500J0D01*
G01*
G37*
G36*
G01*
X171647500Y-76753000D02*
X171252500Y-76753000D01*
G75*
G02*
X171080000Y-76580500I0J172500D01*
G01*
X171080000Y-76235500D01*
G75*
G02*
X171252500Y-76063000I172500J0D01*
G01*
X171647500Y-76063000D01*
G75*
G02*
X171820000Y-76235500I0J-172500D01*
G01*
X171820000Y-76580500D01*
G75*
G02*
X171647500Y-76753000I-172500J0D01*
G01*
G37*
%TD*%
D18*
%TO.C,U2*%
X183040000Y-72517000D03*
X183040000Y-75057000D03*
X183040000Y-76327000D03*
X177640000Y-76327000D03*
X177640000Y-75057000D03*
X177640000Y-73787000D03*
X177640000Y-72517000D03*
%TD*%
D10*
%TO.C,T1*%
X211770000Y-52070000D03*
X211770000Y-47070000D03*
X211770000Y-42070000D03*
X211770000Y-37070000D03*
X211770000Y-32070000D03*
X191770000Y-32070000D03*
X191770000Y-37070000D03*
X191770000Y-42070000D03*
X191770000Y-52070000D03*
%TD*%
D19*
%TO.C,U1*%
X193040000Y-94234000D03*
X200660000Y-96774000D03*
X193040000Y-96774000D03*
D20*
X200660000Y-94234000D03*
%TD*%
%TO.C,RCS1*%
G36*
G01*
X185534000Y-79050500D02*
X185534000Y-79445500D01*
G75*
G02*
X185361500Y-79618000I-172500J0D01*
G01*
X185016500Y-79618000D01*
G75*
G02*
X184844000Y-79445500I0J172500D01*
G01*
X184844000Y-79050500D01*
G75*
G02*
X185016500Y-78878000I172500J0D01*
G01*
X185361500Y-78878000D01*
G75*
G02*
X185534000Y-79050500I0J-172500D01*
G01*
G37*
G36*
G01*
X186504000Y-79050500D02*
X186504000Y-79445500D01*
G75*
G02*
X186331500Y-79618000I-172500J0D01*
G01*
X185986500Y-79618000D01*
G75*
G02*
X185814000Y-79445500I0J172500D01*
G01*
X185814000Y-79050500D01*
G75*
G02*
X185986500Y-78878000I172500J0D01*
G01*
X186331500Y-78878000D01*
G75*
G02*
X186504000Y-79050500I0J-172500D01*
G01*
G37*
%TD*%
D21*
%TO.C,M1*%
X191516000Y-81004000D03*
X191516000Y-75554000D03*
D22*
X191516000Y-70104000D03*
%TD*%
%TO.C,Cz1*%
G36*
G01*
X223830500Y-86777000D02*
X224225500Y-86777000D01*
G75*
G02*
X224398000Y-86949500I0J-172500D01*
G01*
X224398000Y-87294500D01*
G75*
G02*
X224225500Y-87467000I-172500J0D01*
G01*
X223830500Y-87467000D01*
G75*
G02*
X223658000Y-87294500I0J172500D01*
G01*
X223658000Y-86949500D01*
G75*
G02*
X223830500Y-86777000I172500J0D01*
G01*
G37*
G36*
G01*
X223830500Y-87747000D02*
X224225500Y-87747000D01*
G75*
G02*
X224398000Y-87919500I0J-172500D01*
G01*
X224398000Y-88264500D01*
G75*
G02*
X224225500Y-88437000I-172500J0D01*
G01*
X223830500Y-88437000D01*
G75*
G02*
X223658000Y-88264500I0J172500D01*
G01*
X223658000Y-87919500D01*
G75*
G02*
X223830500Y-87747000I172500J0D01*
G01*
G37*
%TD*%
%TO.C,Cvdd1*%
G36*
G01*
X175120000Y-72446500D02*
X175120000Y-72841500D01*
G75*
G02*
X174947500Y-73014000I-172500J0D01*
G01*
X174602500Y-73014000D01*
G75*
G02*
X174430000Y-72841500I0J172500D01*
G01*
X174430000Y-72446500D01*
G75*
G02*
X174602500Y-72274000I172500J0D01*
G01*
X174947500Y-72274000D01*
G75*
G02*
X175120000Y-72446500I0J-172500D01*
G01*
G37*
G36*
G01*
X176090000Y-72446500D02*
X176090000Y-72841500D01*
G75*
G02*
X175917500Y-73014000I-172500J0D01*
G01*
X175572500Y-73014000D01*
G75*
G02*
X175400000Y-72841500I0J172500D01*
G01*
X175400000Y-72446500D01*
G75*
G02*
X175572500Y-72274000I172500J0D01*
G01*
X175917500Y-72274000D01*
G75*
G02*
X176090000Y-72446500I0J-172500D01*
G01*
G37*
%TD*%
%TO.C,Css431*%
G36*
G01*
X224225500Y-90769000D02*
X223830500Y-90769000D01*
G75*
G02*
X223658000Y-90596500I0J172500D01*
G01*
X223658000Y-90251500D01*
G75*
G02*
X223830500Y-90079000I172500J0D01*
G01*
X224225500Y-90079000D01*
G75*
G02*
X224398000Y-90251500I0J-172500D01*
G01*
X224398000Y-90596500D01*
G75*
G02*
X224225500Y-90769000I-172500J0D01*
G01*
G37*
G36*
G01*
X224225500Y-89799000D02*
X223830500Y-89799000D01*
G75*
G02*
X223658000Y-89626500I0J172500D01*
G01*
X223658000Y-89281500D01*
G75*
G02*
X223830500Y-89109000I172500J0D01*
G01*
X224225500Y-89109000D01*
G75*
G02*
X224398000Y-89281500I0J-172500D01*
G01*
X224398000Y-89626500D01*
G75*
G02*
X224225500Y-89799000I-172500J0D01*
G01*
G37*
%TD*%
%TO.C,Ccs1*%
G36*
G01*
X181216000Y-78288500D02*
X181216000Y-78683500D01*
G75*
G02*
X181043500Y-78856000I-172500J0D01*
G01*
X180698500Y-78856000D01*
G75*
G02*
X180526000Y-78683500I0J172500D01*
G01*
X180526000Y-78288500D01*
G75*
G02*
X180698500Y-78116000I172500J0D01*
G01*
X181043500Y-78116000D01*
G75*
G02*
X181216000Y-78288500I0J-172500D01*
G01*
G37*
G36*
G01*
X182186000Y-78288500D02*
X182186000Y-78683500D01*
G75*
G02*
X182013500Y-78856000I-172500J0D01*
G01*
X181668500Y-78856000D01*
G75*
G02*
X181496000Y-78683500I0J172500D01*
G01*
X181496000Y-78288500D01*
G75*
G02*
X181668500Y-78116000I172500J0D01*
G01*
X182013500Y-78116000D01*
G75*
G02*
X182186000Y-78288500I0J-172500D01*
G01*
G37*
%TD*%
M02*
